<?xml version="1.0" encoding="utf-8"?>
<!-- Generator: Adobe Illustrator 23.1.0, SVG Export Plug-In . SVG Version: 6.00 Build 0)  -->
<svg version="1.1" id="Layer_1" xmlns="http://www.w3.org/2000/svg" xmlns:xlink="http://www.w3.org/1999/xlink" x="0px" y="0px"
	 viewBox="0 0 594 208" style="enable-background:new 0 0 594 208;" xml:space="preserve">
<style type="text/css">
	.st0{fill:#DCDCDC;}
</style>
<g>
	<path class="st0" d="M34.45,58.57c-8.87,0-17.54,0-26.27,0c-0.06-0.26-0.15-0.48-0.14-0.7C8.2,52.56,7.97,47.2,8.65,41.95
		c1.88-14.57,10.07-24.61,23.56-29.98c12.36-4.92,24.36-3.44,35.61,3.71c0.63,0.4,1.06,0.43,1.7,0.02
		c6.93-4.51,14.52-6.69,22.8-6.48c17.49,0.45,31.76,13.04,35.58,26.28c1.18,4.09,1.73,8.28,1.79,12.53
		c0.05,3.47,0.01,6.95,0.01,10.51c-8.78,0-17.48,0-26.3,0c-0.02-0.48-0.06-0.94-0.06-1.41c-0.07-3.8-0.01-7.6-0.22-11.39
		c-0.28-5.2-3.04-8.77-7.42-9.9c-6.53-1.7-12.45,2.16-13.19,8.89c-0.44,4-0.34,8.06-0.48,12.09c-0.02,0.55,0,1.1,0,1.73
		c-8.81,0-17.47,0-26.35,0c0-0.45,0.02-0.9,0-1.36c-0.17-4.39-0.14-8.8-0.59-13.16c-0.4-3.93-2.75-6.73-6.54-7.98
		c-3.94-1.3-7.67-0.76-10.83,2.14c-2.4,2.2-2.93,5.15-3.05,8.2c-0.14,3.59-0.16,7.19-0.23,10.79
		C34.44,57.61,34.45,58.04,34.45,58.57z"/>
	<path class="st0" d="M243.82,58.57c-8.74,0-17.41,0-26.17,0c-0.88-7.68-4.34-13.87-10.64-18.39c-5.05-3.62-10.74-5.06-16.87-4.58
		c-12.48,1-21.98,11.07-23.08,22.93c-8.68,0-17.38,0-26.35,0c1.01-15.9,7.31-29.16,20.15-38.59c17.91-13.15,37.2-14.58,56.78-4.03
		C236.29,25.96,243.63,44.72,243.82,58.57z"/>
	<path class="st0" d="M498.06,58.57c-8.76,0-17.42,0-26.2,0c-0.87-7.75-4.4-13.98-10.8-18.51c-5-3.53-10.62-4.92-16.67-4.47
		c-11.25,0.84-21.66,9.65-23.18,22.96c-8.69,0-17.38,0-26.32,0c1.12-16.4,7.74-29.9,21.17-39.36c17.4-12.26,36.07-13.58,54.97-3.75
		C489.96,25.29,497.73,43.94,498.06,58.57z"/>
	<path class="st0" d="M286.51,58.52c0-0.48,0-0.91,0-1.56c1.54,0,3.07,0.18,4.54-0.04c2.23-0.34,4.54-0.66,6.59-1.53
		c4.75-2.02,6.78-7,5.36-12.35c-1.11-4.19-4-6.56-8.11-7.15c-3.34-0.48-6.76-0.42-10.15-0.51c-2.93-0.07-2.93-0.02-2.93,2.95
		c0,6.24,0,12.48,0,18.72c0,0.47,0,0.94,0,1.5c-8.86,0-17.6,0-26.41,0c0-15.76,0-31.49,0-47.37c0.52,0,0.99,0,1.45,0
		c11.84,0.01,23.68-0.09,35.52,0.06c7.26,0.1,14.41,0.98,21.01,4.46c11.83,6.24,17.59,17.1,16.29,31.02
		c-0.37,3.95-1.46,7.68-3.62,11.05c-0.25,0.39-0.83,0.82-1.25,0.83c-12.6,0.04-25.2,0.03-37.8,0.02
		C286.9,58.61,286.79,58.57,286.51,58.52z"/>
	<path class="st0" d="M395.44,67c0.52,0,0.95,0,1.38,0c8.04,0,16.08,0.02,24.12-0.02c0.95,0,1.34,0.26,1.66,1.19
		c3.67,10.63,14.1,17.65,25.29,17.1c10.16-0.5,19.51-7.59,22.67-17.22c0.24-0.74,0.53-1.07,1.39-1.07c8.2,0.04,16.4,0.02,24.6,0.03
		c0.35,0,0.7,0.05,1.05,0.07c-2.34,22.16-22.08,43.81-49.69,44.51C418.52,112.32,398.06,89.82,395.44,67z"/>
	<path class="st0" d="M243.42,67c-2.6,22.75-22.41,43.8-49.6,44.59c-28.18,0.82-49.53-20.2-52.65-44.59c0.45,0,0.88,0,1.31,0
		c8.08,0,16.16,0.02,24.24-0.03c0.98-0.01,1.33,0.32,1.68,1.21c3.6,9.32,10.28,15.05,20.15,16.81c11.47,2.04,23.81-5.31,27.59-16.4
		c0.45-1.31,1.02-1.64,2.34-1.63c7.84,0.07,15.68,0.03,23.52,0.03C242.46,67,242.94,67,243.42,67z"/>
	<path class="st0" d="M559.64,58.55c0-3.55,0.04-7.02-0.02-10.49c-0.02-1.39-0.14-2.8-0.44-4.15c-1.12-5.01-4.22-7.81-9.27-8.52
		c-6.7-0.95-12.25,2.72-13.91,9.28c-0.29,1.15-0.4,2.37-0.42,3.56c-0.05,3.4-0.02,6.79-0.02,10.29c-8.79,0-17.52,0-26.33,0
		c-0.03-0.14-0.12-0.32-0.11-0.5c0.19-5.39,0.12-10.8,0.65-16.16c1.65-16.88,15.71-29.43,29.7-31.88
		c11.34-1.99,22.02-0.35,31.38,6.75c9,6.83,14.13,15.94,14.9,27.3c0.31,4.58,0.31,9.18,0.44,13.77c0.01,0.23-0.03,0.46-0.04,0.76
		C577.32,58.55,568.58,58.55,559.64,58.55z"/>
	<path class="st0" d="M385.9,35.19c-1.9-0.32-3.69-0.69-5.5-0.9c-2.26-0.26-4.47,0.1-6.52,1.12c-4.12,2.05-5.84,5.99-4.15,10.58
		c1.16,3.15,2.95,6.08,4.53,9.07c0.61,1.16,1.41,2.21,2.21,3.46c-0.48,0.04-0.81,0.09-1.14,0.09c-9.08,0-18.15-0.01-27.23,0.02
		c-0.82,0-1.26-0.23-1.66-0.99c-2.88-5.49-4.78-11.27-4.63-17.52c0.31-12.66,6.13-21.91,17.54-27.5c6.15-3.01,12.72-3.87,19.49-3.23
		c2.1,0.2,4.17,0.64,6.26,0.96c0.59,0.09,0.91,0.31,0.91,0.99c-0.03,7.88-0.02,15.75-0.03,23.63
		C385.96,35.06,385.92,35.13,385.9,35.19z"/>
	<path class="st0" d="M352.82,67c0.69,0,1.08,0,1.48,0c8.87,0,17.75,0.01,26.62-0.02c0.93,0,1.44,0.24,1.81,1.13
		c4.59,11.1,4.64,21.87-2.58,31.96c-3.88,5.42-9.46,8.47-15.8,10.18c-8.39,2.25-16.69,1.57-24.92-0.86
		c-0.62-0.18-0.91-0.44-0.91-1.15c0.03-7.67,0.02-15.35,0.02-23.03c0-0.12,0.04-0.23,0.08-0.47c1.09,0.41,2.14,0.86,3.21,1.19
		c4.28,1.34,8.55,1.63,12.69-0.5c3.88-2,5.23-5.28,3.58-9.31c-0.91-2.23-2.26-4.29-3.46-6.4C354.15,68.86,353.54,68.07,352.82,67z"
		/>
	<path class="st0" d="M330.46,109.52c-8.69,0-17.36,0-26.23,0c0-0.54,0-1.04,0-1.55c-0.02-6.68,0.03-13.35-0.11-20.03
		c-0.04-1.81-0.45-3.65-0.98-5.39c-1.4-4.52-4.94-6.37-9.31-6.9c-2.37-0.29-4.77-0.29-7.27-0.43c0-2.65,0-5.34,0-8.16
		c0.4-0.02,0.83-0.07,1.25-0.07c11,0,21.99-0.01,32.99,0.03c0.6,0,1.32,0.3,1.77,0.7c5.19,4.69,7.62,10.74,7.87,17.56
		c0.29,7.95,0.13,15.91,0.16,23.86C330.59,109.23,330.54,109.3,330.46,109.52z"/>
	<path class="st0" d="M281.78,109.51c-8.82,0-17.56,0-26.37,0c0-14.15,0-28.24,0-42.42c8.78,0,17.55,0,26.37,0
		C281.78,81.23,281.78,95.28,281.78,109.51z"/>
	<path class="st0" d="M509.15,67.07c8.81,0,17.55,0,26.34,0c0,14.16,0,28.25,0,42.42c-8.79,0-17.52,0-26.34,0
		C509.15,95.38,509.15,81.29,509.15,67.07z"/>
	<path class="st0" d="M559.72,67.05c8.82,0,17.57,0,26.39,0c0,14.14,0,28.23,0,42.42c-8.77,0-17.54,0-26.39,0
		C559.72,95.38,559.72,81.29,559.72,67.05z"/>
	<path class="st0" d="M8.05,109.5c0-14.17,0-28.26,0-42.43c8.79,0,17.53,0,26.33,0c0,14.16,0,28.26,0,42.43
		C25.59,109.5,16.85,109.5,8.05,109.5z"/>
	<path class="st0" d="M55.76,67.06c8.76,0,17.43,0,26.23,0c0.03,0.51,0.07,0.97,0.07,1.44c0,13.2-0.01,26.4,0.03,39.6
		c0,1.24-0.35,1.53-1.55,1.52c-7.8-0.05-15.6-0.03-23.4-0.03c-0.43,0-0.87,0-1.39,0C55.76,95.37,55.76,81.28,55.76,67.06z"/>
	<path class="st0" d="M129.65,67.1c0,14.13,0,28.22,0,42.39c-8.75,0-17.44,0-26.22,0c0-14.12,0-28.2,0-42.39
		C112.15,67.1,120.86,67.1,129.65,67.1z"/>
	<path class="st0" d="M194.46,189.34c-0.39-1.13,0.16-1.56,1.09-1.72c0.16-0.03,0.32-0.04,0.47-0.07c3.16-0.55,2.98-0.17,3-3.47
		c0.04-8.07,0.03-16.14,0.09-24.22c0.01-1.04-0.43-1.33-1.3-1.41c-1.02-0.09-2.04-0.22-3.04-0.34c-0.21-1.72-0.21-1.78,1.39-1.83
		c5.74-0.18,11.48-0.38,17.22-0.43c2.91-0.02,5.58,0.87,7.8,2.88c4.4,3.98,3.57,10.24-1.74,12.91c-0.71,0.35-1.44,0.65-2.24,1
		c0.13,0.26,0.22,0.48,0.34,0.67c2.35,3.75,4.76,7.48,7.05,11.27c0.87,1.44,1.94,2.47,3.57,2.98c0.79,0.25,1.79,0.48,1.59,1.84
		c-1.08,0-2.17,0-3.26,0c-2.31,0.01-4.62-0.01-6.93,0.05c-0.71,0.02-1.06-0.21-1.36-0.83c-1.85-3.76-3.73-7.5-5.61-11.25
		c-0.14-0.29-0.29-0.57-0.44-0.85c-1.57-2.96-2.6-3.44-6.16-2.79c0,1.34,0.01,2.72,0,4.1c-0.02,2.4-0.03,4.79-0.11,7.19
		c-0.03,0.87,0.25,1.36,1.09,1.55c1.01,0.23,2,0.55,3.02,0.74c1.26,0.24,1.58,0.9,1.07,2.04
		C205.56,189.34,200.03,189.34,194.46,189.34z M206,171.21c1.4,0,2.75,0.1,4.08-0.02c4.19-0.36,6.21-2.8,5.85-6.98
		c-0.26-2.96-1.69-4.97-4.28-5.56c-1.5-0.34-3.08-0.29-4.63-0.37c-0.75-0.04-0.99,0.38-0.98,1.14c0.04,1.92-0.02,3.84-0.03,5.76
		C205.99,167.15,206,169.14,206,171.21z"/>
	<path class="st0" d="M250.33,189.95c-4.86,0.13-9.88-1.72-13.64-6.44c-7.85-9.85-2.19-25.27,10.15-27.62
		c4.7-0.89,9.33-0.73,13.72,1.31c10.03,4.67,12.81,17.81,5.68,26.43C262.37,188.33,257.22,189.96,250.33,189.95z M261.93,171.45
		c-0.06-2.61-0.43-5.98-2.28-8.97c-2.19-3.51-5.52-4.85-9.5-4.6c-3.49,0.22-5.73,2.31-7.19,5.38c-1.05,2.21-1.37,4.57-1.53,6.97
		c-0.29,4.38,0.31,8.61,2.18,12.6c0.83,1.78,2.18,3.16,3.97,4.01c5.06,2.41,10.74,0.19,13.01-5.06
		C261.91,178.72,262.04,175.5,261.93,171.45z"/>
	<path class="st0" d="M333.51,180.15c-0.37,1.97-0.72,3.87-1.08,5.77c-0.1,0.55-0.23,1.09-0.31,1.65c-0.35,2.6-0.12,2.1-2.46,2.07
		c-6.07-0.09-12.14-0.36-18.21-0.4c-3.91-0.03-7.83,0.22-11.74,0.34c-0.19,0.01-0.38-0.02-0.59-0.03c-0.3-1.11-0.21-1.79,1.18-1.81
		c1.07-0.02,2.13-0.32,3.19-0.49c1.05-0.16,1.48-0.78,1.47-1.82c-0.02-2.72,0.01-5.44-0.01-8.16c-0.03-4.56-0.08-9.11-0.15-13.67
		c-0.02-1.32-0.09-2.64-0.27-3.94c-0.05-0.37-0.54-0.9-0.91-0.98c-1.47-0.33-2.98-0.51-4.61-0.77c0.03-0.57,0.07-1.14,0.1-1.8
		c1.92,0.16,3.71,0.45,5.49,0.43c5.87-0.07,11.74-0.3,17.62-0.36c2.67-0.03,5.34,0.21,8.01,0.31c0.77,0.03,1.05,0.48,1.05,1.16
		c0.01,2.27,0,4.55,0,6.81c-1.5,0.48-1.67,0.43-2.25-0.97c-1.27-3.02-2.84-5.38-6.79-5.02c-3.32,0.3-6.69,0.06-10.34,0.06
		c0,1.29-0.01,2.55,0,3.82c0.01,2.64,0.06,5.28,0.04,7.92c-0.01,0.83,0.3,1.17,1.12,1.14c2.51-0.09,5.03-0.11,7.54-0.26
		c1.71-0.11,2.35-0.76,2.78-2.46c0.14-0.54,0.3-1.09,0.35-1.64c0.12-1.27,0.8-1.5,2.07-1.03c0,1.95-0.02,3.97,0.01,5.99
		c0.02,1.96,0.1,3.91,0.14,5.87c0.01,0.49,0.18,1.09-0.66,1.12c-0.66,0.02-1.14-0.05-1.29-0.86c-0.18-1.02-0.49-2.01-0.75-3.02
		c-0.25-0.95-0.87-1.6-1.85-1.62c-3.1-0.05-6.2-0.02-9.33-0.02c0,1.84,0,3.47,0,5.1c0,2.16,0.04,4.32,0,6.48
		c-0.02,1.07,0.41,1.65,1.47,1.81c4.15,0.62,8.31,0.69,12.37-0.37c2.65-0.69,4.05-2.92,5.02-5.29
		C331.47,179.89,332.28,179.92,333.51,180.15z"/>
	<path class="st0" d="M172.6,171.85c1.21-0.07,2.35,0,3.42-0.21c2.82-0.56,4.44-3.08,4.27-6.48c-0.02-0.48-0.06-0.96-0.11-1.43
		c-0.32-3.31-2.64-5.47-5.96-5.51c-0.79-0.01-1.59,0.04-2.38,0.13c-1.05,0.13-1.47,0.76-1.45,1.82c0.08,3.76,0.14,7.51,0.16,11.27
		c0.03,4.28,0,8.55,0.01,12.83c0.01,2.5,0.02,2.5,2.49,2.79c0.63,0.08,1.26,0.2,1.9,0.25c0.78,0.05,1.14,0.37,1.1,1.2
		c-0.04,0.83-0.5,0.96-1.19,0.93c-2.51-0.12-5.03-0.31-7.54-0.29c-2.63,0.01-5.25,0.23-7.89,0.35c-0.39-1.46-0.35-1.5,1.05-1.98
		c4.08-1.41,3.41-1.06,3.33-4.61c-0.16-7.31-0.38-14.62-0.58-21.93c-0.05-1.73-0.59-2.38-2.24-2.74c-0.39-0.09-0.78-0.14-1.17-0.22
		c-1.58-0.32-1.58-0.32-1.53-2.12c1.65,0.08,3.31,0.23,4.97,0.22c3.79-0.02,7.58-0.18,11.37-0.15c2.18,0.02,4.41,0.07,6.53,0.54
		c3.79,0.84,6.28,3.9,6.78,7.78c0.47,3.66-1.39,7.58-4.55,9.4c-2.96,1.7-6.06,1.73-9.26,0.69
		C172.82,173.96,172.38,173.15,172.6,171.85z"/>
	<path class="st0" d="M371.83,164.31c-1.52,0.41-2.43,0.01-3.3-1.17c-2.14-2.9-4.94-4.84-8.65-5.24c-3.69-0.39-6.56,0.91-8.57,4.06
		c-1.75,2.74-2.46,5.8-2.62,8.98c-0.19,3.68-0.04,7.29,1.45,10.81c2.58,6.1,10.42,7.61,15.22,3.74c1.39-1.12,2.69-2.41,3.76-3.83
		c0.88-1.16,1.87-1.29,3.34-1.17c-0.53,2.35-0.97,4.64-1.61,6.87c-0.13,0.47-0.92,0.9-1.49,1.06c-1.79,0.52-3.6,1.08-5.44,1.31
		c-3.98,0.5-8.03,0.54-11.86-0.74c-6.43-2.15-10.4-6.59-11.18-13.45c-0.83-7.35,1.49-13.39,7.86-17.56
		c2.35-1.54,5.01-2.35,7.78-2.55c4.16-0.3,8.3,0.05,12.39,0.9c0.86,0.18,1.3,0.59,1.5,1.43c0.41,1.75,0.9,3.47,1.32,5.21
		C371.83,163.39,371.8,163.84,371.83,164.31z"/>
	<path class="st0" d="M411.5,164.54c-1.79,0.66-1.86,0.64-2.59-0.9c-0.48-1.01-0.82-2.1-1.4-3.04c-0.31-0.5-0.99-1.04-1.54-1.08
		c-1.95-0.14-3.91-0.06-5.87-0.09c-0.79-0.01-1.14,0.27-1.14,1.11c0.02,4.64,0.01,9.27,0.01,13.91c0,3.28,0.02,6.56,0.03,9.84
		c0.01,2.34,0.02,2.35,2.26,2.79c0.59,0.11,1.16,0.31,1.75,0.39c1.18,0.15,1.39,0.85,1.13,2.08c-3.06-0.13-6.11-0.31-9.17-0.38
		c-3.07-0.07-6.14-0.01-9.35-0.01c-0.37-0.87,0.26-1.43,1.25-1.73c1.1-0.34,2.22-0.67,3.35-0.92c1.15-0.25,1.55-1.02,1.58-2.07
		c0.05-1.48,0.1-2.96,0.09-4.44c-0.02-5.99-0.05-11.99-0.08-17.98c0-0.12,0-0.24-0.01-0.36c-0.11-2.09-0.14-2.14-2.19-2.22
		c-1.12-0.04-2.25,0.08-3.36-0.05c-2.78-0.34-4.78,0.82-6.32,3.03c-0.32,0.46-0.71,0.86-1.05,1.31c-0.41,0.55-0.84,0.43-1.34,0.12
		c-0.51-0.31-0.71-0.61-0.49-1.26c0.79-2.34,1.49-4.72,2.27-7.06c0.11-0.34,0.51-0.84,0.75-0.83c0.47,0.02,1.19,0.23,1.35,0.58
		c0.61,1.32,1.62,1.54,2.92,1.53c7.32-0.06,14.64-0.06,21.96-0.08c1.37,0,2.73,0.03,3.28-1.71c0.09-0.28,0.93-0.4,1.43-0.43
		c0.13-0.01,0.43,0.59,0.43,0.91C411.52,158.53,411.5,161.56,411.5,164.54z"/>
	<path class="st0" d="M419.19,180.44c2.03-0.26,2.06-0.27,2.81,1.47c0.91,2.1,2.04,3.98,4.23,4.99c2.61,1.21,5.21,1.11,7.72-0.21
		c1.73-0.91,2.81-2.37,2.85-4.4c0.04-2.07-1.09-3.55-2.84-4.37c-2.56-1.2-5.23-2.17-7.87-3.2c-3.09-1.21-5.62-2.99-6.83-6.27
		c-2.14-5.78,1.23-11.6,7.47-12.81c3.56-0.69,6.99-0.12,10.36,1.01c0.33,0.11,0.72,0.56,0.77,0.9c0.28,1.89,0.51,3.8,0.64,5.7
		c0.03,0.44-0.48,1.32-0.54,1.3c-0.75-0.22-1.82,0.35-2.18-0.92c-0.26-0.91-0.69-1.79-1.16-2.62c-1.59-2.82-4.77-4.01-7.83-2.95
		c-1.81,0.63-2.98,1.9-3.24,3.81c-0.25,1.9,0.69,3.41,2.21,4.35c1.41,0.87,3.01,1.45,4.55,2.09c1.84,0.77,3.78,1.33,5.55,2.22
		c6.6,3.32,7.24,12.63,1.23,16.94c-3.87,2.78-8.15,2.95-12.59,2.05c-1.4-0.28-2.77-0.76-4.15-1.15c-0.78-0.22-1.19-0.65-1.17-1.54
		C419.22,184.73,419.19,182.62,419.19,180.44z"/>
	<path class="st0" d="M276.76,156.14c5.6,0,11.2,0,16.8,0c0.29,1.58,0.2,1.73-1.09,1.85c-3.6,0.32-3.46,0.32-3.39,3.94
		c0.15,7.63,0.21,15.27,0.15,22.9c-0.02,2.41-0.33,4.88-0.93,7.22c-0.99,3.83-3.03,7.03-6.69,8.93c-1.67,0.86-3.44,1.26-5.32,1.13
		c-2.03-0.14-3.94-2.22-3.86-4.21c0.05-1.25,0.83-2.42,1.93-2.8c1.26-0.43,2.38-0.16,3.27,0.83c0.48,0.53,0.84,1.16,1.27,1.74
		c0.51,0.69,1.16,1.54,2.02,1.07c0.61-0.33,1.11-1.26,1.22-1.99c0.23-1.49,0.23-3.03,0.23-4.54c-0.03-6.07-0.1-12.15-0.15-18.22
		c-0.02-2.6,0.01-5.2-0.02-7.79c-0.03-2.24-0.09-4.47-0.22-6.71c-0.02-0.33-0.44-0.83-0.76-0.9c-0.93-0.22-1.89-0.3-2.85-0.35
		C276.5,158.13,276.49,158.14,276.76,156.14z"/>
</g>
</svg>
