<?xml version="1.0" encoding="utf-8"?>
<!-- Generator: Adobe Illustrator 23.1.0, SVG Export Plug-In . SVG Version: 6.00 Build 0)  -->
<svg version="1.1" id="Layer_1" xmlns="http://www.w3.org/2000/svg" xmlns:xlink="http://www.w3.org/1999/xlink" x="0px" y="0px"
	 viewBox="0 0 519 111" style="enable-background:new 0 0 519 111;" xml:space="preserve">
<style type="text/css">
	.st0{fill:#BABABA;}
</style>
<g>
	<path class="st0" d="M75,31.77c1.41,0,2.48,0,3.96,0c0,3.27,0,6.39,0,10.17c0.92-0.87,1.32-1.18,1.64-1.56
		c5.97-7.19,13.61-10.26,22.71-8.16c9.17,2.11,14.83,8.38,17.51,17.28c4.48,14.88-4.12,30.33-18.52,33.11
		c-8.43,1.62-15.39-1.4-21.11-7.6c-0.57-0.62-1.13-1.23-2.18-2.39c0,10.43,0,20.19,0,30.13c-1.48,0-2.64,0-4.02,0
		C75,79.17,75,55.59,75,31.77z M97.58,35.88c-0.43,0.06-1.76,0.13-3.03,0.45C86.71,38.32,82.13,43.63,80,51.14
		c-2.35,8.31-0.57,15.81,5.42,22.03c7.09,7.36,18.2,7.43,25.56,0.36c4.36-4.18,6.39-9.43,6.7-15.4
		C118.31,46.25,109.39,35.93,97.58,35.88z"/>
	<path class="st0" d="M60.52,29.26c-2.51,0-3.6,0-4.65,0C50.37,15.76,38.3,10.7,25.89,16.64c-3.81,1.82-6.85,4.46-8.41,8.5
		c-1.73,4.47-0.98,8.14,2.95,10.85c3.33,2.3,7.05,4.11,10.76,5.74c5.45,2.4,11.11,4.32,16.57,6.71c2.81,1.23,5.55,2.79,8,4.63
		c7.17,5.4,8,13.6,2.22,20.54c-4.55,5.47-10.63,8.21-17.53,9.08c-9.04,1.14-17.42-0.62-24.41-6.84c-3.48-3.09-5.72-6.89-5.7-11.95
		c1.4,0,2.58,0,3.75,0c2.87,9.82,11.17,15.29,22.57,14.82c6.35-0.26,12.24-1.95,16.91-6.53c5.87-5.75,5.42-12.43-1.69-16.49
		c-5.52-3.15-11.66-5.21-17.47-7.86c-5.01-2.28-10.24-4.26-14.86-7.19c-8.34-5.28-9.48-13.83-3.47-21.64
		c9.21-11.96,31-11.93,39.88,0.26C57.93,21.99,58.84,25.47,60.52,29.26z"/>
	<path class="st0" d="M253.24,59.27c1.32,8.85,5.04,15.35,12.94,18.19c9.22,3.31,17.17,0.63,23.46-7.21
		c1.11,0.86,2.12,1.64,3.11,2.4c-6.72,10.79-22.34,13.7-32.93,6.35c-14.12-9.81-14.58-32.36-0.86-42.74
		c14.13-10.7,34.23-1.78,36.86,16.38c0.3,2.05,0.34,4.13,0.53,6.64C281.91,59.27,267.82,59.27,253.24,59.27z M291.72,55.04
		c0.23-10.23-9.12-19.29-19.49-19.15c-9.9,0.14-19.04,9.54-18.5,19.15C266.29,55.04,278.87,55.04,291.72,55.04z"/>
	<path class="st0" d="M239.65,41.05c-0.95,0.69-1.91,1.39-3.11,2.26c-3.52-4.38-8.02-6.9-13.57-7.36
		c-10.77-0.9-19.22,6.33-21.12,18.04c-1.99,12.22,6.35,23.88,17.81,24.68c6.91,0.48,12.47-2.3,16.79-7.95
		c1.12,0.73,2.1,1.37,3.05,1.99c-3.38,7.25-13.55,11.72-22.45,10.01c-10.04-1.93-17.91-10.46-19.37-21.01
		c-1.64-11.79,3.67-22.94,13.22-27.77C220.82,28.92,233.95,32.08,239.65,41.05z"/>
	<path class="st0" d="M165.37,41.56c5.18,0,10.35,0,15.53,0c0.12-0.4,0.24-0.8,0.36-1.19c-0.91-1.27-1.82-2.54-2.78-3.88
		c1.8-1.86,3.12-1.03,4.38,0.76c5.86,8.31,1.55,20.88-8.14,23.61c-2.65,0.75-5.46,1.1-7.94,2.21c-2.23,1-4.12,2.78-6.15,4.21
		c0.18,0.57,0.36,1.14,0.54,1.7c5.19,0,10.38,0,15.57,0c0.04,0.53,0.08,1.07,0.12,1.6c-1.11,0.3-2.2,0.82-3.32,0.85
		c-3.42,0.11-6.85,0.09-10.28,0.03c-1.91-0.03-3.44-0.05-3.45,2.64c0,2.75,1.48,3.01,3.6,2.96c3.31-0.08,6.63-0.06,9.95,0.01
		c1.12,0.02,2.24,0.35,3.35,0.53c0.04,0.36,0.09,0.72,0.13,1.08c-0.97,0.3-1.93,0.82-2.91,0.85c-3.53,0.1-7.08,0.14-10.61,0.01
		c-2.25-0.08-3.61,0.39-3.53,3.02c0.02,0.71-0.83,1.46-1.28,2.18c-0.41-0.74-1.15-1.47-1.18-2.23c-0.12-3.64-0.1-7.3-0.04-10.94
		c0.1-5.46,2.53-9.01,7.65-10.81c3.21-1.13,6.58-1.82,9.85-2.82c2.79-0.85,5.23-2.23,6.83-6.22c-5.82,0-11.02,0-16.23,0
		c-0.04-0.52-0.08-1.03-0.12-1.55c1.01-0.28,2-0.76,3.02-0.79c3.2-0.1,6.41,0.02,9.62-0.06c1.91-0.05,4.39,0.91,4.42-2.67
		c0.03-3.74-2.55-2.84-4.6-2.88c-3.2-0.07-6.41,0.04-9.62-0.06c-0.94-0.03-1.87-0.46-2.81-0.71
		C165.33,42.51,165.35,42.04,165.37,41.56z"/>
	<path class="st0" d="M138.91,82.88c-1.4,0-2.59,0-3.97,0c0-24.95,0-49.75,0-74.71c1.36,0,2.55,0,3.97,0
		C138.91,32.99,138.91,57.79,138.91,82.88z"/>
	<path class="st0" d="M348.73,58.57c-0.47-0.64-1.08-1.22-1.4-1.92c-2.94-6.51-13.07-7.86-17.53-2.31c-2.35,2.92-2.04,6.02,1.2,7.86
		c2.96,1.67,6.26,2.73,9.35,4.19c2.68,1.27,5.42,2.5,7.87,4.15c2.26,1.52,3.17,3.9,2.38,6.71c-1.4,4.93-7.19,8.17-13.97,7.78
		c-6.18-0.35-10.52-3.76-11.67-10.16c1.28,1.13,2.11,1.55,2.46,2.22c3.62,6.88,14.98,8.05,19.86,2c2.16-2.68,1.93-5.54-1.05-7.35
		c-2.62-1.59-5.58-2.61-8.37-3.92c-2.89-1.36-5.93-2.49-8.59-4.21c-3.28-2.12-3.98-5.35-2.3-8.71c2.24-4.47,6.26-6.16,10.93-6.17
		c4.67-0.01,8.69,1.69,10.95,6.14c0.5,0.98,0.54,2.19,0.78,3.29C349.34,58.28,349.03,58.42,348.73,58.57z"/>
	<path class="st0" d="M163.84,56.61c-2.05,1.89-3.39,1.01-4.64-0.82c-5.77-8.48-1.44-20.75,8.34-23.53
		c2.65-0.75,5.35-1.34,7.97-2.18c3.96-1.28,6.32-4.01,6.54-8.24c0.19-3.64,0.07-7.29,0.28-10.93c0.05-0.88,0.84-1.72,1.28-2.57
		c0.41,0.86,1.15,1.71,1.19,2.58c0.13,3.53,0.1,7.07,0.04,10.61c-0.1,5.48-2.49,8.98-7.63,10.83c-2.9,1.04-5.95,1.64-8.9,2.52
		c-8.8,2.64-11.69,14-5.31,20.77C163.28,55.96,163.56,56.29,163.84,56.61z"/>
	<path class="st0" d="M465.81,73.17c0.52,4.55,2.47,7.56,6.25,9.09c3.7,1.5,7.12,0.69,10.19-1.85c0.7-0.58,1.62-0.9,2.6-1.01
		c-2.19,4.96-8.14,6.95-13.39,4.95c-5.87-2.23-9.15-9.02-7.51-15.57c1.51-6.03,7.08-10.13,12.68-9.33
		c6.35,0.91,10.52,6.27,10.29,13.71C479.98,73.17,473.01,73.17,465.81,73.17z M465.86,70.97c6.42,0,12.66,0,18.91,0
		c-0.36-5.29-4.08-9.13-8.93-9.37C470.7,61.35,467.05,64.66,465.86,70.97z"/>
	<path class="st0" d="M376.75,80.08c-2.64,5-10.54,6.27-15.19,3.61c-5.44-3.1-7.87-10.22-5.49-16.43c2.23-5.8,7.73-8.9,13.4-7.55
		c5.75,1.37,9.64,7.06,8.93,13.53c-6.84,0-13.74,0-20.93,0c0.37,4.22,2.16,7.08,5.55,8.74c3.72,1.82,7.27,1.17,10.54-1.32
		c0.82-0.62,1.73-1.1,2.6-1.65C376.36,79.37,376.56,79.72,376.75,80.08z M376.25,70.98c-0.18-5.48-4.25-9.46-9.48-9.39
		c-5.06,0.07-9.08,4.23-8.97,9.39C363.95,70.98,370.1,70.98,376.25,70.98z"/>
	<path class="st0" d="M176.76,23.84c-5.04,1.48-10.43-0.07-16.12,0.98c1.15,1.65,2.05,2.93,3.01,4.32
		c-1.69,1.73-3.24,1.23-4.27-0.78c-0.89-1.73-1.81-3.64-1.95-5.52c-0.3-4.17-0.18-8.38-0.09-12.57c0.01-0.65,0.76-1.29,1.16-1.93
		c0.45,0.62,1.31,1.28,1.27,1.87c-0.2,2.95,1.3,3.48,3.83,3.35c3.41-0.17,6.84-0.11,10.26,0c1,0.03,1.99,0.55,2.98,0.84
		c-0.03,0.37-0.06,0.74-0.09,1.11c-1.21,0.22-2.41,0.61-3.63,0.64c-3.53,0.09-7.06,0.1-10.59,0.03c-2-0.04-2.71,0.81-2.7,2.77
		c0.01,1.97,0.7,2.76,2.73,2.69c3.53-0.12,7.06-0.09,10.59,0c1.2,0.03,2.4,0.45,3.6,0.69C176.76,22.83,176.76,23.33,176.76,23.84z"
		/>
	<path class="st0" d="M509.64,66.49c-0.5-0.49-1.1-0.91-1.48-1.48c-2.45-3.64-8.18-4.62-11.69-1.96c-2.59,1.97-2.51,4.56,0.39,5.99
		c2.26,1.11,4.76,1.73,7.1,2.69c1.83,0.75,3.7,1.49,5.32,2.58c2.02,1.36,2.78,3.36,1.72,5.78c-1.43,3.29-5.67,5.24-10.75,4.92
		c-4.61-0.29-7.57-2.43-8.85-7.09c1.16,0.68,1.97,0.92,2.4,1.46c3.1,3.92,9.71,4.84,13.69,1.82c2.5-1.9,2.47-4.36-0.36-5.73
		c-2.76-1.33-5.78-2.14-8.66-3.23c-4.4-1.67-6.34-3.79-6.04-6.51c0.34-3.12,3.42-6.05,7.62-6.12c2.68-0.05,5.54,0.96,8.02,2.14
		c1.22,0.58,1.76,2.6,2.61,3.97C510.34,65.98,509.99,66.23,509.64,66.49z"/>
	<path class="st0" d="M437.74,72.5c0.11-9.15,7.36-14.97,15.32-12.57c1.81,0.54,3.37,1.97,4.97,3.1c0.27,0.19,0.17,0.93,0.24,1.41
		c-0.56,0.01-1.21,0.22-1.66,0c-1.65-0.81-3.14-2.16-4.87-2.58c-4.75-1.14-8.83,1.07-10.84,5.46c-2.22,4.84-0.88,10.74,3.12,13.77
		c3.68,2.79,7.93,2.45,12.1-0.85c0.52-0.41,1.39-0.4,2.1-0.58c-0.26,0.73-0.31,1.66-0.8,2.15c-3.18,3.17-7.05,4.04-11.27,2.72
		c-4.79-1.5-7.29-5.1-8.24-9.88C437.73,73.79,437.76,72.89,437.74,72.5z"/>
	<path class="st0" d="M402.08,59.04c0.64,0.91,1.47,1.74,1.9,2.74c2.26,5.28,4.42,10.6,6.63,15.9c0.36,0.87,0.81,1.71,1.33,2.77
		c3.31-7.24,6.48-14.16,9.68-21.06c0.05-0.1,0.61,0.04,1.59,0.12c-3.56,8.73-7.02,17.24-10.49,25.75c-0.43-0.01-0.85-0.02-1.28-0.03
		c-3.5-8.46-7.01-16.92-10.51-25.38C401.31,59.58,401.7,59.31,402.08,59.04z"/>
	<path class="st0" d="M385.25,84.93c0-3.83,0-7.66,0-11.49c0-3.87-0.06-7.74,0.05-11.61c0.02-0.83,0.62-1.64,0.95-2.45
		c0.38,0.76,0.82,1.5,1.12,2.3c0.17,0.46,0.12,1,0.12,0.96c2.99-1.1,5.89-2.25,8.86-3.18c0.59-0.18,1.44,0.5,2.18,0.79
		c-0.61,0.45-1.17,1.18-1.84,1.31c-6.68,1.27-9.24,4.26-9.29,11.07c-0.02,3.43,0.05,6.86-0.05,10.28c-0.02,0.77-0.61,1.53-0.94,2.29
		C386.02,85.1,385.64,85.01,385.25,84.93z"/>
	<path class="st0" d="M178.17,64.32c2.08-2.05,3.68-1.43,4.53,0.41c0.99,2.15,1.84,4.49,2.07,6.82c0.34,3.49,0.17,7.04,0.05,10.56
		c-0.03,0.89-0.72,1.76-1.1,2.63c-0.48-0.92-1.31-1.82-1.37-2.77c-0.19-2.85-0.03-5.72-0.09-8.59
		C182.17,69.88,181.55,66.55,178.17,64.32z"/>
	<path class="st0" d="M429.19,84.9c0-6.49,0-12.98,0-19.46c0-1.55-0.07-3.1,0.06-4.64c0.04-0.49,0.63-0.94,0.96-1.41
		c0.35,0.45,0.97,0.89,1,1.37c0.12,1.98,0.06,3.98,0.06,5.96c0,5.3,0.04,10.61-0.04,15.91c-0.01,0.85-0.52,1.69-0.81,2.54
		C430.02,85.08,429.61,84.99,429.19,84.9z"/>
</g>
</svg>
