<?xml version="1.0" encoding="utf-8"?>
<!-- Generator: Adobe Illustrator 23.1.0, SVG Export Plug-In . SVG Version: 6.00 Build 0)  -->
<svg version="1.1" id="Layer_1" xmlns="http://www.w3.org/2000/svg" xmlns:xlink="http://www.w3.org/1999/xlink" x="0px" y="0px"
	 viewBox="0 0 500 500" style="enable-background:new 0 0 500 500;" xml:space="preserve">
<style type="text/css">
	.st0{fill:#666666;stroke:#F1D844;stroke-width:6;stroke-miterlimit:10;}
	.st1{fill:#666666;}
	.st2{fill:#F1D844;}
</style>
<path class="st0" d="M418.77,92.73c19.93,34.48-124.85,125.46-97.23,212.72c11.21,35.41,43.13,59.83,41.54,61.31
	c-3.42,3.18-110.6-151.72-194.26-132.13c-50.64,11.85-65.15,81.19-79.77,76.44c-28.09-9.13,5.88-279.03,55.69-274.03
	c51.73,5.19,112.47,221.9,82.94,237.97c-16.99,9.25-78.45-41.76-74.45-86.75C160.59,105.49,395.68,52.78,418.77,92.73z"/>
<g>
	<g>
		<g>
			<path class="st1" d="M57.86,388.18h-8.37c-0.24-1.37-0.68-2.59-1.32-3.66s-1.44-1.97-2.39-2.72c-0.95-0.75-2.04-1.31-3.26-1.69
				c-1.22-0.38-2.52-0.57-3.93-0.57c-2.49,0-4.7,0.62-6.62,1.87c-1.92,1.25-3.43,3.07-4.52,5.46c-1.09,2.39-1.63,5.31-1.63,8.76
				c0,3.5,0.55,6.45,1.64,8.85c1.1,2.39,2.6,4.2,4.52,5.41c1.92,1.22,4.11,1.82,6.59,1.82c1.37,0,2.66-0.18,3.86-0.55
				c1.2-0.37,2.28-0.91,3.24-1.62c0.96-0.72,1.77-1.6,2.44-2.64c0.66-1.04,1.12-2.24,1.38-3.58l8.37,0.04
				c-0.31,2.18-0.99,4.22-2.02,6.13s-2.39,3.59-4.06,5.04s-3.62,2.59-5.86,3.4c-2.24,0.81-4.72,1.22-7.45,1.22
				c-4.03,0-7.62-0.93-10.78-2.8c-3.16-1.86-5.65-4.56-7.47-8.08c-1.82-3.52-2.73-7.74-2.73-12.66c0-4.94,0.92-9.16,2.75-12.67
				s4.33-6.2,7.49-8.07c3.16-1.86,6.74-2.8,10.74-2.8c2.55,0,4.92,0.36,7.11,1.07c2.19,0.72,4.15,1.76,5.86,3.14
				c1.71,1.38,3.13,3.07,4.24,5.06C56.79,383.36,57.52,385.63,57.86,388.18z"/>
			<path class="st1" d="M65.49,418.54v-45.82h8.3v19.4h21.23v-19.4h8.32v45.82h-8.32v-19.46H73.79v19.46H65.49z"/>
			<path class="st1" d="M120.66,372.72v45.82h-8.3v-45.82H120.66z"/>
			<path class="st1" d="M129.67,418.54v-45.82h8.3v38.86h20.18v6.96H129.67z"/>
			<path class="st1" d="M165.33,418.54v-45.82h8.3v38.86h20.18v6.96H165.33z"/>
			<path class="st2" d="M34.17,473.94H18.64v-45.82h15.84c4.55,0,8.46,0.91,11.73,2.74s5.79,4.45,7.55,7.86
				c1.76,3.42,2.64,7.5,2.64,12.26c0,4.77-0.88,8.88-2.65,12.3c-1.77,3.43-4.31,6.06-7.63,7.9
				C42.81,473.02,38.82,473.94,34.17,473.94z M26.94,466.76h6.82c3.19,0,5.85-0.58,7.99-1.76s3.74-2.92,4.81-5.26
				c1.07-2.33,1.61-5.25,1.61-8.76s-0.54-6.42-1.61-8.74c-1.07-2.32-2.66-4.06-4.75-5.21c-2.1-1.16-4.69-1.73-7.8-1.73h-7.07V466.76
				z"/>
			<path class="st2" d="M64.28,473.94v-45.82h29.8v6.96h-21.5v12.44h19.96v6.96H72.58v12.51h21.68v6.96H64.28z"/>
			<path class="st2" d="M108.69,428.12l11.92,36.06h0.47l11.9-36.06h9.13l-16.15,45.82h-10.25l-16.13-45.82H108.69z"/>
			<path class="st2" d="M148.15,473.94v-45.82h29.8v6.96h-21.5v12.44h19.96v6.96h-19.96v12.51h21.68v6.96H148.15z"/>
			<path class="st2" d="M186.43,473.94v-45.82h8.3v38.86h20.18v6.96H186.43z"/>
			<path class="st2" d="M263.03,451.03c0,4.94-0.92,9.16-2.76,12.67s-4.35,6.2-7.52,8.07c-3.17,1.86-6.76,2.8-10.77,2.8
				c-4.01,0-7.6-0.94-10.77-2.81c-3.17-1.87-5.68-4.56-7.52-8.08c-1.84-3.51-2.76-7.73-2.76-12.65c0-4.94,0.92-9.16,2.76-12.67
				c1.84-3.51,4.35-6.2,7.52-8.07c3.17-1.86,6.76-2.8,10.77-2.8c4.01,0,7.6,0.93,10.77,2.8c3.17,1.87,5.68,4.55,7.52,8.07
				S263.03,446.1,263.03,451.03z M254.69,451.03c0-3.47-0.54-6.41-1.62-8.8c-1.08-2.39-2.58-4.21-4.49-5.44s-4.11-1.85-6.6-1.85
				c-2.49,0-4.69,0.62-6.6,1.85s-3.4,3.04-4.49,5.44c-1.08,2.39-1.62,5.33-1.62,8.8c0,3.48,0.54,6.41,1.62,8.8
				c1.08,2.39,2.58,4.21,4.49,5.44s4.11,1.85,6.6,1.85c2.49,0,4.69-0.62,6.6-1.85s3.4-3.04,4.49-5.44
				C254.14,457.44,254.69,454.51,254.69,451.03z"/>
			<path class="st2" d="M270.91,473.94v-45.82h17.18c3.52,0,6.48,0.66,8.87,1.97s4.21,3.11,5.44,5.4c1.23,2.29,1.85,4.89,1.85,7.8
				c0,2.94-0.62,5.55-1.86,7.83c-1.24,2.28-3.06,4.08-5.48,5.38c-2.42,1.31-5.39,1.96-8.93,1.96h-11.39v-6.82h10.27
				c2.06,0,3.74-0.36,5.06-1.07c1.31-0.72,2.29-1.7,2.92-2.95c0.63-1.25,0.95-2.69,0.95-4.32c0-1.63-0.32-3.06-0.95-4.3
				c-0.63-1.24-1.61-2.2-2.93-2.9c-1.32-0.69-3.02-1.04-5.09-1.04h-7.61v38.88H270.91z"/>
			<path class="st2" d="M311.44,428.12h10.16l13.6,33.2h0.54l13.6-33.2h10.16v45.82h-7.96v-31.48h-0.43l-12.66,31.34h-5.95
				l-12.66-31.41h-0.43v31.54h-7.96V428.12z"/>
			<path class="st2" d="M368.54,473.94v-45.82h29.8v6.96h-21.5v12.44h19.96v6.96h-19.96v12.51h21.68v6.96H368.54z"/>
			<path class="st2" d="M444.47,428.12v45.82h-7.38l-21.59-31.21h-0.38v31.21h-8.3v-45.82h7.43l21.57,31.23h0.4v-31.23H444.47z"/>
			<path class="st2" d="M451.47,435.08v-6.96h36.56v6.96h-14.16v38.86h-8.23v-38.86H451.47z"/>
		</g>
	</g>
</g>
</svg>
