<?xml version="1.0" encoding="utf-8"?>
<!-- Generator: Adobe Illustrator 23.1.0, SVG Export Plug-In . SVG Version: 6.00 Build 0)  -->
<svg version="1.1" id="Layer_1" xmlns="http://www.w3.org/2000/svg" xmlns:xlink="http://www.w3.org/1999/xlink" x="0px" y="0px"
	 viewBox="0 0 1484 285" style="enable-background:new 0 0 1484 285;" xml:space="preserve">
<style type="text/css">
	.st0{fill:#F2F2F2;}
	.st1{fill:#F1D844;}
	.st2{fill:#666666;stroke:#F1D844;stroke-width:6;stroke-miterlimit:10;}
</style>
<g>
	<g>
		<g>
			<path class="st0" d="M411.24,59.96h-20.79c-0.59-3.41-1.69-6.44-3.28-9.09c-1.59-2.65-3.58-4.9-5.95-6.75
				c-2.37-1.85-5.07-3.25-8.09-4.2c-3.02-0.94-6.27-1.42-9.76-1.42c-6.19,0-11.67,1.55-16.45,4.64c-4.78,3.1-8.52,7.62-11.23,13.56
				c-2.71,5.95-4.06,13.2-4.06,21.76c0,8.71,1.36,16.04,4.09,21.99c2.72,5.95,6.47,10.43,11.23,13.45
				c4.76,3.02,10.22,4.53,16.37,4.53c3.41,0,6.61-0.45,9.59-1.36c2.98-0.91,5.67-2.25,8.06-4.03s4.41-3.96,6.06-6.56
				c1.65-2.59,2.79-5.56,3.42-8.89l20.79,0.11c-0.78,5.41-2.46,10.49-5.03,15.23c-2.58,4.74-5.94,8.92-10.09,12.54
				c-4.15,3.61-9.01,6.43-14.56,8.45s-11.73,3.03-18.51,3.03c-10.01,0-18.94-2.32-26.79-6.95c-7.86-4.63-14.05-11.32-18.57-20.07
				c-4.52-8.75-6.78-19.23-6.78-31.46c0-12.27,2.28-22.76,6.84-31.49s10.77-15.41,18.62-20.04c7.86-4.63,16.75-6.95,26.68-6.95
				c6.34,0,12.23,0.89,17.68,2.67c5.45,1.78,10.3,4.38,14.56,7.81c4.26,3.43,7.77,7.62,10.53,12.56
				C408.58,47.98,410.38,53.62,411.24,59.96z"/>
			<path class="st0" d="M430.19,135.4V21.54h20.62v48.2h52.76v-48.2h20.68V135.4h-20.68V87.03h-52.76v48.36H430.19z"/>
			<path class="st0" d="M567.28,21.54V135.4h-20.62V21.54H567.28z"/>
			<path class="st0" d="M589.68,135.4V21.54h20.62v96.56h50.14v17.29H589.68z"/>
			<path class="st0" d="M678.29,135.4V21.54h20.62v96.56h50.14v17.29H678.29z"/>
			<path class="st1" d="M352.36,272.25h-38.58V158.4h39.36c11.3,0,21.02,2.27,29.16,6.81c8.13,4.54,14.39,11.05,18.76,19.54
				c4.37,8.49,6.56,18.64,6.56,30.46c0,11.86-2.2,22.05-6.59,30.58s-10.71,15.06-18.96,19.62
				C373.83,269.97,363.93,272.25,352.36,272.25z M334.41,254.4h16.96c7.93,0,14.55-1.45,19.85-4.36c5.3-2.91,9.28-7.26,11.95-13.06
				c2.67-5.8,4-13.05,4-21.76s-1.33-15.95-4-21.71c-2.67-5.76-6.61-10.08-11.81-12.95c-5.21-2.87-11.67-4.31-19.37-4.31h-17.57
				V254.4z"/>
			<path class="st1" d="M427.19,272.25V158.4h74.05v17.29h-53.42v30.91h49.59v17.29h-49.59v31.08h53.87v17.29H427.19z"/>
			<path class="st1" d="M537.54,158.4l29.63,89.61h1.17l29.57-89.61h22.68l-40.14,113.85h-25.46L514.91,158.4H537.54z"/>
			<path class="st1" d="M635.6,272.25V158.4h74.05v17.29h-53.42v30.91h49.59v17.29h-49.59v31.08h53.87v17.29H635.6z"/>
			<path class="st1" d="M730.71,272.25V158.4h20.62v96.56h50.14v17.29H730.71z"/>
			<path class="st1" d="M921.05,215.32c0,12.27-2.29,22.76-6.87,31.49c-4.58,8.73-10.8,15.41-18.68,20.04
				c-7.88,4.63-16.8,6.95-26.77,6.95c-9.97,0-18.89-2.33-26.77-6.98c-7.88-4.65-14.1-11.34-18.68-20.07
				c-4.58-8.73-6.87-19.21-6.87-31.44c0-12.27,2.29-22.76,6.87-31.49c4.58-8.73,10.8-15.41,18.68-20.04
				c7.87-4.63,16.8-6.95,26.77-6.95c9.97,0,18.89,2.32,26.77,6.95c7.88,4.63,14.1,11.31,18.68,20.04
				C918.76,192.56,921.05,203.06,921.05,215.32z M900.32,215.32c0-8.63-1.34-15.93-4.03-21.88c-2.69-5.95-6.4-10.45-11.15-13.51
				s-10.21-4.59-16.4-4.59c-6.19,0-11.66,1.53-16.4,4.59c-4.74,3.06-8.46,7.56-11.15,13.51c-2.69,5.95-4.03,13.24-4.03,21.88
				c0,8.64,1.34,15.93,4.03,21.88c2.69,5.95,6.4,10.45,11.15,13.51c4.74,3.06,10.21,4.59,16.4,4.59c6.19,0,11.65-1.53,16.4-4.59
				c4.74-3.06,8.46-7.56,11.15-13.51C898.97,231.25,900.32,223.96,900.32,215.32z"/>
			<path class="st1" d="M940.62,272.25V158.4h42.69c8.75,0,16.09,1.63,22.04,4.89c5.95,3.26,10.45,7.74,13.51,13.42
				c3.06,5.69,4.59,12.15,4.59,19.37c0,7.3-1.54,13.79-4.61,19.46c-3.08,5.67-7.62,10.13-13.62,13.37s-13.4,4.86-22.18,4.86h-28.3
				v-16.96h25.52c5.11,0,9.3-0.89,12.56-2.67c3.26-1.78,5.68-4.22,7.25-7.34s2.36-6.69,2.36-10.73c0-4.04-0.79-7.6-2.36-10.67
				s-4-5.48-7.28-7.2c-3.28-1.72-7.5-2.58-12.65-2.58h-18.9v96.62H940.62z"/>
			<path class="st1" d="M1041.35,158.4h25.24l33.8,82.5h1.33l33.8-82.5h25.24v113.85h-19.79v-78.22h-1.06l-31.46,77.88h-14.79
				l-31.46-78.05h-1.06v78.38h-19.79V158.4z"/>
			<path class="st1" d="M1183.22,272.25V158.4h74.05v17.29h-53.42v30.91h49.59v17.29h-49.59v31.08h53.87v17.29H1183.22z"/>
			<path class="st1" d="M1371.89,158.4v113.85h-18.34l-53.65-77.55h-0.95v77.55h-20.62V158.4h18.46l53.59,77.61h1V158.4H1371.89z"/>
			<path class="st1" d="M1389.29,175.69V158.4h90.83v17.29h-35.19v96.56h-20.46v-96.56H1389.29z"/>
		</g>
	</g>
</g>
<path class="st2" d="M288.47,59.69c15.13,26.18-94.8,95.27-73.83,161.53c8.51,26.89,32.75,45.43,31.54,46.55
	c-2.6,2.42-83.98-115.2-147.51-100.33c-38.45,9-49.47,61.65-60.57,58.04C16.78,218.56,42.58,13.62,80.4,17.41
	c39.28,3.94,85.4,168.5,62.98,180.7c-12.9,7.02-59.57-31.71-56.54-65.87C92.43,69.39,270.94,29.36,288.47,59.69z"/>
<path d="M219,8"/>
<path d="M199,165"/>
<path d="M185,166"/>
<path d="M190,380"/>
</svg>
