<?xml version="1.0" encoding="utf-8"?>
<!-- Generator: Adobe Illustrator 23.1.0, SVG Export Plug-In . SVG Version: 6.00 Build 0)  -->
<svg version="1.1" id="Layer_1" xmlns="http://www.w3.org/2000/svg" xmlns:xlink="http://www.w3.org/1999/xlink" x="0px" y="0px"
	 viewBox="0 0 270.76 271.17" style="enable-background:new 0 0 270.76 271.17;" xml:space="preserve">
<style type="text/css">
	.st0{fill:#C6C6C6;}
	.st1{fill:#FDF8F7;}
	.st2{fill:#B7B7B7;}
	.st3{fill:#EAE8E9;}
	.st4{fill:#E0DADC;}
	.st5{fill:#EDEDED;}
	.st6{fill:#ECECEC;}
	.st7{fill:#E0E0E0;}
	.st8{fill:#EBEBEB;}
	.st9{fill:#D4D4D4;}
	.st10{fill:#E7E7E7;}
	.st11{fill:#E4E4E4;}
	.st12{fill:#E2E2E2;}
	.st13{fill:#EBE7E9;}
	.st14{fill:#FEFEFE;}
	.st15{fill:#F1F1F1;}
	.st16{fill:#E9E9E9;}
</style>
<g>
	<path class="st0" d="M15.33,128.54c0-12.51,0.24-25.03-0.09-37.53c-0.2-7.64,2.88-10.92,9.7-13.36c9.67-3.45,19.19-7.31,28.94-10.5
		c6.53-2.14,12.83-4.84,19.31-7.07c10.48-3.6,20.78-7.7,31.19-11.51c7.59-2.78,15.4-5.01,22.79-8.23c7.84-3.42,15.1-2.32,22.6,0.71
		c7.27,2.93,14.7,5.46,21.98,8.35c5.56,2.21,11.14,4.42,16.74,6.45c5.4,1.95,10.83,3.89,16.24,5.83c7.14,2.55,14.19,5.39,21.29,8.07
		c5.68,2.14,11.37,4.24,17.06,6.34c2.64,0.98,5.38,1.73,7.94,2.9c3.73,1.7,5.18,5,5.3,8.91c0.39,12.9,0.52,25.8,0.51,38.71
		c-0.01,13.48,0.7,26.95,0.46,40.43c-0.11,6.36-2.26,9.57-8.19,11.73c-3.69,1.35-7.36,2.73-11.05,4.07
		c-5.23,1.91-10.48,3.77-15.7,5.69c-9.01,3.32-18.01,6.64-27,10.02c-10.21,3.83-20.32,7.95-30.61,11.52
		c-6.71,2.33-13.16,5.3-19.94,7.43c-5.96,1.87-11.58,1.42-17.31-1.15c-4.57-2.05-9.5-3.3-14.22-5.03
		c-8.37-3.05-16.67-6.31-25.08-9.27c-6.15-2.16-12.16-4.69-18.44-6.52c-3.55-1.03-6.94-2.58-10.41-3.88
		c-5.24-1.95-10.49-3.88-15.72-5.83c-5.08-1.89-10.07-4.07-15.26-5.57c-2.39-0.69-4.6-1.82-7.01-2.42
		c-3.05-0.76-6.01-5.44-6.02-9.06C15.33,155.36,15.33,141.95,15.33,128.54z"/>
	<path class="st1" d="M253.36,103.02c0.64,17.07,0.31,34.15,0.65,51.21c0.09,4.53,0.12,9.1,0.51,13.66c0.19,2.26-0.8,4.62-3.01,6.1
		c-3.31,2.21-7.16,3.05-10.81,4.41c-3.72,1.38-7.47,2.65-11.12,4.24c-3.43,1.5-6.97,2.73-10.49,4.01
		c-4.41,1.61-8.86,3.11-13.27,4.73c-6.87,2.53-13.72,5.13-20.59,7.67c-7.04,2.6-14.09,5.15-21.13,7.77
		c-7.27,2.7-14.42,5.78-21.82,8.03c-4.18,1.27-8.81,0.92-12.96-0.89c-4.98-2.17-10.16-3.76-15.21-5.7
		c-7.79-2.99-15.65-5.8-23.51-8.62c-4.35-1.56-8.83-2.78-13.08-4.56c-5.08-2.13-10.24-3.99-15.44-5.78
		c-9.36-3.22-18.49-7.04-27.93-10.06c-4.05-1.3-8.05-2.97-12.01-4.62c-2.27-0.95-3.44-2.85-3.44-5.44
		c0.02-27.23,0.01-54.46,0.03-81.69c0-3.91,2.96-5.59,5.96-6.47c3.82-1.13,7.48-2.64,11.22-3.95c5.13-1.8,10.21-3.74,15.33-5.59
		c7.56-2.72,15.11-5.46,22.66-8.19c7.38-2.67,14.74-5.45,22.09-8.26c6.61-2.53,13.34-4.74,19.99-7.17
		c3.72-1.36,7.47-2.65,11.13-4.21c6.79-2.91,13.54-3.02,20.49,0.06c6.15,2.72,12.61,4.72,18.92,7.07c7.06,2.63,14.1,5.32,21.16,7.95
		c5.39,2.01,10.81,3.93,16.2,5.94c5.87,2.19,11.67,4.57,17.59,6.65c8.11,2.85,16.14,5.91,24.18,8.95c6.12,2.31,7.97,3.43,7.71,10.51
		c-0.07,2.04,0,4.09,0,6.13C253.37,98.94,253.36,100.98,253.36,103.02z"/>
	<path class="st2" d="M151.28,209.31c-1.14,0.34-2.13,1.14-3.38,1.17c-2.57-0.77-2.72-1.28-0.8-3.08c0.95-0.89,1.72-1.98,2.95-2.56
		c0.38-0.18,0.75-0.47,0.79-0.88c0.18-2.28,1.41-3.65,3.44-4.64c0.92-0.45,0.68-1.77,0.67-2.73c-0.03-2.13,0.46-3.9,2.7-4.71
		c0.77-0.27,1.1-0.93,1.4-1.61c0.42-0.93,1.06-1.67,2.02-2.04c0.99-0.39,1.6-1.07,1.98-2.03c0.25-0.61,0.62-1.27,1.24-1.47
		c2.26-0.73,2.58-2.44,2.47-4.46c-0.05-0.9-0.09-2.12,0.64-2.53c2.34-1.29,3.37-3.88,5.55-5.25c0.71-0.45,1.44-0.8,1.7-1.65
		c0.52-1.71,2.25-2.19,3.45-3.4c-3.64-0.39-7.07-1.45-10.63-1.5c-3.93-0.06-7.85,0.03-11.78-0.04c-1.28-0.02-2.66,0.03-3.7-1.93
		c19.58,0,38.84,0,58.11-0.01c-17.1-0.01-34.19-0.01-51.29-0.01c-3.92,0-7.84,0-11.76,0c-0.82,0-1.85,0.39-2.35-0.75
		c0-0.33,0.14-0.59,0.41-0.77c1.24-0.61,2.57-0.38,3.86-0.39c27.27-0.01,54.54,0,81.81-0.04c1.04,0,2.34,0.56,3.04-0.8
		c-0.12-0.22-0.26-0.41-0.48-0.54c-1.06-0.35-2.13-0.18-3.18-0.18c-20.48-0.01-40.96-0.01-61.44-0.01c-1.22,0-2.45,0.13-3.64-0.22
		c-1.37-0.96-0.32-1.57,0.43-1.87c2.19-0.86,4.35-1.79,6.8-1.75c3.99,0.07,7.98-0.08,11.97,0.05c3.07,0.1,3.94-2.81,5.99-4.09
		c0.53-0.33-0.01-1.19-0.66-1.53c-0.63-0.33-1.51-0.5-1.16-1.52c0.28-0.83,0.96-1.29,1.78-1.53c0.99-0.28,2.16-0.05,2.88-1.07
		c0.66-0.61,1.37-1.22,1.53-2.15c0.31-1.78,1.19-2.97,3.02-3.4c0.82-0.2,1.01-0.98,1.23-1.69c0.31-1.01,0.97-1.8,1.99-1.96
		c2.18-0.33,1.89-1.77,1.71-3.28c-0.12-0.97-0.2-2.4,0.82-2.54c1.16-0.16,2.68-1.16,3.72,0.44c0.14,4.55,0.07,9.1,0.04,13.64
		c-0.1,0.74-0.37,1.36-1.41,1.64c1.16-0.1,1.7-0.09,1.57-1.49c-0.34-3.45-0.1-6.93-0.12-10.41c-0.2-5.96-0.26-11.92-0.18-17.88
		c0.02-1.32-0.43-2.98,1.28-3.62c1.76-0.66,3.38-0.23,4.61,1.28c0.61,1.1,1.95-1.64,2.39,0.43c0.01,0.06,0.03,0.12,0.05,0.17
		c-0.17-2.22,2.72-1.86,3.09-3.69c0.24-1.21,1.12-1.96,2.3-2.31c0.86-0.25,1.37-0.82,1.63-1.67c0.27-0.9,0.77-1.75,1.68-1.97
		c2.14-0.52,2.23-2.07,2.15-3.79c-0.1-2.03,0.32-3.75,2.57-4.43c0.67-0.2,1.13-0.66,1.34-1.32c0.42-1.36,1.32-2.21,2.67-2.63
		c0.78-0.24,1.14-0.87,1.39-1.59c0.31-0.88,0.8-1.71,1.71-1.95c1.96-0.52,2.17-1.91,2.11-3.59c-0.04-1.14-0.24-2.28-0.18-3.42
		c0.14-2.68,1.31-3.57,3.89-3.04c1.7,0.55,3.47,0.94,5.08,1.67c3.17,1.44,4.44,4.16,4.48,7.51c0.28,25.66,0.55,51.32,0.79,76.99
		c0.03,3.54-1.9,6.26-5.23,7.48c-20.28,7.45-40.58,14.87-60.87,22.31c-9.79,3.59-19.57,7.2-29.36,10.79
		c-0.46,0.17-0.94,0.27-1.4,0.4C153.87,208.27,152.42,208.37,151.28,209.31z"/>
	<path class="st2" d="M24.62,173.11c-3-1.49-3.94-4-3.93-7.21c0.05-24.78,0.02-49.55,0.02-74.33c0-5.66,1.57-7.84,6.92-9.78
		c24.85-8.98,49.69-17.98,74.53-26.97c0.31-0.11,0.63-0.17,0.95-0.26c1.02,0.69,2.2,0.46,3.33,0.57c2.04,0.19,3.58,1.55,3.39,3.13
		c-0.23,1.95-1.72,2.39-3.38,2.52c-1.38,0.1-2.76-0.03-4.27-0.11c-0.08,1.18,0.19,2.29,0.19,3.4c0,2.03-0.45,3.73-2.6,4.51
		c-0.74,0.27-1.19,0.83-1.49,1.54c-0.16,0.38-0.28,0.91-0.6,1.05c-2.66,1.09-3.42,4.28-6.04,5.38c-0.93,0.39-0.94,1.67-1.59,2.06
		c-2.88,1.74-3.81,4.32-3.73,7.48c0.01,0.23-0.13,0.54-0.32,0.64c-2.25,1.22-3.35,3.68-5.36,5.06c-1.24,0.85-1.93,1.62-1.84,3.09
		c0.14,2.36-0.29,4.42-2.93,5.28c-0.67,0.22-0.95,0.87-1.19,1.48c-0.39,0.95-1,1.7-1.98,2.05c-0.98,0.36-1.67,0.98-2.02,1.98
		c-0.16,0.46-0.37,1.02-0.8,1.2c-3.05,1.29-3.87,5.14-7.12,6.15c-0.69,0.21-0.33,0.5-0.18,0.83c-2.94,3.13-2.56,6.97-2.35,10.78
		c0.03,0.56,0.23,1.12-0.08,1.67c-1.28,0.47-1.76-0.16-1.95-1.34c-0.1-0.59,0.63-1.7-0.72-1.62c-1,0.06-1.91,0.51-2.12,1.7
		c-0.14,0.81-0.09,1.63-0.12,2.45c-0.05,1.68-0.59,3.05-2.26,3.74c-0.88,0.36-1.51,0.94-1.86,1.83c-0.21,0.53-0.45,1.19-0.97,1.38
		c-2.53,0.96-2.84,2.92-2.86,5.3c-0.01,2.24-1.16,3.2-3.37,3.45c-0.57,0.06-1.15,0.09-1.72,0.05c-1.84-0.14-2.8,0.59-2.66,2.53
		c0.18,2.47-0.55,4.2-2.95,5.61c-1.66,0.97-2.51,3.21-4.45,4.29c-0.81,0.45-0.45,1.83-0.45,2.8c0.01,1.96-0.55,3.54-2.55,4.3
		c-0.63,0.24-1.14,0.67-1.39,1.31c-0.5,1.3-1.46,2.06-2.66,2.73c-1.58,0.88-1.56,1.97-0.14,2.9
		C26.94,171.03,26.88,171.65,24.62,173.11z"/>
	<path class="st2" d="M189.66,61.64c7.54,2.78,15.07,5.55,22.61,8.33c-0.34,0.52-1.1,0.57-0.84,1.69c0.58,2.5-0.16,3.53-2.56,4.4
		c-0.81,0.29-1.48,0.68-1.84,1.48c-0.46,1.04-1.26,1.66-2.33,2c-0.64,0.2-1.22,0.58-1.42,1.25c-0.43,1.45-1.32,2.35-2.78,2.81
		c-0.98,0.31-1.25,1.2-1.31,2.15c-0.06,0.89-0.03,1.79-0.07,2.69c-0.08,1.75-0.94,2.72-2.73,2.79c-0.33,0.01-0.65,0.02-0.98,0.03
		c-3.98,0.12-4.02,0.12-4.1,4.19c-0.04,1.78-0.4,3.21-2.37,3.75c-1.09,0.3-1.47,1.2-1.53,2.26c-0.05,0.9-0.03,1.79-0.07,2.69
		c-0.08,1.76-0.97,2.69-2.74,2.78c-0.73,0.04-1.47,0.07-2.2,0.04c-1.6-0.06-2.63,0.51-2.98,2.21c-0.34,1.64-1.48,2.87-2.51,4.13
		c-2.51,0.28-3.83,2.17-5.25,3.92c-0.06-0.03-0.15-0.05-0.21-0.1c-0.2-0.17-0.29-0.16-0.27,0.06c0.26,2.18,0.59,4.35,0.45,6.56
		c-0.06,0.97,0.11,1.96-0.4,2.87c-1.65,0.44-1.32-0.95-1.36-1.67c-0.12-2.6-0.04-5.21-0.85-7.75c1.2,4.82,0.54,9.72,0.64,14.58
		c0.02,1.04,0.38,2.86-1,2.83c-1.51-0.03-0.85-1.78-0.87-2.85c-0.02-0.9,0.07-1.79-0.01-2.7c-1.8,1.32-3.89,2.24-4.85,4.56
		c-0.36,0.87-1.59,0.63-2.44,0.21c-1.03-0.51-1.96-1.17-2.61-2.15c-0.29-5.84-0.21-11.69-0.11-17.54
		c-0.2,9.72,0.27,19.44,0.08,29.15c-0.03,1.58,0.2,3.58-2.11,4.13c-2.98-0.98-3.1-0.99-3.32,2.08c-0.31,4.49-2.89,7.05-6.83,8.59
		c-0.53,0.21-0.99,0.55-1.5,0.79c-1.01,0.15-1.39-0.7-1.96-1.23c-3.11-2.9-6.87-2.62-9.12,1c-1.28,2.07-2.8,2.5-4.92,1.99
		c-7.46-0.38-14.93-0.05-22.39-0.17c-1.46-0.02-2.92,0.15-4.36-0.19c-0.8-0.25-0.95-1.05-1.36-1.63c-1.35-1.93-1.19-2.35,1.08-2.77
		c1.63-0.3,3.02,0.07,4.27,1.22c1.77,1.63,3.81,1.09,5.81,0.55c-1.12-0.93-2.43-0.55-3.67-0.67c-1.17-0.12-2.44-0.24-2.57-1.7
		c-0.13-1.54,1.11-1.99,2.32-2.37c1.45-0.46,3.38,0.56,4.44-1.53c-1.33-0.34-2.53-0.87-3.63-1.58c-0.41-0.26-0.97-0.61-0.83-1.1
		c0.22-0.75,1.01-0.82,1.64-0.7c2.21,0.44,4.35-0.26,6.52-0.33c0.82-0.4,1.27-1.07,1.43-1.96c0.01-0.16,0.05-0.32,0.03-0.47
		c-0.02-0.18-0.03-0.82-0.27-0.09c-0.33,1.01-0.76,1.88-1.84,2.27c-0.51,0.13-1.02,0.11-1.53-0.02c-1.22-0.33-2.73-0.35-2.35-2
		c0.02,0.22,0.08,0.76-0.45,1.11c-0.85-0.4-0.91-1.16-0.92-1.89c-0.05-6.45-0.1-12.9,0.02-19.35c0.01-0.41,0.15-0.8,0.38-1.15
		c2-0.14,1.65,1.33,1.72,2.51c-0.29,1.78-0.76,3.53,0.33,5.3c0.41,0.68,0.3,1.71,0.1,2.58c-0.3,0.9-0.94,1.73-0.48,3.25
		c0.78-1.84,1.01-3.3,0.57-4.87c0-0.8-0.09-1.6-0.17-2.4c0.09-0.81,0.11-1.82,1.19-1.79c1.24,0.03,1.53,1.14,1.55,2.12
		c0.08,3.81,0.45,7.63-0.37,11.4c-0.02,0.5-0.54,1.2,0.26,1.42c0.55,0.15,0.56-0.67,0.88-0.98c0.55-0.67,1.28-1.19,2.11-0.97
		c1.22,0.33,1.39-0.51,2.1-1.13c2.8-2.48,1.94-5.6,2.05-8.58c0.02-0.49-0.04-0.97-0.01-1.47c0-2.03,0.04-4.06-0.03-6.09
		c-0.79-2.04-0.98-4.05-0.14-6.16c0.35-0.88,0.33-1.87-0.29-2.8c-1.17-1.77-0.2-2.15,1.43-2c1.72,0.75,2.18,2.08,2.21,3.9
		c0.06,3.64-0.51,7.26-0.1,10.9c-0.39,2.64-0.38,5.28-0.01,7.93c0.11,0.82,0.02,1.66,0.12,2.48c0.09,2.8,0.41,5.61-0.68,8.3
		c2.89,0.86,5.71,0.89,8.43-0.31c-0.76,1.05-2,0.86-3.15,0.83c-1.29-0.03-2.63,0.26-3.88-0.23c-0.7-0.28-0.82-1-0.76-1.67
		c0.34-3.74,0.07-7.47-0.18-11.21c-0.12-1.81,0.7-2.75,2.63-2.59c1.02,0.08,2.04-0.02,3.05,0.29c-0.99-0.39-2.02-0.28-3.04-0.27
		c-1.91,0.01-2.57-1.04-2.6-2.78c-0.06-3.82,0.15-7.64,0.13-11.47c-0.02-3.25,0.48-3.7,3.69-3.6c0.89,0.03,1.81-0.08,2.6,0.49
		c0.05,0.07,0.14,0.17,0.13,0.2c-2.11,3.32-0.59,6.94-0.82,10.41c-0.1,1.45-0.07,2.89-1.13,3.64c0.83-1.02,2.2-2.3,3.49-2.86
		c2.55-1.1,2.37-2.91,2.04-4.8c-0.31-1.78-0.36-2.94,1.91-3.12c1.5-0.12,2.25-1.18,2.15-2.75c-0.04-0.57-0.01-1.14,0.03-1.71
		c0.2-2.63,1.21-3.63,3.78-3.9c1.25-0.13,2.93,0.6,3.65-0.68c0.86-1.51,0.45-3.33,0.02-5.02c-0.22-0.84-1-1.56-0.54-2.54
		c2.42-1.15,4.97-0.13,7.45-0.4c1.57-0.17,1.59-0.06,2.48-1.35c-1.06,1.22-1.06,1.25-2.39,1.31c-1.14,0.05-2.29-0.02-3.43,0.02
		c-1.46,0.06-2.27-0.73-2.13-2.05c0.43-3.91-0.31-7.8-0.02-11.69c0.14-1.95,1.22-2.72,3.16-2.44c0.81,0.12,1.57,0.43,2.32,0.77
		c0.32,0.14,0.39-0.13,0.29-0.37c-0.11-0.26-0.37-0.27-0.62-0.25c-2.01-1.63-1.85-2.21,1.02-3.77c0.25-0.01,0.48,0.04,0.7,0.16
		c0.78,0.46,1.13,1.29,2.1,1.74c1.39,0.65,0.4,2.35,0.4,3.58c0,1.04-0.64,1.94-1.77,2.04c-1.67,0.16-3.3,0.2-3.84,2.27
		c-0.11,0.42-0.62,0.48-1.05,0.3c-0.18-0.08-0.21-0.3-0.35-0.43c0.05,0.16,0.13,0.3,0.24,0.42c0.43,0.44,0.91,0.12,1.38,0.12
		c0.89,0,1.61,0.37,1.88,1.27c0.3,1-0.09,1.83-1,2.26c-1.27,0.6-2.12,1.48-2.48,2.8c2.4-1.01,4.61-2.2,4.7-5.27
		c0.01-0.24,0.1-0.56,0.28-0.67c2.31-1.34,3.55-3.82,5.65-5.33c0.81-0.58,1.66-0.94,1.96-1.99c0.21-0.72,0.62-1.49,1.35-1.66
		c2.4-0.54,2.41-2.27,2.33-4.16c-0.08-1.96,0.48-3.57,2.6-4.19c0.67-0.2,1.16-0.61,1.36-1.29c0.4-1.36,1.27-2.25,2.64-2.66
		c0.79-0.23,1.17-0.83,1.41-1.57c0.24-0.71,0.55-1.54,1.26-1.73c2.32-0.64,2.67-2.28,2.52-4.33c-0.08-1.19,0.44-2.23,1.22-3.13
		c0.51-0.54,1.13-0.88,1.84-1.04c1.44,0.2,2.75,0.76,3.99,1.5C186.55,61.29,187.94,61.93,189.66,61.64z"/>
	<path class="st2" d="M62.47,113.67c-0.61,0-1.21,0-1.84,0c0.31-1.51,1.97-1.46,2.68-1.76c1.8-0.77,2.2-2.41,3.28-3.37
		c1.81-1.61,3.25-3.56,5.07-5.03c1.04-0.85,2.42-1.12,2.58-2.75c0.07-0.74,0.49-1.22,1.24-1.29c2.25-0.22,2.75-1.67,2.67-3.62
		c-0.09-2.09-0.2-3.72,2.55-4.9c1.68-0.72,2.86-3.27,4.81-4.62c1.15-0.8,0.43-2.78,0.46-4.23c0.03-1.29,0.21-2.3,1.79-2.34
		c0.16,0,0.41-0.04,0.46-0.13c1.19-2.68,4.36-3.53,5.62-6.12c0.07-0.14,0-0.42,0.09-0.47c2.13-1.15,3.3-3.35,5.01-4.78
		c2.3-1.93,3.57-3.68,2.57-6.98c-0.18-0.58-0.8-1.06-0.39-1.97c1.81,1.24,3.84,0.86,5.82,0.85c1.25-0.01,2.44-0.57,2.41-1.91
		c-0.04-1.36-0.91-2.29-2.49-2.53c-1.27-0.19-3.06,1.05-3.73-1.14c0.5-0.14,1-0.29,1.5-0.43c1.01,0.33,1.65-0.53,2.49-0.76
		c5.87-2.19,11.73-4.39,17.6-6.58c0.83-0.31,1.69-0.55,2.54-0.83c0.22,0.11,0.37,0.28,0.52,0.48c0.28,0.39-0.56,0.57-0.21,0.73
		c0.27,0.12,0.83-0.14,0.53-0.73c-0.11-0.21-0.31-0.37-0.45-0.57c0.43-0.41,0.95-0.54,1.52-0.54c0.82,0.19,1.85-0.08,2.26,1.22
		c0.34-0.78,0.22-1.45,0.2-2.11c3.07-1.17,6.21-1.24,9.39-0.55c-0.13,1.94-0.59,2.22-2.17,1.35c0.67,3.13,0.38,3.84-2.28,5.27
		c-0.61,0.33-1.08,0.7-1.31,1.36c-0.16,0.46-0.25,1.06-0.65,1.29c-1.89,1.12-3.03,3.04-4.58,4.4c-2.38,2.09-4.28,4.47-6.34,6.77
		c-0.75,0.84-0.8,1.8-1.49,2.5c-1.29,0.59-2.62,0.46-3.95,0.19c-1.33-1.19-3.49-0.26-4.94-1.89c1.28-0.54,2.41-0.14,2.97-0.26
		c-2.65-0.02-2.65-0.02-4.13,2.16c-0.39,0.36-1.23,0.09-1.34,0.71c-0.11,0.61,0.61,0.53,1,0.71c0.35,0.1,0.68,0.25,0.95,0.49
		c0.43,0.48,0.67,1.07,0.86,1.67c0.84,2.76,1.36,5.52,0.65,8.42c-0.39,1.62-3.24,6.02-4.76,6.63c-1.42,0.57-1.76,1.56-1.7,2.88
		c0.12,2.43-0.16,4.61-3.03,5.38c-0.5,0.13-0.72,0.64-0.91,1.1c-0.19,0.45-0.27,1.15-0.65,1.28c-2.74,0.96-3.34,4.29-5.99,5.32
		c-1.28,0.5-1.19,1.62-1.21,2.68c-0.04,1.87,0.17,3.82-1.91,4.92c-0.57,0.3-0.33,0.81-0.13,1.27c0.37,0.83,0.43,1.59-0.59,2.03
		c-2.67-0.78-4.97-0.54-6.6,2.1c-0.62,0.99-1.49,0.67-2.2-0.08c-0.15-0.17-0.26-0.36-0.35-0.57c-0.07-0.21-0.12-0.42-0.17-0.63
		c-0.8-1.22-1.89-1.36-3.11-0.81c-0.73,0.33-1.42,0.76-2.26,0.43c-0.86-0.76-1.74-1.19-2.69-0.12c-0.35,0.24-0.72,0.41-1.09,0.6
		c-0.35,0.19-0.67,0.42-0.87,0.78c-0.05,0.42-0.44,0.86,0.11,1.21c0.01,0.01,0.17-0.25,0.25-0.41c1.19-1.36,2.53-1.24,3.94-0.42
		c0.55,0.79,0.53,1.7,0.54,2.59c0.06,5.21,0.29,10.44,0.27,15.63c-0.02,4.75-0.01,9.56-0.54,14.33c0.79,0.35,1.65,0.07,2.41,0.37
		c0.98,0.53,1.24,1.47,0.05,1.64c-1.82,0.26-3.39,1.83-5.41,0.97c-1.27-0.55-1.16,0.7-1.2,1.22c-0.13,1.76-1.18,2.52-2.54,3.52
		c-2.32,1.71-4.63,3.49-6.76,5.47c-7.55,0.22-15.1,0.29-22.64-0.02c-1.05-0.47-1.01-1,0.01-1.41c0.92-0.37,1.93-0.22,2.91-0.25
		c1.02-0.04,2.09,0.13,2.95-0.72c-3.96-0.63-7.8-0.33-11.46,1.48c-0.42,0.24-1.07,0.14-1.2,0.81c-0.02,0.2-0.05,0.4-0.09,0.6
		c-0.44,1.67,0.81,1.82,1.89,2.13c1.02,0.55,2.1,1.01,2.81,1.98c8.55,0.15,17.09,0,25.62,0.06c1.13,0.01,2.28-0.14,3.38,0.26
		c1.05,1.64-0.56,1.5-1.2,1.48c-3.36-0.08-6.66,0.6-10.01,0.59c-2.61-0.01-5.22,0-7.84,0c-1.32,0-2.41,0.33-2.99,1.67
		c-0.38,0.88-1.06,1.43-1.96,1.71c-0.81,0.26-1.38,0.75-1.79,1.54c-1.29,2.47-3.28,3.39-6.09,2.93c-0.15-0.02-0.35-0.39-0.48,0.02
		c0.16,0.05,0.3,0.12,0.39,0.26c0.42,0.66,0.13,1.29-0.51,1.26c-1.61-0.07,0.11,0.95-0.45,1.16c-1.28-0.23-2.49-0.67-3.61-1.34
		c0.32-0.28,0.62-0.57,0.09-0.94c-1.07-0.89-2.36-0.37-3.53-0.6c-0.11,0.01-0.22,0.01-0.34,0.02c-1.29-1.05-3.43-0.14-4.41-1.92
		c0.94-1.39,2.73-2.96-0.97-2.97c-0.88,0-0.38-1.22-0.45-1.87c-0.1-0.93,0.01-1.92,1.2-2.06c1.75-0.2,2.61-1.13,2.77-2.84
		c0.06-0.64,0.51-1.03,1.14-1.09c2.4-0.22,2.82-1.8,2.73-3.82s-0.16-3.52,2.48-4.69c1.74-0.77,3.14-3.26,4.97-4.76
		c0.97-0.8,0.44-2.5,0.36-3.78c-0.14-2.07,0.72-2.87,2.72-2.63c0.24,0.03,0.49,0,0.73,0c4.01-0.01,4.44-0.44,4.43-4.51
		c0-1.64,0.13-2.63,2.06-3.7c2.05-1.14,3.59-3.53,5.52-5.24c0.82-0.73,0.24-2.35,0.27-3.57c0.06-1.93,1.97-3.59,3.81-3.22
		c1.14,0.23,0.68,1.29,0.53,1.77c-0.38,1.17-0.13,1.86,0.99,2.28c0.57,0.31,0.7,0.87,0.85,1.43c0.02,0.16,0.01,0.32-0.01,0.47
		c-0.11,0.91-0.85,0.38-1.28,0.56c0.54,0.7,1.29,0.88,2.12,0.84c2.06,1.86,3.97,3.82,5.04,6.45c-0.52,1.49,0.62,2.41,1.2,3.53
		c0.35,2.48,0.49,4.88-1.69,6.76c-2.13,1.83-4.24,1.57-5.95-0.82c-0.12-0.39-0.25-0.88,0.01-1.16c0.75-0.78,0.34-1.16-0.38-1.47
		c-0.49,1.68-0.82,3.35-0.5,5.08c0.99,0.79,2.07,0,3.12,0.17c1.6,0.25,3.2,0.37,5.08,1.59c-1.61-1.75,1.46-2.61-0.01-4.02
		c1.57-5.42,0.24-10.08-3.62-14.13c-3.45-3.62-4.38-8.02-3.93-12.86c0.14-1.56,0.77-2.81,1.86-3.85c1.94-1.86,3.9-1.5,5.63,0.97
		c0.08-1.49,0.02-1.33-1.03-1.75C65.13,113.67,63.76,114.07,62.47,113.67z"/>
	<path class="st2" d="M144.81,163.05c3.69,0.22,7.37,0.62,11.06,0.63c17.58,0.07,35.15,0.03,52.73,0.03c0.8,0,1.61,0,2.41,0
		c0,0.13,0,0.26,0,0.39c-19.41,0-38.83,0-58.42,0c0.68,1.24,1.63,1.06,2.48,1.07c2.78,0.02,5.58,0.23,8.33-0.04
		c4.94-0.48,9.69,1.27,14.59,1.05c0.63-0.03,1.47-0.03,1.4,0.91c-0.07,0.88-0.23,1.94-1.42,1.97c-1.83,0.04-2.68,0.88-2.7,2.71
		c-0.01,0.75-0.54,1.22-1.28,1.23c-1.68,0.02-2.59,0.76-2.62,2.51c-0.02,1.01-0.64,1.42-1.6,1.46c-1.81,0.06-2.37,1.15-2.31,2.78
		c0.03,0.9-0.03,1.8,0.01,2.7c0.07,1.4-0.21,2.48-1.95,2.39c-0.08,0-0.21-0.02-0.24,0.03c-1.52,2.37-4.21,3.68-5.6,6.08
		c-0.46,0.78-0.48,1.69-1.63,1.72c-1.97,0.05-2.45,1.26-2.38,2.96c0.04,1.06,0,2.12,0,3.19c0,0.93-0.35,1.66-1.37,1.68
		c-2.28,0.04-2.63,1.44-2.57,3.3c0.03,0.93,0.43,1.84-1.48,1.91c-1.59,0.06-2.59,2.28-3.97,3.42c-0.53,0.44,1.39,0.48,1.6,1.37
		c-5.44,2.9-11.12,3.63-16.99,1.56c-10.14-3.59-20.26-7.25-30.37-10.93c-1.42-0.52-3.03-0.59-4.25-1.63
		c-0.46-0.31-1.13-0.54-0.93-1.24c0.17-0.58,0.88-0.27,1.22-0.46c1.17-0.64,2.31-0.94,3.67-0.67c0.74,0.14,0.82-0.62,0.81-1.22
		c-0.04-1.14-0.07-2.29-0.01-3.43c0.06-1.2,0.34-2.41,1.51-2.88c1.49-0.6,2-2.23,3.03-2.9c2.34-1.52,3.35-4.34,5.9-5.49
		c1.24-0.56,1.31-1.58,1.28-2.65c-0.08-2.43,0.16-4.63,3.04-5.41c0.51-0.14,0.76-0.63,0.91-1.1c0.42-1.31,1.38-1.96,2.64-2.31
		c0.81-0.23,1.44-0.71,1.98-1.37c2.3-2.82,5.93-2.69,8.01,0.31c0.79,1.14,1.77,1.25,2.71,0.5c1.03-0.82-0.2-1.41-0.53-2.02
		c-0.42-0.77-1.21-0.91-2.12-0.87c-4,0.2-8.04,0.37-12-0.02c-4.54-0.44-9.05-1.06-13.63-0.96c-0.41,0.01-0.81-0.12-1.17-0.34
		c-0.21-0.13-0.39-0.3-0.31-0.86c8.39-0.92,16.86,0.34,25.32-0.24c-7.58,0.5-15.15-0.5-22.73,0.06c-0.89,0.07-1.82,0.17-2.68-0.09
		c-0.61-0.18-1.63-0.43-0.68-1.46c0.45-0.24,0.94-0.32,1.43-0.31c8.98,0.1,17.97-0.37,26.94,0.26c0.33,0.02,0.65-0.05,0.97-0.07
		c1.04-0.02,1.53,0.65,2.02,1.47c2.8,4.72,7.4,4.87,10.66,0.36C143.89,163.63,144.16,163.12,144.81,163.05z"/>
	<path class="st2" d="M158.65,131.81c1.13-0.03,1.59,1.06,2.46,1.49c1.27,0.62,2.29,0.68,2.42-1.06c0.11-1.45,0.71-2.34,2.21-2.38
		c1.25-0.03,1.75-0.66,1.76-1.85c0-0.52,0.15-1.05,0.8-0.97c0.62,0.08,0.64,0.65,0.64,1.15c0.01,2.04,0,4.09,0.5,6.15
		c0-1.8,0.08-3.6-0.02-5.39c-0.2-3.8,0.66-7.67-0.83-11.4c-0.26-0.64-0.69-2.03,0.61-2.15c1.09-0.1,1.09,1.05,1.26,1.98
		c0.56,2.98,0.36,5.99,0.54,8.98c0,0.04,0.11,0.11,0.17,0.12c0.08,0,0.15-0.05,0.23-0.07c0.31-0.15,0.56-0.08,0.75,0.2
		c0.8,2.18,0.26,4.45,0.41,6.68c0.07,1.04-0.09,2.09,0.22,3.11c0.14,2.62-0.53,5.26,0.23,7.9c0.38,1.33,0.59,2.67,1.79,3.54
		c0.69,1.58,1.51,2.2,2.65,0.34c0.33-0.35,0.71-0.53,1.19-0.35c0.35,0.01,0.12,0.91,0.64,0.5c0.43-0.33-0.2-0.61-0.28-0.94
		c-0.19-0.89,0.09-1.56,0.93-1.97c0.54,0.52,1.09,0.04,1.46-0.17c0.28-0.17-0.14-0.84,0-1.29c-0.58,0.21-1.03,0.14-1.18-0.57
		c0.5-6.52,0.17-13.06,0.34-19.58c0.11-4,0-7.82-3.28-10.74c-0.92-1.38,0.99-1.53,1.19-2.57c0.11-0.6,0.76-1.27,0.79-2.12
		c0.06-1.37,0.87-2.04,2.22-2.09c0.33-0.01,0.65-0.01,0.98-0.01c5.03,0,4.67,0.44,4.61-4.6c-0.02-1.86,0.3-3.23,2.57-3.3
		c1.36-0.04,1.42-1.14,1.37-2.16c-0.36-6.55,0.8-5.77,5.57-5.63c1.69,0.05,2.42-0.61,2.3-2.3c-0.07-1.06-0.01-2.12-0.01-3.19
		c0-1.33,0.58-2.29,1.95-2.34c1.49-0.06,2.07-0.73,1.99-2.13c0-0.08-0.01-0.2,0.04-0.24c2.05-1.68,3.92-3.72,6.23-4.89
		c1.23-0.62,1.84-1.01,2.25-2.3c0.45-1.43-0.04-2.09-1.34-2.48c0.82-0.87,1.75-0.74,2.64-0.77c1.71,0.57,3.49,0.95,5.07,1.88
		c-0.1,0.32-0.15,0.71,0.2,0.79c0.15,0.04-0.14-0.48,0.1-0.69c1.78,0.37,3.46,1.03,5.06,1.88c0.73,0.88,1.75,0.99,2.79,1.04
		c5.38,1.66,10.64,3.65,15.82,5.85c-2.62,0.14-3.5,1.24-3.21,3.82c0.15,1.37,0.08,2.77,0.15,4.15c0.07,1.4-0.21,2.48-1.94,2.4
		c-0.08,0-0.21-0.02-0.24,0.03c-1.52,2.36-4.2,3.68-5.6,6.08c-0.46,0.78-0.48,1.7-1.63,1.72c-1.96,0.05-2.46,1.25-2.38,2.95
		c0.04,0.9-0.03,1.8,0.01,2.7c0.06,1.33-0.3,2.22-1.87,2.23c-2.44,0.01-1.51,2.61-2.63,3.51c-1.07,0.86-3.28,0.19-3.35,2.47
		c-0.03,0.77-0.13,1.69-1,1.72c-2.1,0.07-2.61,1.3-2.41,3.29c-0.86-0.77-0.26-1.59-0.71-2.27c-0.49,0.61-0.69,1.87-1.9,1.03
		c-0.19-0.3-0.2-0.62-0.09-0.96c0.87-0.81,0.07-1.99,0.64-2.86c0.21-0.27,0.51-0.05,0.75-0.14c0.01,0-0.05-0.07-0.15-0.08
		c-0.33-0.03-0.54,0.17-0.77,0.37c-0.29,0.19-0.78,0.37-0.9,0.2c-1.24-1.81-2.67-0.6-4.09-0.4c-1.3,0.18-2.6,0.7-3.97-0.35
		c-0.6-0.46-1.9-0.02-2.48,0.98c-1.03,1.04-1.34-0.04-1.73-0.87c-0.29,0.82,0.25,1.11,0.38,1.56c0.12,0.42,0.08,0.84-0.28,1.09
		c-0.37,0.25-0.78,0.09-1.15-0.11c-4.41-2.44-4.41-2.44-8.18-2.6c1.82,0.08,3.65,0.03,5.48,0.08c0.97,0.02,1.63,0.26,0.44,1.16
		c-2.41,0.56-4.89-0.02-7.5,0.4c0.47,1.91,0.42,3.84,0.33,5.76c-0.28,5.8,0.47,11.56,0.53,17.35c0.03,3.11-0.33,6.18-0.67,9.25
		c-0.07,0.24-0.2,0.47-0.36,0.66c-0.97,0.57-2.29-0.28-3.18,0.8c-0.45,0.55-1.34,0.9-0.26,1.64c0.13,0.09,0.28,0.16,0.43,0.22
		c0.01-0.14-0.14-0.1-0.19-0.18c-1.13-1.69,0.57-1.5,1.3-1.96c1.6-0.25,3.28,0.14,4.81-0.64c0.33-0.17,0.68-0.22,1.05-0.12
		c0.1,0.07,0.19,0.15,0.29,0.22c-0.09,1.33-1.01,1.57-2.08,1.47c-1.2-0.11-2.01,0.39-2.73,1.65c1.7-0.25,2.6,0.49,2.81,2.02
		c0.2,1.51-1.04,1.61-1.98,2.02c-0.37,0.16-0.92,0.36-1,0.65c-0.84,3.15-3.35,2.48-5.56,2.49c-3.83,0.02-7.67-0.09-11.5,0.04
		c-2.51,0.08-4.81,1.05-6.92,2.4c-2.39,1.35-4.95,0.53-7.44,0.56c-2.61-1.1-5.23-1.29-7.86-0.09c-1.4,0.28-2.81,0.33-4.21,0
		c-0.58-0.27-0.98-0.63-0.66-1.34c0.09-0.57,0.23-1.32,0.83-1.36c2.17-0.12,3.09-2.06,4.56-2.91c2.93-1.7,1.89-4.2,2.51-6.36
		c0.2-0.72-0.38-1.79,0.69-2.1c1.01-0.29,2.12-0.39,2.76,0.83c-0.03,0.31-0.19,0.55-0.38,0.78c2.03,1.61,4.2,1.75,6.48,0.4
		c1.04-0.42,2.07-0.23,3.09,0.1c0.67,0.22,1.47,0.71,2.01-0.03s-0.46-1.06-0.71-1.6c-0.17-0.36-0.21-0.79-0.54-1.05
		c-1.44,1.96-3.3,2.45-5.55,1.7c-1.17-0.7-0.92-2.17-1.68-3.09c-0.36-1.06-0.1-2.14-0.13-3.21c0.52-2.18,0.45-4.35-0.1-6.52
		C158.24,133.58,157.88,132.6,158.65,131.81z"/>
	<path class="st2" d="M122.75,113.66c-0.51,0.04-1.04,0.15-1.18,0.68c-0.23,0.84,0.72,0.45,0.87,0.72c0.65,1.18,0.68,2.63,0.13,3.68
		c-0.99,1.9-0.76,3.52,0.22,5.23c-0.42,2.29-0.41,4.58,0,6.87c0,1.95,0.02,3.89,0,5.84c-0.01,1.39,0.37,2.8-1.76,3.34
		c-1.36,0.35-0.26,2.24-1.11,3.46c-1.2-1.59-2.58-1.74-4.01-0.36c-0.65,0.51-1.3,0.56-1.95,0c0.74-4.09,0.43-8.22,0.48-12.34
		c0.01-0.66-0.01-1.57-0.74-1.6c-1.19-0.04-0.53,1.07-0.73,1.67c-1.29,0.53-1.64-0.31-1.68-1.28c-0.04-0.88-0.25-1.8,0.21-2.64
		c0.06-1.08-0.06-2.11-0.89-2.92c-0.42-0.27-0.59-0.68-0.69-1.14c-0.17-2.1-0.13-4.21-0.05-6.31c0.04-1.13,0.11-2.43,1.88-2.06
		c0.04,2.52-0.07,5.04,0.07,7.57c0.47-2.17-0.42-4.35-0.06-6.52c0.38-0.51,0.46-1.01-0.07-1.47c-1.21-0.5-2.62,0.05-3.78-0.73
		c-0.71-0.7-1.14-1.59-1.61-2.44c-0.76-1.39-0.46-2.61,0.97-3.27c1.28-0.59,2.13-1.43,2.61-2.73c0.11-0.3,0.32-0.65,0.61-0.75
		c3.08-1.03,2.92-3.77,3.23-6.21c0.22-1.72,0.97-3.28,1.22-4.98c0.07-0.48,0.3-0.97,0.89-1.02c0.75-0.06,0.96,0.52,1.09,1.08
		c0.2,0.87,0.14,1.79,0.46,2.64c0.21,1.28,0.27,2.57-0.02,3.85c-0.13,0.57-0.63,0.85-1.08,1.31c1.24-0.1,2.4,0.22,3.55-0.03
		c0.78-0.68,0.24-1.13-0.29-1.54c-0.5-0.39-1.26-0.4-1.54-1.09c-0.21-0.64-0.16-1.24,0.21-1.81c2.02-1.15,3.04-2.53,2.33-5.14
		c-0.5-1.85,1.26-2.83,2.84-3.43c2.75-1.05,2.77-1.09,2.48-4.02c-0.13-1.3-0.79-3.1,1.3-3.27c1.81-0.15,2.34,1.48,2.58,3
		c0.38,2.41-0.41,4.87,0.26,7.27c-0.22,2.91,0.85,5.82,0.08,8.73c-0.53,1.1-1.5,1.05-2.48,0.89c-0.69-0.11-1.42-0.49-1.81,0.53
		c0.68-1.14,1.47-0.6,2.25-0.21c0.19,0.1,0.38,0.22,0.57,0.33c1.16,0.06,1.93,1.24,3.16,1.07c1.06-0.2,1.94-0.05,2.87,0.68
		c1.54,1.2,2.51,0.72,3.16-1.32c0.42-0.76,1.57-0.25,1.93-1.1c-0.46-0.64-0.77-1.31-0.5-2.11c0.22-3-0.16-6.01,0.22-9
		c0.53-1.61,1.55-3.18,0.42-4.94c-0.08-0.22-0.08-0.44-0.01-0.66c1.47-1.35,0.85-2.53-0.29-3.67c-0.51-1.85-0.11-3.74-0.34-5.6
		c0.84-1.45,0.27-2.79-0.36-4.12c-0.03-0.71-0.02-1.42,0.27-2.1c0.38-0.77,1.17-0.93,2.21-1.13c-1.1-0.46-1.93-0.35-2.7-0.59
		c-0.88-0.27-1.64-0.15-1.87,0.94c-0.11,0.53-0.37,0.95-0.98,0.82c-0.62-0.13-0.94-0.6-1.06-1.21c-0.37-1.85,0.87-3.21,2.85-3.06
		c1.85,0.14,3.73,0.37,3.98-2.27c0.02-0.16,0.11-0.38,0.23-0.42c2.68-0.8,3.09-4.12,5.64-5.05c0.47-0.17,0.93-0.45,1.09-0.93
		c1.1-3.24,4.24-3.52,6.77-4.66c0.69-0.31,1.63-0.33,1.92,0.5c0.64,1.83,1.5,1.21,2.53,0.45c0.53-0.39,1.16-0.62,1.81-0.18
		c0.38,0.54,1,0.28,1.49,0.45c0.97,0.29,1.54,1.31,2.61,1.41c0.89,0.15,1.69,0.58,2.59,0.73c0.47,0.08,1.24,0.35,1.12,0.77
		c-0.53,1.87,1.1,1.8,1.98,2.31c1.26,0.74,2.07,2.72,3.99,1.33c-0.15-0.55-1.37-1.18-0.44-2.26c1.09,0.12,2.08,0.5,3.01,1.08
		c-0.34,1.6,1.31,1.3,1.91,2c0.18,0.14,0.32,0.31,0.42,0.52c-0.37,1.3-1.22,2.42-1.02,3.93c0.23,1.76-0.01,2.83-2.2,3.93
		c-1.93,0.97-3.59,3.38-5.27,5.2c-0.82,0.88-0.92,2.22-2.6,2.4c-1.17,0.13-1.63,1.25-1.66,2.41c-0.03,1.06-0.05,2.12,0,3.18
		c0.06,1.19-0.09,2.15-1.63,2.05c-0.16-0.01-0.32,0.07-0.48,0.09c-2.14,0.36-1.13,3.16-2.57,3.63c-1.57,0.51-3.04,0.73-3.16,2.71
		c-0.05,0.87-0.32,1.35-1.28,1.4c-1.93,0.09-2.61,1.25-2.7,3.08c-0.09,1.84-1.56,1.95-1.55,2.13c0.08,2.56-2.85,1.49-3.44,3.03
		c-0.05,0.12-0.22,0.2-0.33,0.3c-0.59-2.48-0.08-3.72,2.1-4.63c0.78-0.32,1.28-0.68,1.25-1.55c-0.03-0.82-0.66-1.1-1.3-1.24
		c-2.08-0.47-2.08-0.45-1.9-3.06c0.25,1.01,0.38,1.57,0.52,2.13c0.25-0.06,0.52-0.09,0.52-0.13c0.09-2.07,1.15-2.86,3.18-2.56
		c0.9,0.13,1.95,0.1,2.18-1.03c0.25-1.22,0.23-2.49,0.33-3.74c-1.47,0.06-1.93-1.08-2.51-2.08c0.15-0.18,0.38-0.28,0.52-0.44
		c-0.21,0.09-0.36,0.28-0.52,0.44c-0.79,1-3.43,1.19-1.47,3.38c-1.14,0.9-2.3,0.2-3.44,0.04c0.4-0.64,0.96-1.1,0.56-2.13
		c-0.36-0.96,0.09-2.17,0.82-2.96c1.47-1.57,1.7-3.12,0.32-4.6c0.02,1.3,1.48,3.13-1.12,4.08c-0.65,0.24,0.04,1.3-0.05,1.99
		c-0.21,1.53-0.76,1.84-1.94,0.99c-0.12-4.24-0.01-8.47-0.06-12.71c-0.02-2,0.84-2.69,2.74-2.03c0.23,0.24,0.47,0.65,0.19,0.84
		c-2.02,1.33-1.33,3.39-1.47,5.09c0.07-0.34,0.07-0.84,0-1.3c-0.3-2.13,0.69-3.24,2.72-3.55c0.58-0.09,1.09-0.33,1.59-0.61
		c0.34-0.12,0.68-0.12,1.02,0.02c0.66,0.49,0.58,1.24,0.7,1.92c0.29,1.66,1.05,1.51,2.01,0.5c1.7-1.85,0.43-3.55-0.26-5.28
		c-0.48-1.06-1.45-1.11-2.45-1.09c1.02,0.17,2.12,0.22,2.62,1.35c0.25,0.45,0.39,0.91,0.22,1.43c-0.18,0.39-0.49,0.6-0.91,0.66
		c-3.12,0.55-6.19-0.22-9.28-0.33c-0.22-0.09-0.4-0.23-0.58-0.4c-0.18-0.16-0.09-0.49-0.39-0.56c0.04,0.24,0.06,0.47,0.12,0.72
		c0.58,0.68,1.38,1.21,1.38,2.24c0.03,5.79,0.06,11.59,0.02,17.38c0.18,1.1-1.84,2.02-0.28,3.25c0.15,0.33,0.17,0.67,0.09,1.01
		c-0.18,0.56-0.53,1-0.96,1.38c-1.37,1.32-0.33,2.56,0.14,3.81c0.3,1.44,0.31,2.86-0.35,4.22c-0.21,0.45-0.64,0.8-0.59,1.37
		c0.42,0.86,0.97,1.68,1.24,2.59c0.51,1.67,0.55,3.52,0.12,5.09c-0.66,2.35-2.89,0.93-4.38,1.1c-2.55,0.29-3.29,0.85-3.35,3.45
		c-0.01,0.41,0,0.82,0,1.23c0,3.22-1.22,4.31-4.53,4.01c1.05,1.91,0.48,3.96,0.57,5.95c0.01,0.29-0.27,0.86-0.32,0.85
		c-2.27-0.51-2.75,2.15-4.54,2.53c-1.01,0.22-1.75,0.92-1.69,2.2c-0.36-2.04,1.14-3.71,0.76-5.75c-0.33-1.73,0.12-3.57-0.49-5.33
		c-0.71-2.05,0.62-3.33,1.9-4.59c1.51-0.89,1.83-0.03,1.86,1.26c-0.31,0.62-0.8,1.2-0.52,2c0.09-0.47-0.11-0.96,0.16-1.39
		c0.87-0.75,0.11-1.98,0.81-2.78c1.38-0.46,0.9,1.27,1.72,1.47c0.11,0.22,0.17,0.45,0.17,0.7c0,0.01,0.13-0.02,0.12-0.05
		c-0.18-0.34-0.25-0.75-0.6-0.99c-0.24-1.64-1.38-2.56-2.83-2.3c-2.73,0.48-5.46-0.29-8.16,0.22c-0.69,0.15-1-0.71-1.95-0.55
		c0.62,0.11,0.95,0.28,1.04,0.7C123.36,113.37,123.12,113.58,122.75,113.66z"/>
	<path class="st2" d="M101.24,162.84c0.77,0.71,1.73,1.08,2.71,0.84c4.63-1.16,9.25,0.11,13.87,0.04c3.58-0.06,7.17-0.01,10.76,0.43
		c-8.62,0-17.24,0-26.16,0c0.36,0.33,0.41,0.43,0.47,0.43c8.62-0.1,17.16,1.57,25.8,1.33c0.81-0.02,0.61-1.25,1.9-0.67
		c1.72,0.77,1.33,3.49,3.71,3.41c-0.88,0.55-1.7,1.24-2.64,1.63c-1.52,0.62-2.99,0.24-3.1-1.53c-0.09-1.49-0.78-1.62-1.83-1.6
		c-1.98,0.06-4.35-0.8-5.11,2.23c-0.2,0.79-1.21,0.84-1.88,0.97c-1.42,0.27-2.48,0.65-2.39,2.43c0.04,0.88-0.7,1.2-1.53,1.23
		c-1.8,0.06-2.39,1.12-2.33,2.76c0.03,0.9-0.03,1.8,0.01,2.7c0.06,1.39-0.18,2.49-1.93,2.41c-0.08,0-0.21-0.02-0.24,0.03
		c-1.55,2.34-4.23,3.68-5.6,6.08c-0.52,0.91-0.67,1.7-1.88,1.75c-1.68,0.07-2.18,1.16-2.14,2.68c0.03,1.14-0.17,2.32,0.05,3.43
		c0.45,2.33-0.62,2.52-2.42,2c-0.52-0.15-1.04-0.85-1.55-0.33c-0.58,0.6,0.72,0.4,0.54,0.91c-0.1,0.29-0.84,0.22-2.62-0.2
		c-0.15,0.58,0.49,0.8,0.6,1.25c-10.84-3.77-21.68-7.56-32.39-11.72c-0.96-1.37-0.53-1.97,1.05-1.77c1.13,0.14,2.25,0.37,3.76,1.05
		c-1.29-1.55-0.4-2.72-0.11-3.96c0.33-1.38,1.08-2.36,2.47-2.77c1.41-0.42,1.54-1.54,1.49-2.73c-0.11-2.42,0.12-4.63,3-5.38
		c0.23-0.06,0.52-0.23,0.56-0.44c0.59-3.07,3.91-3.18,5.55-5.11c0.48-0.57,1.33-0.56,2.04-0.7c-4.1,0.74-8.24,0.32-12.37,0.36
		c-0.58,0.01-1.13-0.15-1.55-0.6c-9.91,0-19.82,0-29.73-0.01c-0.22,0-0.44-0.09-0.65-0.13c0.15-0.12,0.3-0.24,0.45-0.36
		c1.01-0.96,2.29-0.73,3.49-0.74c7.92-0.04,15.85,0.04,23.77,0.01c-4.32-0.03-8.64,0.08-12.96-0.07c-1.18-0.04-2.9,0.25-2.83-1.88
		c0.97-0.62,2.05-0.46,3.1-0.46c14.46-0.01,28.91-0.02,43.37,0.01C98.98,162.06,100.3,161.72,101.24,162.84z"/>
	<path class="st2" d="M129.6,90.59c-0.79-0.44-0.66-1.03-0.57-1.85c0.2-1.93,0.25-3.9,0.06-5.82c-0.1-0.94-0.71-2.27-1.99-2.02
		c-1.42,0.28-0.7,1.49-0.58,2.39c0.12,0.96,0.17,1.93,0.23,2.9c0.08,1.3-0.52,1.83-1.85,1.98c-3.35,0.37-3.96,1.43-3.22,4.65
		c0.6,2.58-1.41,3.09-3.22,3.66c-0.93-0.82-0.71-1.95-0.71-2.98c-0.02-7.42-0.03-14.85-0.01-22.27c0.01-3.59,0.62-4.18,4.2-3.71
		c1.87,0.25-0.09-0.8,0.4-0.95c0.32-0.68-1.47-2.22,0.85-2.09c-0.65-2.77,2.7-2.53,3.12-3.94c0.6-2.02,2.17-2.29,3.25-3.37
		c1.49-1.48,2.88-3.02,4.46-4.47c1.15-1.06,1.65-2.62,3.55-3.36c1.9-0.74,0.55-3.11,1.09-4.7c1.08,0.89,2.07,1.2,2.36-0.74
		c5.06,0.86,9.6,3.26,14.4,4.88c2.09,0.71,4.33,1.17,6.16,2.56c-0.68,0.04-1.28,0.31-1.75,0.79c-1.44,1.48-2.67,2.36-3.02-0.73
		c-0.11-0.93-0.87-0.55-1.33-0.37c-1.56,0.63-3.09,1.35-4.64,2.02c-0.64,0.28-1.23,0.72-1.28,1.37c-0.14,1.69-1.06,2.39-2.63,2.58
		c-0.35,0.04-0.86,0.39-0.94,0.7c-0.49,1.82-1.33,3.21-3.41,3.47c-0.21,0.03-0.54,0.48-0.53,0.73c0.15,3.91-2.77,2.37-4.66,2.67
		c-0.55,0.09-1.55-0.91-1.54,0.15c0.01,1.02-1.82,2.19,0.14,3.16c0.3-2.04,1.03-3.26,3.3-1.91c0.43,0.26,1.12,0.06,1.69,0.09
		c0.64,0.03,1.47-0.07,1.37,0.91c-0.08,0.78-0.64,1.11-1.43,0.76c-0.54-0.24-0.94,0.12-1.38,0.28c-0.27-0.26-0.31-0.57-0.2-0.91
		c0.08-0.14,0.2-0.21,0.36-0.23c0.05-0.01,0.09-0.1,0.14-0.16c-1.73-0.05-1.06,0.99-0.82,1.83c-0.21,4.96-0.3,9.92-0.32,14.88
		c-0.01,2.34-0.58,2.81-2.93,2.93c-5.51,0.3-5.57,0.24-5.57-5.27c0-0.41,0-0.81,0-1.22c0.02-3.81-0.04-7.62,0.03-11.41
		c0.01-0.32,0.14-0.63,0.05-0.95c0.03,6.15-0.23,12.29,0.02,18.44C130.34,87.52,130.87,89.2,129.6,90.59z"/>
	<path class="st2" d="M69.8,165.68c5.21,0,10.41,0,15.62,0c-1.89,0.43-3.67,0.9-4.62,2.85c-0.28,0.57-1.1,0.35-1.49,0.62
		c-2.27,1.58-3.87,3.9-5.93,5.75c-0.65,0.59-0.17,2.49-0.13,3.8c0.04,1.34-0.33,2.2-1.88,2.22c-1.23,0.02-2.35,0.94-1.94,1.95
		c0.52,1.27-2.85,2.5,0.11,3.45c0.41,0.13,0.49,0.37,0.22,0.7c-0.38,0.46-0.97,0.99-1.44,0.62c-0.97-0.77-2.21-0.39-3.15-0.97
		c-1.7-1.05-0.92,0.65-1.26,1.1c-2.74-0.72-5.42-1.61-7.95-2.9c0.53-0.81,1.63-0.56,2.72-1.71c-1.87,0.51-3.13,1.41-4.58,1.12
		c-5.97-1.91-11.85-4.08-17.69-6.37c-0.22-0.82-1.18-0.73-1.63-1.27c0.57-1.26,1.73,0.41,2.34-0.53c-0.06-0.14-0.07-0.32-0.17-0.41
		c-0.64-0.58-2.39,0.29-2.14-0.8c0.29-1.26,1.84-0.37,2.72-0.19c2.07,0.43,4.69-0.89,5.32-2.88c0.14-0.44,0.53-1.2,0.72-1.18
		c3.23,0.41,2.87-4.66,6.33-4.03c1.82,0.33,3.75,0.11,5.63,0.05c4.4-0.14,8.79-0.31,13.18-0.51
		C69.09,166.12,69.45,165.84,69.8,165.68z"/>
	<path class="st2" d="M174.89,56.08c-0.23,1.59,2,2.14,1.65,3.78c-0.65,0.33-0.9-0.23-1.27-0.48c-0.67-0.45-1.5-1.54-1.59,0.41
		c-0.02,0.41-0.39,0.77-0.85,0.67c-0.27-0.05-0.74-0.43-0.71-0.52c1.01-2.99-2.02-2.3-3.09-3.37c-0.31-0.32-0.87-0.39-1.29-0.57
		c-0.1-1.09,1.12-0.44,1.35-1.25c-1.1-0.63-2.33-0.83-3.59-0.96c0.18-1.2,0.94-0.66,1.57-0.53
		C169.79,53.91,172.37,54.93,174.89,56.08z"/>
	<path class="st2" d="M54.11,184.26c1.18-0.5,2.34-1.03,3.53-1.49c0.63-0.24,1.45-0.84,1.77,0.34c0.28,1.02-0.58,1.22-1.29,1.4
		c-0.7,0.18-1.44,0.24-2.16,0.35C55.28,184.87,54.68,184.63,54.11,184.26z"/>
	<path class="st2" d="M131.61,44.45c1.43,0.98,0.44,2.08,0.04,3.05c-0.2,0.47-1.25,0.13-1.1-0.16c0.92-1.75-1.16-1.2-1.41-1.99
		C129.89,44.84,130.71,44.54,131.61,44.45z"/>
	<path class="st2" d="M190.05,61.64c0.02,0.08,0.06,0.15,0.07,0.23c0.17,1.34-1.15,0.67-1.16,0.61c-0.43-1.71-3.75,0.54-3.24-2.36
		C187.24,60.43,188.68,60.94,190.05,61.64z"/>
	<path class="st2" d="M179.75,59.68c-0.93-0.42-1.95-0.71-2.61-1.55c-1.06-1.33,0.42-0.71,0.76-0.96c0.9,0.14,1.75,0.4,2.48,0.97
		C179.92,58.55,180.63,59.44,179.75,59.68z"/>
	<path class="st2" d="M225.88,74.88c-0.27,0.28-0.55,0.56-0.82,0.84c-0.72-1.44-2.35-0.39-3.34-1.14c0.17-0.91,0.91-0.55,1.37-0.74
		C224.11,73.94,225.04,74.3,225.88,74.88z"/>
	<path class="st2" d="M33.49,175.49c0.39,0.74,0.07,1.03-0.67,1.07c-1.31-0.39-2.78-0.39-3.78-1.53l0.11-0.07
		C30.66,174.59,32.12,174.62,33.49,175.49z"/>
	<path class="st2" d="M167.08,53.26c-0.55,0.08-1.19-0.07-1.57,0.53c-1.56,0.25-1.55-1.44-2.46-2
		C164.5,51.99,165.85,52.47,167.08,53.26z"/>
	<path class="st2" d="M127.63,45.89c0.97,0.05,1.74,0.63,1.22,1.49c-0.76,1.29-1.71-0.47-2.74,0.1c0.25-0.82,1.83-0.23,1.12-1.5
		C127.34,45.85,127.47,45.82,127.63,45.89z"/>
	<path class="st2" d="M179.75,59.68c0.68-0.32-0.8-1.52,0.63-1.54c0.53-0.05,1,0.06,1.36,0.48c-0.26,0.69-0.76,1.05-1.5,1.06
		C180.07,59.68,179.91,59.68,179.75,59.68z"/>
	<path class="st2" d="M218.03,71.96c0.35,0.43,0.69,0.85,1.09,1.35c-0.99,0.19-1.87,0.08-2.26-0.85c-0.19-0.46,0.52-0.46,0.87-0.6
		C217.87,71.78,217.97,71.81,218.03,71.96z"/>
	<path class="st2" d="M107.1,53.38c-0.83,0.23-1.04,2.53-2.49,0.76C105.38,53.69,106.18,53.32,107.1,53.38z"/>
	<path class="st2" d="M151.28,209.31c0.94-1.49,2.42-1.48,3.92-1.43C153.97,208.55,152.68,209.08,151.28,209.31z"/>
	<path class="st0" d="M144.35,158.9c-0.07,0.4-0.06,0.77,0.39,0.95c0.87,0.35,1.78,0.18,2.67,0.18c28.3,0.01,56.6,0.01,84.91,0.02
		c0.8,0,1.64-0.23,2.39,0.25l-0.01-0.01c0.94,2.24-0.49,2.2-2.04,2.2c-17.47-0.02-34.94-0.01-52.42-0.01
		c-10.86,0-21.72-0.01-32.58,0.01c-0.88,0-1.8-0.25-2.64,0.24c-0.17,0.04-0.24,0.14-0.21,0.31c-2.61,5.16-7.43,6.51-11.07,3.13
		c-1.05-0.97-1.24-2.41-2.13-3.44c-1.6-0.22-3.21-0.26-4.82-0.26c-24.42-0.01-48.85-0.09-73.27,0.08
		c-4.46,0.03-8.94,0.35-13.42,0.38c-1.07,0.01-2.12-0.14-3.17-0.2c-1.75-0.11-2.09-0.97-1.41-2.45l-0.02,0.04
		c1.28-1.01,2.83-0.88,4.24-0.7c6.42,0.83,12.88,0.54,19.3,0.34c11.9-0.38,23.81-0.62,35.7-0.31c11.17,0.3,22.33,0.35,33.5,0.38
		c0.33,0,0.65,0.05,0.95,0.18c1.67,0.3,2.68-0.14,3.61-1.83C135.38,153.65,140.93,153.98,144.35,158.9z"/>
	<path class="st2" d="M206.67,131.82c-0.92,0.12-1.52,1.56-2.79,0.48c-0.57-0.49-0.67,0.51-0.69,0.86c-0.05,0.88-0.05,1.8,0.15,2.65
		c0.38,1.6-0.21,2.38-1.79,2.38c-2.59,0-1.54,2.88-2.85,3.6c-1.35,0.74-3.28,0.42-3.31,2.8c-0.01,1.13-0.43,2.29-1.91,2.45
		c-1.35-0.29-1.59-1.39-1.86-2.5c-0.22-0.9,0.42-2.37-1.43-2.23c-0.25-1.7-0.13-3.4-0.08-5.09c0.51-1.31,1.61-2.4,1.49-3.96
		c-0.03-0.43-0.5-0.08-0.6-0.37c0.32-1.7,1.54-1.03,2.42-0.8c0.86,0.23,1.41,0.33,1.5-0.8c-1.51,0.56-3.02,1.14-4.46-0.12
		c0.32-0.56,0.39-1.18,0.42-1.76c-0.31,0.43,0.33,1.46-0.85,1.44c-0.86-1.43-0.32-2.99-0.41-4.5c0.59-1.42,0.9-2.85,0-4.28
		c-0.09-2.04-0.03-4.07-0.03-6.1c0-1.5,0.74-2.25,2.24-2.26c0.98-0.01,1.96-0.05,2.93,0.01c1.55,0.11,2.67,0.72,2.64,2.51
		c0,0.15-0.02,0.31-0.01,0.47c0.03,0.34-0.21,0.85,0.48,0.78c0.01,0,0.49-0.04,0.09-0.26c-0.22-0.12-0.35-0.3-0.45-0.52
		c-0.06-0.93-0.26-1.87,0.09-2.78c1.04-0.86,0.88,0.22,1.13,0.69c0.46,0.88,0.94,1.65,1.9,0.43c0.67-0.86,0.97-0.21,1.06,0.38
		c0.11,0.73-0.4,1.59,0.46,2.13c-0.79-0.58-0.58-1.25-0.11-1.94c0.9-1.72,2.41-1.83,4-1.36c1.63,0.48,1.17,1.96,1.18,3.11
		c0.04,3.99,0.03,7.98,0,11.98C207.21,130.16,207.48,131.11,206.67,131.82z"/>
	<path class="st2" d="M145.02,162.73c0.9-0.59,1.91-0.28,2.85-0.28c28.09-0.02,56.19-0.02,84.28-0.03c1.42,0,3.23,0.39,2.53-2.14
		c0.94,1.47,0.9,2.47-1.2,2.46c-0.25,0-0.49,0-0.74,0C203.51,162.74,174.27,162.74,145.02,162.73z"/>
	<path class="st2" d="M234.71,160.3c-29.06-0.01-58.12-0.01-87.17-0.04c-0.93,0-1.96,0.41-2.79-0.41c1.53-0.03,3.06-0.06,4.59-0.09
		c2.44-0.71,4.89-0.71,7.33,0c2.62,0,5.25,0,7.87,0c22.47,0.01,44.93,0.01,67.4,0.03C232.87,159.81,233.92,159.41,234.71,160.3z"/>
	<path class="st3" d="M206.67,131.82c0.01-5.1,0.03-10.21,0.03-15.31c0-0.83,0.31-2.02-1.11-1.92c-1,0.07-2.58-0.88-2.77,1.24
		c-0.06,0.67-0.57,0.27-0.9,0.12c-0.52-0.67-0.48-1.37-0.11-2.08c2.07-1.7,4.53-0.46,6.79-0.81c1.52-0.24,3.26-0.42,4.6,0.86
		c0.4,0.59,0.34,1.16-0.07,1.71c-0.04,0.31-0.09,0.62-0.13,0.93c-1.34-0.11-1.07-2.29-2.95-2.04c-1.6,0.21-2.41,0.28-2.37,2.26
		c0.12,6.49,0,12.99-0.03,19.48c-0.39,2.84-0.02,5.7-0.21,8.54c-0.04,0.6,0.72,1.8-0.84,1.74
		C206.62,141.61,206.65,136.72,206.67,131.82z"/>
	<path class="st4" d="M206.59,146.51c1.17-0.95,0.46-2.25,0.6-3.38c0.29-2.29-0.39-4.64,0.44-6.9c-0.02,2.75-0.05,5.49-0.06,8.24
		c-0.01,1.42-0.21,2.98,2.73,2.77c-2.16,1.38-3.74,0.45-5.29,0.66C205.68,147.55,206.34,147.25,206.59,146.51z"/>
	<path class="st5" d="M59.15,148.42c-1.41-2.38-0.13-4.54,0.56-6.74c1.2,0.95,0.09,2.4,0.74,3.47c0.62,2.07,2.41,2.36,3.89,1.78
		c1.45-0.57,3.08-1.58,3.11-3.63c0.02-1.37-0.03-2.75-0.05-4.12c-0.85-0.77-0.71-1.89-1.04-2.85c-1.16-2.5-3.33-4.25-4.82-6.5
		c-0.89-0.31-0.6-1.3-1.07-1.86c-0.6-0.37-0.33-1.06-0.57-1.56c-0.39-1.91-0.56-3.84-0.58-5.8c-0.03-2.83,0.66-5.28,3.14-6.95
		c1.18-0.26,2.43-0.69,3.51,0.05c1.21,0.82,1.1-1.19,2.22-0.68c0,1.57,0,3.26,0,4.96c-0.96,0.03-1.04-0.65-1.13-1.15
		c-0.27-1.45-0.98-2.42-2.55-2.46c-1.67-0.04-2.87,0.8-3.36,2.33c-1.12,3.44-1.12,6.89,0.41,10.24c0.92,2.02,2.3,3.72,3.73,5.41
		c3.41,4.04,4.53,8.56,2.43,13.62c-0.04,2.13-1.68,2.31-3.18,2.45C62.76,148.62,60.96,147.98,59.15,148.42z"/>
	<path class="st2" d="M65.89,159.76c0-0.57-0.09-1.39,0.44-1.56c2.53-0.79,3.62-3.59,6.15-4.33c0.84-0.24,1.37-0.74,1.22-1.54
		c-0.26-1.4,0.81-2.37,0.75-4.24c1.55,2.31,3.41,2.15,4.49,0.87c0.84-1,2.6,1.03,2.55-1.12c-2.4-0.15-3.06-1.47-2.87-3.74
		c0.72-8.92,0.03-17.85,0.28-26.78c0.02-0.73,0.01-1.47,0.25-2.17c0.94-1.59,2.41-1.18,3.78-0.91c0.59,0.12,1.12,0.61,1.63-0.1
		c0.93,0.47,1.54,0.64,2.37-0.54c1.86-2.64,3.15-2.81,5.95-1.43c1.16,1.04,0.19,1.25-0.59,1.54c-0.64,0.13-1.29,0.06-2.1,0.16
		c2.55,5.2,3.83,10.74,5.13,16.23c1.32,5.56,0.23,11.32,0.56,16.98c-0.07-2.02,0.11-4.05-0.07-6.05
		c-0.62-6.98,1.16-13.56,3.22-20.08c0.82-2.6,0.85-5.51,2.81-7.7c-0.12-1.8,0.63-2.76,2.13-2.37c1.4,0.36,3.07,0.62,3.6,2.41
		c1.85,1.4,2.36,3.28,2.21,5.53c-0.14,2.1-0.03,4.21-0.01,6.32c-0.04,7.32,0.07,14.64-0.07,22.1c2.14,0.25,4.54-0.23,6.74,0.75
		c-2.71,0.84-5.47,0.99-8.31,0.71c1.43,0.54,2.43,2.65,4.44,1.12c0.7,2.65,0.05,3.55-2.66,3.59c-0.97,0.01-1.96-0.17-2.89,0.3
		c-0.66,0.34-1.41,0.64-1.27,1.56c0.15,0.92,0.89,1.06,1.67,1.07c1.31,0.01,2.61,0,3.92,0.02c0.8,0.01,1.53,0.25,1.56,1.17
		s-0.67,1.32-1.47,1.24c-2.29-0.23-4.77,0.9-6.7-1.7c-1.22-1.65-3.29-0.43-5.49-0.04c1.77,0.49,2.58,1.24,2,2.73
		c-0.5,0.39-1.09,0.25-1.65,0.25c-10.68,0.01-21.36,0.01-32.03,0C66.98,160.02,66.39,160.15,65.89,159.76z"/>
	<path class="st6" d="M151.42,67.94c-1.64-0.69-2.59-0.51-2.55,1.63c0.09,4.39,0.03,8.78,0.04,13.17c0.45,0.42,0.64,0.97,0.74,1.55
		c1.17,0.44,2.39,0.33,3.6,0.36c1.08-0.04,0.03-1.47,1.25-1.56c0.61,1.44,0.36,2.88-0.04,4.62c-1.01-0.67-0.4-2.09-1.97-2.29
		c-3.1-0.39-3.6-0.21-3.58,2.9c0.02,3.41,0.41,6.83-0.06,10.24c-0.18,1.34,0.24,2.02,1.69,1.8c0.24-0.04,0.49,0,0.73,0
		c2.29-0.06,5.24,0.86,4.56-3.83c1.99,3.49,1.32,4.76-1.88,4.8c-2.52,0.03-5.04,0.04-7.57,0.05c-0.28-0.21-0.84-0.09-0.84-0.58
		c0-0.54,0.58-0.28,0.84-0.47c1.95-1.52,1.04-3.68,1.03-5.52c-0.01-1.44-0.15-2.84,0.38-4.21c0-0.33,0-0.66,0-0.99
		c-0.65-0.81-0.42-1.63-0.02-2.45c0.05-5.87,0.08-11.74,0.16-17.61c0.02-1.11-0.2-1.88-1.43-2.14c-0.54-0.11-0.9-0.48-0.13-0.9
		c0.32-0.27,0.64-0.27,0.98-0.05c3.27,0.19,6.54,0.37,9.81,0.56c0.3,0.3,0.51,0.65,0.53,1.06c0.05,0.82,0.12,1.78-0.89,1.99
		c-1.04,0.21-0.98-0.82-1.23-1.46c-0.09-0.23-0.24-0.42-0.38-0.62c-0.33,0-0.65-0.01-0.98-0.01
		C153.28,68.63,152.34,68.8,151.42,67.94z"/>
	<path class="st5" d="M122.78,113.66c0.17-0.16,0.35-0.33,0.52-0.49c0.27-0.31,0.63-0.25,0.98-0.24c1.09-0.35,2.17-0.12,3.25,0.02
		c2.06,0.44,4.22-0.46,6.25,0.44c0.09,0.1,0.18,0.2,0.27,0.3c-0.45,0.9,1.16,2.45-0.9,2.84l0.02,0.03
		c-0.06-0.99,0.19-2.23-1.53-1.84c-5.79-0.36-5.78-0.36-5.77,5.43c0,2.86-0.09,5.71-0.06,8.57c0.01,0.94-0.55,2.5,1.08,2.48
		c1.46-0.02,3.52,1.3,4.37-1.54c0.94,1.66,0.43,3.08,0.25,4.69c-1.11-0.52-0.69-2.07-2.28-2.17c-3.08-0.19-3.39-0.14-3.37,2.96
		c0.03,3.34,0.45,6.67-0.03,10c-0.24,1.68,0.52,2.24,2.08,2c0.08-0.01,0.16,0.01,0.24,0c2.18-0.25,5.43,1.19,4.64-3.78
		c1.9,3.73,1.42,4.65-1.78,4.69c-2.28,0.03-4.57,0.03-6.85-0.01c-0.63-0.01-1.65,0.29-1.37-1.03c1.79-0.01,2.48-0.85,2.25-2.66
		c-0.25-1.89,0.25-3.84-0.25-5.73c-0.02-0.8-0.04-1.6-0.07-2.4c-0.32-2.61-0.33-5.23,0-7.84c-0.96-3.27,0.36-6.51,0.17-9.79
		C124.78,116.61,125.13,114.61,122.78,113.66z"/>
	<path class="st7" d="M177.3,113.08c2.84,1.49,4.01,3.88,3.93,7.03c-0.2,7.34,0.35,14.69-0.37,22.02c-0.06,0.64-0.23,1.28-0.34,1.92
		c0.22,0.55,0.23,1.06-0.3,1.45c-0.36,0.66-0.71,1.31-1.07,1.97c-0.28,0.17-0.5,0.11-0.66-0.18c-0.19-0.38-0.24-0.78-0.21-1.2
		c2.1-8.66,1.17-17.47,1.13-26.23c-0.01-2.69-1.66-4.85-3.13-4.64c-2.73,0.37-2.41,2.87-2.95,4.73c-0.54,4.61-0.08,9.22-0.25,13.83
		c-0.04,1.1,0.27,2.31-0.79,3.16c-0.72-3.48-0.04-7.02-0.45-10.52c-0.12-3.06-0.55-6.13,0.14-9.18
		C172.72,114.54,174.3,112.9,177.3,113.08z"/>
	<path class="st6" d="M158.71,141.13c-0.02,0.98-0.03,1.97-0.05,2.95c0.9,0.75-0.1,2.45,1.45,2.88c2.68,0.54,4.7-0.27,5.84-2.86
		c0.6,0.88,0.23,1.88,0.29,2.82c0.06,0.87-0.55,1.47-1.33,1.37c-2.97-0.35-5.9,0.99-8.87,0.15c-0.48-0.13-0.88-0.32-0.85-0.92
		c0.17-0.17,0.34-0.34,0.52-0.52c1.26,0.19,1.72-0.32,1.73-1.61c0.07-9.87,0.12-19.75,0.36-29.61c0.04-1.61-1.39-1.23-2.07-2.2
		c1.94-0.09,3.58-0.11,5.5,0.4c-3.27,0.43-2.44,2.73-2.46,4.63c-0.04,4.4-0.07,8.8-0.1,13.21c-0.16,0.99-0.21,1.97,0.06,2.95
		C159.01,136.89,159.01,139.01,158.71,141.13z"/>
	<path class="st8" d="M116.43,148c-3.04,0-6.08,0-9.12,0c1.97-0.85,1.71-2.39,1.71-3.86c0.02-6.34,0.07-12.69,0.11-19.03
		c0.44-2.99,0.04-6,0.22-9c0.08-1.32-1.03-1.6-2.3-2.43c2.22-0.29,3.83-0.53,5.45,0.06c-0.17,0.42,0.09,0.96-0.38,1.29v-0.01
		c-1.13-0.85-1.74-0.62-1.72,0.84c0.03,2.33,0.08,4.65,0.12,6.97c-0.46,5.09-0.1,10.2-0.2,15.3c-0.04,2.03,0.13,4.07-0.04,6.08
		c-0.17,2,0.49,2.86,2.52,2.58c0.4-0.06,0.81-0.02,1.2,0.14c0.5-0.01,1-0.02,1.49-0.03c1.47-0.41,1.17-1.81,1.33-3.15
		c1.23,0.82,0.61,1.86,1.06,2.52C117.37,146.84,117.46,147.88,116.43,148z"/>
	<path class="st2" d="M65.89,159.76c11.78,0,23.56,0,35.34,0c8.47,0.01,16.93,0,25.4,0.03c0.86,0,1.81-0.31,2.56,0.42
		c-11.69,0.02-23.38,0.05-35.07,0.06c-19.54,0.02-39.08,0.03-58.62,0.05c-0.12-0.35-0.24-0.71-0.36-1.06
		c0.43,0.01,0.87,0.02,1.3,0.03c1.81,0.04,3.7-0.8,5.41,0.48C49.85,159.77,57.87,159.77,65.89,159.76z"/>
	<path class="st2" d="M113.97,146.94c-0.24,0.03-0.48,0.08-0.72,0.08c-3.2,0.09-3.19,0.09-3.16-3.05
		c0.05-6.33,0.08-12.66,0.14-18.99c0.01-0.71-0.18-1.47,0.28-2.13c0.05,0.38,0.09,0.76,0.14,1.14c0,7.34,0,14.67,0,22.16
		c0.84-0.99-0.02-2.17,0.84-3.31C111.3,145,111.41,146.83,113.97,146.94z"/>
	<ellipse class="st2" cx="124.26" cy="126.86" rx="0.12" ry="15.02"/>
	<path class="st2" d="M113,133.29c1.24,1.67-0.33,3.25-0.18,4.89c0.03,0.37-0.59,0.49-1.01,0.43c-0.46-0.07-0.73-0.39-0.73-0.83
		c0-1.09-0.43-2.34,0.94-3.02C112.55,134.41,112.43,133.61,113,133.29z"/>
	<path class="st2" d="M113,133.29c0.01,0.71,0.02,1.43-0.98,1.47c0.7-2.04-1.32-3.6-0.99-5.59c0.13-0.76-0.25-1.64,0.5-2.26
		c0.36,1.36-1,3.36,1.47,3.93C113,131.65,113,132.47,113,133.29z"/>
	<path class="st2" d="M171.96,117.23c-0.05,3.06-0.09,6.12-0.14,9.18h-0.21h-0.21c0.42-3.59-0.79-7.23,0.36-10.81
		C171.84,116.14,171.9,116.69,171.96,117.23z"/>
	<path class="st2" d="M124.8,138.62c0.58,2.38,0.2,4.79,0.27,7.18c0.05,1.88-1.44,0.93-2.26,1.21c1.58-0.46,2.14-1.45,1.99-3.12
		C124.64,142.15,124.79,140.38,124.8,138.62z"/>
	<path class="st2" d="M117.85,146.27c-0.16-0.68-0.31-1.37-0.52-2.28c-1.09,0.84,0.14,2.98-1.87,2.91c0.3-0.47,0.69-0.92,0.89-1.43
		c0.29-0.75-0.22-2.21,1.04-2.02c1.03,0.16,0.36,1.52,0.5,2.34C117.92,145.94,117.87,146.11,117.85,146.27z"/>
	<path class="st2" d="M124.74,128.39c0,2.61,0,5.23,0,7.84C124.01,133.61,124,131,124.74,128.39z"/>
	<path class="st2" d="M123.2,140.77c0.6,0.16,0.59,0.66,0.53,1.14c-0.06,0.5-0.3,1.01-0.87,0.94c-0.67-0.08-0.51-0.71-0.51-1.16
		C122.35,141.19,122.49,140.73,123.2,140.77z"/>
	<path class="st2" d="M122.81,130.83c-0.78-2.29-0.79-4.58,0-6.87C122.81,126.25,122.81,128.54,122.81,130.83z"/>
	<path class="st2" d="M113.99,143.1c0.65,0,1.3,0,1.95,0c-0.2,0.57,0.46,1.6-0.64,1.58C115.06,144.68,113.39,144.47,113.99,143.1z"
		/>
	<path class="st2" d="M92.31,113.2c0.81,0.01,0.88-0.39,0.57-1.01c1.13-1.07,1.13-1.07-1.09-3.28c4.03,0.3,3.65-2.32,3.53-4.72
		c-0.09-1.84,0.46-2.58,2.35-3.65c1.92-1.08,3.67-3.33,5.28-5.19c0.81-0.93,0.79-2.34,2.58-2.43c1.07-0.05,1.58-1.03,1.57-2.15
		c-0.01-1.06,0.04-2.13-0.01-3.19c-0.06-1.39,0.19-2.46,1.93-2.42c0.37,0.01,0.95-0.14,1.1-0.4c1.9-3.34,4.91-6.31,3.66-10.73
		c-0.33-1.17-0.53-2.37-0.79-3.56c0.28-0.39,0.39-0.87,0.62-1.29c1.19-2.2,2.42-2.28,4.11-0.28c0.16,0.51,0.17,1.01-0.1,1.5
		c-0.69,0.59-1.2,0.34-1.77-0.33c2.52,1.92,1.12,4.67,1.6,7.02c0.23,1.1,0.28,2.26,0.43,3.39c0.01,3.62,0.05,7.23-0.02,10.85
		c-0.5,1.35,0.17,2.97-0.96,4.17c-1.01-0.84,0.02-2.24-1.06-3.39c-0.67,3.17-1.7,6.04-1.87,9.12c-0.08,1.42-0.19,2.78-2.18,2.78
		c-0.4,0-1.08,0.44-1.15,0.78c-0.43,2.03-1.66,3.03-3.6,3.61c-0.88,0.26-0.81,1.31-0.27,2.09c0.56,0.8,1.18,1.56,1.32,2.57
		c-0.3,0.39-0.63,0.4-0.99,0.07c-1.03-1.21-2.35-1.8-3.92-1.67c-1.49,0.12-1.13,0.9-0.5,1.71c-0.61,0.67-1.44,0.54-2.21,0.61
		c-0.69,0.06-1.25,0.22-1.28,1.06c-0.04,0.33,0.03-0.07-0.02,0.25c-0.78,5.01-0.78,5.01-5.89,5.65c-1.14-0.42-0.96-1.53-1.27-2.39
		c0.3-1.27,0.5-2.54,0.09-3.82C92.55,114.14,92.16,113.63,92.31,113.2z"/>
	<path class="st2" d="M51.19,162.83c0.9,0.9,2.04,0.89,3.2,0.88c4.25-0.02,8.5-0.04,12.75,0.02c0.99,0.01,2.73-0.49,2.76,0.71
		c0.03,1.48-1.68,0.69-2.56,0.69c-9.15,0.07-18.31,0.04-27.46,0.04c-0.35-1.23-2.1-0.73-2.45-1.95c0.4-0.49,1-0.61,1.53-0.62
		C43.03,162.57,47.12,162.12,51.19,162.83z"/>
	<path class="st5" d="M117.34,91.58c0.31-3.93,0.24-7.87-0.02-11.8c-0.21-3.11-0.46-6.21,0.04-9.31c0-0.49,0-0.98,0-1.48
		c-1.19-1.89-2.46-1.75-4.11,0.59c-0.98-1.13-1.17-2.18-0.12-3.32c1.61-0.28,3.22-0.49,4.77,0.27c1.47,0.01,2.94,0.02,4.42,0.03
		c1.98,0.52,1.49,1.83,1.04,3.21c-0.62-0.87-0.77-1.94-2.25-2c-1.94-0.08-2.72,0.29-2.69,2.47c0.11,8.74,0.03,17.48,0.01,26.22
		c0,0.65,0,1.31,0,1.96c0.47,0.61,1.03,1.13,1.62,1.64c0.4,0.35,0.88,0.75,0.13,1.25c-1.74,0-3.48,0-5.22,0
		c0.01-0.18,0.02-0.36,0.03-0.54c0.64-0.3,1.28-0.6,1.93-0.89C117.6,97.16,116.82,94.34,117.34,91.58z"/>
	<path class="st2" d="M51.19,162.83c-4.59-0.03-9.2-0.48-13.77,0.39c-2.8-0.09-3.02-0.43-1.9-2.94c-0.46,2.17,0.94,2.11,2.43,2.11
		c25.16-0.01,50.31,0.01,75.47,0.01c5.72,0,11.43-0.03,17.15-0.05c0.4,0,0.82-0.09,1.05,0.38c-1.26,0.64-2.52,0.05-3.79,0.05
		c-8.86-0.02-17.72,0.03-26.59,0.05C84.55,162.84,67.87,162.84,51.19,162.83z"/>
	<path class="st9" d="M79.68,114.66c-0.37,3.32-0.3,6.66-0.3,10c0.01,5.87,0.04,11.73-0.1,17.6c-0.05,2.27-0.58,4.53,2.21,5.59
		c-1.75,0.49-3.47,0.1-5.42-0.13c2.65-0.6,1.96-2.53,2.08-4.16c0.63-8.82-0.25-17.65,0.12-26.47c0.03-0.81-0.09-1.63-0.14-2.44
		C78.65,114.2,79.17,114.2,79.68,114.66z"/>
	<path class="st2" d="M41.84,159.77c-1.8-0.23-3.68,0.56-5.41-0.48c3.64-2.85,7.93-2.4,12.13-2.38c0.57,0,1.16,0.42,1.24,1.02
		c0.12,0.88-0.77,1.06-1.31,1.14c-1.19,0.2-2.42,0.12-3.63,0.23C43.85,159.4,42.74,158.91,41.84,159.77z"/>
	<path class="st2" d="M59.15,148.42c0.86-0.72,1.48-1.44,2.93-0.62c1.82,1.03,4.46-0.05,5.64-1.81c1.42,1.18,1.42,1.18-0.48,2.62
		c0.09,0.78,1.78-0.02,1.28,1.19c-0.35,0.84-1.29,0.31-1.73,0.1c-1.5-0.72-3.04-0.94-4.68-1.01c-0.81-0.04-1.35-0.19-2.16,0.43
		C58.8,150.23,58.83,149.28,59.15,148.42z"/>
	<path class="st10" d="M79.68,114.66c-0.52-0.01-1.03-0.01-1.55-0.02c-1.16,0.43-3.28-1.49-3.44,1.4c-1.33-0.02-1.41-0.22-0.96-2.39
		c0.3-0.14,0.6-0.28,0.9-0.42c0.15-0.01,0.29-0.03,0.44-0.04c2.41-0.35,4.83,0.04,7.24-0.18c0.8-0.07,1.64,0,2.15,0.82
		c-0.05,0.13-0.02,0.24,0.09,0.32c-0.04,0.79-0.08,1.57-0.12,2.36C83.44,114.18,81.55,114.44,79.68,114.66z"/>
	<path class="st2" d="M117.91,66.55c-1.6,0.01-3.19,0.02-4.79,0.03c-0.9,0.61,0.12,1.78-0.7,2.41c-0.3,0.01-0.59,0.01-0.89,0.02
		c-0.49-0.65-0.6-1.31,0-1.96c1.32-3.57,4.27-2.25,6.8-2.06c-1.45,0.06-2.89,0.13-4.58,0.2C115.18,66.08,117.04,64.78,117.91,66.55z
		"/>
	<path class="st2" d="M78.64,112.67c0.88,0.12,1.47-0.47,2.2-0.79c1.55-0.69,2.93-0.48,3.69,1.29c-3.29,0.43-6.58,0.32-9.88,0.05
		l-0.02,0.02c0.23-0.42,0.62-0.55,1.06-0.56C76.68,112.02,77.66,111.99,78.64,112.67z"/>
	<path class="st2" d="M112.42,68.99c0.27-0.79-0.35-1.85,0.7-2.41c-0.23,0.92-0.62,1.83,0.21,3.05c0.14-2.2,1.58-1.94,2.91-1.93
		c0.92,0.01,1.38,0.32,1.12,1.3c-1.27-1.28-2.39-1.67-3.15,0.48c-0.2,0.56-0.55,0.99-1.22,1C112.8,69.98,112.61,69.48,112.42,68.99z
		"/>
	<path class="st2" d="M58.98,155.06c2.01-1.05,4.04-0.53,6.08-0.26C63.07,155.62,61,155.24,58.98,155.06z"/>
	<path class="st2" d="M68.46,111.54c1.6-0.48,0.76,2.59,2.64,1.13c0.06-0.05,0.13,0.99,0.15,1.53c0.02,0.45-0.22,0.8-0.7,0.83
		c-0.55,0.03-0.96-0.29-1.1-0.79C69.2,113.34,69.46,112.31,68.46,111.54z"/>
	<path class="st2" d="M60.48,127.97c0.63,0.46,0.98,1.08,1.07,1.86c-1.13,0.58-2.98-0.2-2.93-1.3c0.02-0.55,0.25-1.32,1-0.4
		C60,128.61,60.34,128.87,60.48,127.97z"/>
	<path class="st2" d="M74.65,113.22c3.29-0.02,6.59-0.03,9.88-0.05c-0.02,0.22-0.04,0.44-0.07,0.66
		C81.23,113.02,77.89,113.96,74.65,113.22z"/>
	<path class="st2" d="M111.53,67.04c0,0.65,0,1.31,0,1.96c-0.82-0.21-1.98-0.23-1.79-1.39C109.84,66.91,110.62,66.26,111.53,67.04z"
		/>
	<path class="st2" d="M78.64,112.67c-0.98,0-1.96,0-2.94,0C76.68,111.15,77.66,110.39,78.64,112.67z"/>
	<path class="st2" d="M66.37,136.33c0.86,0.76,0.99,1.79,1.04,2.85C65.86,138.67,65.02,137.9,66.37,136.33z"/>
	<path class="st2" d="M64.82,135.73c-0.93-0.81-1.66-0.55-2.33-0.77c0.2-0.43,0.4-1.22,0.61-1.23
		C64,133.7,64.41,134.38,64.82,135.73z"/>
	<path class="st2" d="M33.49,175.49c-1.45-0.17-2.89-0.35-4.34-0.52C30.67,174.51,32.24,173.68,33.49,175.49z"/>
	<path class="st2" d="M59.59,140.13c-0.41-0.03-0.83-0.05-0.94-0.56c-0.1-0.5,0.17-0.79,0.64-0.79c0.52,0,0.95,0.25,0.98,0.83
		C60.29,140.05,59.89,140.06,59.59,140.13z"/>
	<path class="st2" d="M73.73,113.66c0.37,0.78-1.04,2.27,0.96,2.39c-0.18,1.25-0.82,1.15-1.24,0.25
		C73.07,115.48,72.93,114.46,73.73,113.66z"/>
	<path class="st2" d="M60.45,145.15c-0.85-1.03-0.01-2.41-0.73-3.47C60.86,142.64,61.43,143.73,60.45,145.15z"/>
	<path class="st11" d="M197.78,113.7c0.03,1.13,0.05,2.25,0.08,3.38c-0.29,0.26-0.59,0.26-0.88-0.01c0.26-2.29-0.93-2.98-3-2.8
		c-0.81,0.07-1.63-0.01-2.44-0.06c-1.05-0.06-1.45,0.42-1.44,1.46c0.04,2.28,0.01,4.56,0.01,6.84c0.65,1.14,0.4,2.28,0,3.42
		c-0.08,1.66-0.15,3.32,0.44,4.92l0,0c2.64,1.02,3.58,0.72,4.65-1.63c0.89,1.57,0.34,3.01,0.16,4.66c-1.47-0.85-2.65-2.42-4.41-1.09
		c0.09,1.33,0.39,2.68-0.33,3.95c-0.02,1.96-0.05,3.93-0.07,5.89c0.98,1.41,0.89,2.86,0.21,4.35c-0.53,0.49-1.08,0.52-1.65,0.08
		c0.47-6.36,0.4-12.71,0.02-19.07c-0.23-3.83-0.11-7.68-0.01-11.52c0.04-1.41-0.05-2.51-1.86-2.93c3.46-0.37,6.77-0.6,10.1-0.15
		C197.58,113.37,197.72,113.48,197.78,113.7z"/>
	<path class="st12" d="M178.72,146.43c0.01,0.36,0.02,0.71,0.04,1.07c0.14,0.1,0.18,0.19,0.12,0.27c-0.05,0.07-0.11,0.11-0.16,0.11
		c-0.32,0.19-0.63,0.37-0.95,0.56c-0.93,0.7-1.85,0.89-2.76-0.04c-3.19-1.34-2.66-4.41-3.07-6.94c-0.23-1.46,0.2-3.02,0.34-4.53
		c0.04-4.94,0.06-9.88,0.12-14.82c0.01-0.86-0.29-1.8,0.4-2.56c1,0.88,0.77,2.09,0.78,3.2c0.03,5.29,0.01,10.59,0.02,15.88
		c0,0.73-0.01,1.47,0.01,2.2C173.73,145.25,174.45,146.05,178.72,146.43z"/>
	<path class="st2" d="M197.78,113.7c-0.14-0.11-0.28-0.22-0.42-0.33c-0.81-1.27-2.07-0.53-3.13-0.68c-1.46-0.21-3,0.31-4.36-0.6
		c3.39,1.03,7.79-1.98,10.35,2.97c-0.57-1.59-2.23-3.1,0.62-3.6c1.19,0.1-1.28,2.21,0.99,1.71c0.07,0.08,0.14,0.15,0.21,0.23
		c0.07,0.32-0.05,0.61-0.16,0.9c0.01,0.55,0.02,1.1,0.04,1.65c0.03,0.32,0.11,0.64,0.09,0.95c-0.05,0.73,1.6-0.01,0.97,1.14
		c-0.08,0.15-0.44,0.27-0.63,0.22c-0.72-0.19-1.05-0.69-1.01-1.44c0.03-0.56,0.01-1.12,0.01-2.17c-0.57,1.13-0.62,1.91-1.95,1.7
		c-1.42-0.23-0.89-1.04-1-1.69C198.32,114.21,198.2,113.87,197.78,113.7z"/>
	<path class="st2" d="M213.13,115.62c-0.02-0.44-0.04-0.88-0.06-1.32c-0.37-1.25-1.41-0.85-2.24-0.89
		c-2.99-0.15-6.01,0.27-8.99-0.24l0,0c0.13-0.58,0.22-1.83,0.4-1.64c1.03,1.07,1.95-1.16,2.98,0.13c0.95,1.19,3.18,0.64,4.29-0.54
		c0.69-0.74,2.13-0.79,2.25,0.4c0.17,1.58,1.1,1.02,1.86,1.16l0,0C213.49,113.66,215.16,114.95,213.13,115.62z"/>
	<path class="st2" d="M155.7,148.07c2.27,0,4.53,0.02,6.8,0c3.67-0.03,3.75-0.14,3.44-3.97c1.11,0.71-0.13,2.88,1.93,3.09
		c0.17,0.02,0.21,1.24-0.27,1.78c-0.57,0.65-1.34,0.65-2.01,0.26c-1.27-0.73-2.62-0.82-4.02-0.7
		C159.56,149.16,157.53,149.9,155.7,148.07z"/>
	<path class="st2" d="M190.55,147.03c-0.29-1.47-0.3-2.94,0-4.41c0.89,0.14,0.95-1.03,1.81-1.13c-0.59,2.07-0.33,3.94,1.13,5.54
		c-0.39,0.03-0.77,0.06-1.16,0.09C191.71,147.56,191.11,147.57,190.55,147.03z"/>
	<path class="st2" d="M155.7,148.07c1.87,1.32,3.93,0.17,5.88,0.47c0.23,0.52,0.25,0.78-0.48,0.98c-2.17,0.6-4.16-0.32-6.22-0.6
		c-0.53-0.07-0.88-0.57-0.76-1.06c0.11-0.48,0.68-0.28,1.07-0.33C155.35,147.7,155.53,147.89,155.7,148.07z"/>
	<path class="st2" d="M187.11,148.01c-0.38,0.27-0.77,0.53-1.15,0.8c0.3,0.93,1.64,0.69,2.02,2.05c-1.43-0.8-3.23-0.61-3.55-2.41
		c-0.15-0.85,2.86-1.88,4.15-1.5C188.32,147.64,187.35,147.32,187.11,148.01z"/>
	<path class="st2" d="M230.99,78.54c-0.4,0.98-1.35,1.26-2.1,1.39c-1.44,0.26,0.2-1.73-1.1-1.76c0.46-0.49,0.36-1.53,1.12-1.6
		C230.22,76.43,229.9,78.22,230.99,78.54z"/>
	<path class="st2" d="M156.66,159.77c-2.44,0-4.89,0-7.33,0C151.78,158.3,154.22,158.29,156.66,159.77z"/>
	<path class="st13" d="M187.11,148.01c-0.28-0.82-0.28-0.82,1.47-1.05c0.18,0.03,0.35,0.05,0.53,0.08c0.48,0,0.96-0.01,1.44-0.01
		c0.59,0.03,1.19,0.06,1.78,0.09c0.35,1.1-0.45,1-1.08,1C189.87,148.11,188.49,148.05,187.11,148.01z"/>
	<path class="st2" d="M180.21,145.5c0.1-0.48,0.2-0.97,0.3-1.45c0.61-0.02,0.57-0.7,1.12-1.06c-0.05,1.19,0.37,2.15,0.87,3.2
		C181.76,145.68,180.79,146.34,180.21,145.5z"/>
	<path class="st2" d="M175,148.41c0.92,0.01,1.84,0.02,2.76,0.04c-0.69,1.93-1.84,1.91-3.17,0.68
		C174.36,148.91,174.72,148.57,175,148.41z"/>
	<path class="st2" d="M178.72,147.88c0.01-0.13,0.03-0.25,0.04-0.38c0.13-0.01,0.25-0.02,0.38-0.03c1.72,0.5,1.82,0.76,0.76,1.18
		c-0.65,0.26-0.48,1.33-1.36,1.07C178.01,149.05,178.65,148.49,178.72,147.88z"/>
	<path class="st2" d="M234.93,79.67c-1.17,0.09-1.9-0.31-2.43-1.07c-0.07-0.1,0.17-0.57,0.19-0.56
		C233.6,78.23,234.66,78.2,234.93,79.67z"/>
	<path class="st2" d="M158.71,141.13c0-2.12,0-4.24,0-6.36C159.49,136.89,159.49,139.01,158.71,141.13z"/>
	<path class="st2" d="M160.1,146.96c-2.71,0.16-1.25-1.78-1.45-2.88C160.37,144.43,159.18,146.22,160.1,146.96z"/>
	<path class="st2" d="M170.55,142.65c1.63,0.58,1.34,1.56,1.19,2.72C170.69,144.65,170.77,143.75,170.55,142.65z"/>
	<path class="st2" d="M213.61,112.68c1.02-0.98,1.02-0.98,1.8,1.22C214.42,113.97,214.36,112.77,213.61,112.68L213.61,112.68z"/>
	<path class="st2" d="M138.03,101.45c-0.13,0.77,1.18,2.02-0.16,2.19c-1.14,0.14-2.81,1.64-3.74-0.46
		c-0.55-1.25-1.75-0.26-2.48-0.81c-1.31-0.21,0.41-1.31-0.5-1.65c-1.35-4.27-1.57-8.75-0.72-12.98c0.6-2.99,3.9-1.12,5.96-1.52
		c1.35-0.26,2.26,0.51,2.25,1.91C138.58,92.57,139.26,97.06,138.03,101.45z"/>
	<path class="st6" d="M138.03,101.45c-0.52-0.18-1.17,0.08-1.73-0.66c2.32-0.28,1.85-2.01,1.87-3.47c0.03-2.93-0.02-5.85,0.02-8.78
		c0.02-1.33-0.51-1.82-1.86-1.9c-5.64-0.33-5.65-0.37-5.56,5.17c0.03,1.86,0.26,3.73,0.21,5.59c-0.04,1.64,0.15,3.06,1.66,4
		c-1.47,0.41-2.95,0.41-4.41-0.05l0.03,0.02c-0.77-1.78,1.11-0.85,1.48-1.46c0.21-2.29,0.43-4.58-0.44-6.79
		c-0.36-0.9,0.52-1.65,0.3-2.53c0.05-7.08,0.03-14.16,0.21-21.24c0.04-1.41-0.8-1.8-2.07-2.45c1.86-0.54,3.2-0.28,4.64-0.19
		c-0.27,1.17-1.46,0.54-1.74,1.32c-0.41,3.91-0.3,7.83-0.06,11.75c0.02,0.24,0.06,0.49,0.07,0.73c0.08,5.22,0.08,5.1,5.18,5.21
		c2.08,0.04,2.38-0.8,2.39-2.55c0.01-5.2,0.17-10.41,0.27-15.61c0.29-0.44,0.57-0.92,1.2-0.43c-0.05,0.3-0.11,0.6-0.16,0.9
		c-0.21,0.73-0.26,1.47-0.06,2.21c-0.24,3.22-0.02,6.45,0.09,9.67c0.22,6.17-0.09,12.34-0.19,18.5c-0.02,1.09,0.13,1.67,1.12,2
		c0.4,0.68,0.19,1.01-0.59,1.02C139.27,101.43,138.65,101.44,138.03,101.45z"/>
	<path class="st2" d="M149.65,84.29c-1.09-0.12-0.78-0.9-0.74-1.55c1.46-0.99,0.81-2.25,0.49-3.49c-0.13-0.52-0.32-1.26,0.25-1.56
		c0.74-0.39,0.5,0.92,1.29,0.85c1.24-1.78-0.9-3.83,0.42-6.07c0.5,1.45,0.83,2.58,1.57,3.57c0.79,1.05,0.37,2.36-0.69,3.24
		c-1.18,0.98-1.8,2.43-1.32,3.66C151.64,84.8,150.28,84.06,149.65,84.29z"/>
	<path class="st2" d="M140.48,100.4c-0.61,0-1.39,0.29-1.37-0.8c0.16-9.79-0.41-19.58,0.34-29.37c0.08,0.88-0.23,2.66,1.28-0.06
		c-0.03,1.78-0.27,2.9-1.2,3.78c0.17,5.06,0.84,10.09,0.25,15.18c-0.37,3.22,0.18,6.5-0.24,9.74
		C139.17,99.8,140.76,99.54,140.48,100.4z"/>
	<path class="st2" d="M139.56,98.88c-0.01-8.31-0.01-16.61-0.01-24.92c1,2.05,0.18,4.23,0.46,6.34c0.86,1.14,0.85,2.29,0,3.43
		c0,0.16,0,0.33,0,0.49c0.74,1.47,0.39,2.94,0,4.41C139.73,92.04,140.52,95.5,139.56,98.88z"/>
	<path class="st2" d="M151.42,67.94c0.93,0.02,1.87,0.04,2.8,0.06c-0.14,0.28-0.28,0.79-0.42,0.79c-3.88-0.03-3.71,2.6-3.52,5.27
		c0.03,0.39-0.04,0.8-0.11,1.19c-0.02,0.11-0.21,0.19-0.33,0.28C148.5,72.25,149.14,69.2,151.42,67.94z"/>
	<path class="st2" d="M147.79,90.6c0.52,2.75,0.22,5.54,0.3,8.3c0.04,1.18-0.62,1.58-1.72,1.43c0.62-1.57,0.49-3.21,0.48-4.84
		c-0.63-1.31-0.75-2.62,0.01-3.92C147.17,91.25,147.48,90.93,147.79,90.6z"/>
	<path class="st2" d="M107.11,113.14c0.33-0.02,0.66-0.05,0.99-0.07c1.43,0.43,3.08-0.54,4.39,0.67c-1.57-0.15-3.14-0.37-4.91,0.08
		c1.95,0.39,1.9,1.71,1.79,3.1c-0.2,2.72,0.3,5.47-0.24,8.19c-0.03-2.5-0.06-5-0.07-7.5c0-1.37,0.24-2.79-1.72-3.17
		C106.77,114.33,106.46,113.7,107.11,113.14z"/>
	<path class="st2" d="M112.1,115.03c-0.09,1.69-0.21,3.3,0.71,4.94c0.72,1.29-0.21,2.59-1.38,4.06
		C110.62,120.67,111.33,117.85,112.1,115.03L112.1,115.03z"/>
	<path class="st2" d="M155.21,68.01c1.54-0.23,0.45,1.53,1.55,1.82c0.78-0.78,0.17-1.88,0.41-2.79c0.16-0.16,0.33-0.33,0.49-0.49
		c1.83,1.1,0.95,2.54,0.5,3.93c-0.47,0.82-0.94,1.44-2.11,1.01c-1.12-0.41-0.78-1.27-0.84-2.02
		C155.17,68.99,155.21,68.5,155.21,68.01z"/>
	<path class="st2" d="M157.66,65.08c-1.02-0.66-2.18-0.45-3.29-0.51c-0.4-0.02-0.89-0.06-0.86-0.59c0.01-0.24,0.31-0.56,0.55-0.69
		C155.46,62.52,157.14,63.37,157.66,65.08L157.66,65.08z"/>
	<path class="st2" d="M129.74,99.92c-0.09,0.89-1.86,0.09-1.48,1.46c-0.62-0.05-0.94-1.12-1.64-0.64c-0.58,0.4,0.81,0.81,0.14,1.43
		c-0.92-0.19-1.78-0.87-1.68-1.66c0.13-1.07,1.31-0.49,2.03-0.57C127.97,99.85,128.86,99.92,129.74,99.92z"/>
	<path class="st2" d="M158.16,70.47c-0.22-1.3,0.48-2.72-0.5-3.93c0-0.49,0-0.98,0-1.47l0,0C159.73,67.23,159.89,68.89,158.16,70.47
		z"/>
	<path class="st2" d="M120.19,101.34c0.07-0.38,0.2-0.94-0.34-0.91c-1.57,0.06-1.61-0.85-1.42-1.98c0.84,0.13,1.85-0.36,2.23,1.07
		C120.9,100.37,121.22,100.94,120.19,101.34z"/>
	<path class="st2" d="M140,83.72c0-1.14,0-2.29,0-3.43c0.99-0.07,1.5,0.31,1.47,1.38C141.45,82.73,141.31,83.63,140,83.72z"/>
	<path class="st2" d="M140,88.63c0-1.47,0-2.94,0-4.41c0.38,0.08,0.77,0.16,1.15,0.24C140.64,85.81,141.51,87.55,140,88.63z"/>
	<path class="st2" d="M117.34,91.58c-0.1,2.78,0.49,5.59-0.42,8.32c-0.01-1.47-0.01-2.94-0.02-4.4
		C117.12,94.21,116.49,92.81,117.34,91.58z"/>
	<path class="st2" d="M128.22,101.36c1.47,0.02,2.94,0.03,4.41,0.05c-0.03,0.63-1.2,0.09-0.98,0.97c-0.09,0.59-0.91,1.14-0.91,0.8
		C130.69,101.27,128.74,102.34,128.22,101.36z"/>
	<path class="st2" d="M146.86,91.58c0,1.31,0,2.61-0.01,3.92C145.54,94.19,145.2,92.88,146.86,91.58z"/>
	<path class="st2" d="M133.36,117.05c0.05,0.14,0.11,0.29,0.15,0.44c0.15,0.62,0.79,1.25,0.16,1.85c-0.27,0.25-0.76-0.07-0.98-0.41
		c-0.56-0.89-0.08-1.44,0.69-1.86C133.37,117.08,133.36,117.05,133.36,117.05z"/>
	<path class="st2" d="M129.14,102.52c-1.02,0.35-1.73,1.93-3.3,0.86C126.93,102.67,128.03,102.56,129.14,102.52z"/>
	<path class="st2" d="M144.39,64.61c0.47-0.02,0.74,0.13,0.71,0.68c-0.02,0.44-0.06,0.79-0.63,0.76c-0.51-0.03-0.98-0.13-0.94-0.79
		C143.56,64.74,143.98,64.66,144.39,64.61z"/>
	<path class="st2" d="M147.35,66.48c-0.33,0.02-0.66,0.03-0.98,0.05c-0.01-0.24-0.02-0.49-0.02-0.73c-0.01-0.51-0.57-1.3,0.27-1.42
		c1.04-0.15,0.62,0.84,0.73,1.38C147.39,65.98,147.35,66.23,147.35,66.48z"/>
	<path class="st2" d="M147.77,87.17c0.01,0.82,0.01,1.63,0.02,2.45C145.27,88.82,146.8,87.99,147.77,87.17z"/>
	<path class="st2" d="M124.95,113.4c-0.02,0.2-0.04,0.4-0.06,0.6c-0.29-0.05-0.59-0.09-0.88-0.13c-0.38-0.73-1.07-0.23-1.78-0.44
		C123.24,112.35,124.07,112.19,124.95,113.4z"/>
	<path class="st2" d="M116.24,103.05c0.96-0.77,1.89-0.89,3.09,0C118.09,103.05,117.17,103.05,116.24,103.05z"/>
	<path class="st2" d="M154.72,81.27c0.06-0.58-0.21-1.44,0.94-1.04c0.37,0.13,0.95,0.17,0.83,0.64
		C156.2,82.04,155.32,81.17,154.72,81.27L154.72,81.27z"/>
	<path class="st2" d="M135.66,115.71c0.07,0.04,0.18,0.08,0.19,0.12c0.09,0.83,1.48,0.21,1.35,1.2c-0.03,0.19-0.47,0.47-0.7,0.47
		c-1.24-0.09-0.7-1.11-0.85-1.77L135.66,115.71z"/>
	<path class="st14" d="M130.58,79.78c-0.62-3.92-0.68-7.83,0.06-11.75C130.83,71.95,130.83,75.86,130.58,79.78z"/>
	<path class="st15" d="M139.68,67.12c-0.4,0.14-0.8,0.29-1.2,0.43c-0.47-0.22-0.94-0.43-1.83-0.84c1.69-0.46,2.93-0.23,4.29-0.14
		C140.59,67.33,140.08,67.07,139.68,67.12z"/>
	<path class="st2" d="M204.89,119.65c0.44,3.09,1.64,6.04,1.47,9.27c-0.09,1.74-1.11,1.28-1.85,1.48c-1.37,0.37-1.26-0.78-1.17-1.51
		c0.26-2.15-0.9-4.52,1.22-6.44C205.08,121.98,204.8,120.61,204.89,119.65z"/>
	<path class="st2" d="M190.62,136.72c0.04-1.32-0.62-2.7,0.33-3.95c0.8,0.05,1.77-0.35,0.94,1.26
		C191.45,134.87,191.82,136.15,190.62,136.72z"/>
	<path class="st2" d="M190.55,130.83c0-1,0-2.01,0-3.4C192.8,129,190.88,129.85,190.55,130.83L190.55,130.83z"/>
	<path class="st2" d="M206.12,115.65c0,1.59,0,3.18,0,4.77C205.62,118.84,205.72,117.25,206.12,115.65z"/>
	<path class="st2" d="M190.1,125.92c0-1.14,0-2.28,0-3.42C191.71,123.64,191,124.78,190.1,125.92z"/>
	<path class="st2" d="M196.98,117.07c0.29,0,0.58,0,0.88,0.01c0.33,0.09,0.97,0.04,0.54,0.63c-0.32,0.43-0.91,0.8-1.47,0.48
		C196.4,117.88,196.43,117.41,196.98,117.07z"/>
	<path class="st2" d="M201.83,113.17c3.09-0.01,6.19-0.03,9.28-0.01c0.83,0.01,1.93-0.3,1.95,1.14c-0.53-0.75-1.32-0.83-2.14-0.83
		c-2.41-0.01-4.82-0.02-7.23-0.04c-0.76-0.01-1.45,0.05-1.81,0.86C201.87,113.92,201.85,113.54,201.83,113.17z"/>
	<path class="st16" d="M92.28,118.12c0.33,0.86,0.65,1.73,0.98,2.59c1.09,1.14,0.99,2.73,1.57,4.06c0.15,0.7,0.31,1.39,0.52,2.07
		c0.1,0.31,0.13,0.64,0.3,0.93c0.36,0.14,0.37-0.2,0.4-0.36c0.66-3.68,2.25-7.11,2.9-10.8c0.14-0.76,0.22-1.42-0.14-2.11
		c-0.45-0.7-0.74-1.29,0.56-1.25c1.1,0.03,2.2-0.05,3.31-0.08c0.27,0.26,0.79,0.8,0.26,0.87c-1.88,0.26-1.88,1.66-2.24,2.99
		c-1.27,4.72-2.6,9.42-3.95,14.11c-0.27,0.96-0.39,1.89-0.38,2.89c0.02,3.59-0.03,7.19-0.04,10.78c0,1.15-0.32,2.47,1.55,2.86
		c-1.5,0.43-2.78,0.49-4.36-0.05c2.21-0.48,1.83-2.03,1.82-3.42c-0.03-4.08,0.61-8.31-0.25-12.22c-1.16-5.3-2.5-10.63-4.5-15.74
		c-0.45-1.16-0.68-2.37-2.98-2.08c1.93-1.27,3.41-0.53,4.68-0.98c0.25,0.32,0.59,0.63,0.08,1.01
		C91.54,115.49,92.81,116.83,92.28,118.12z"/>
	<path class="st2" d="M178.72,146.43c-2.78,1.59-4.59,0.81-5.4-2.26c-0.28-1.04-0.31-2.08-0.31-3.14
		c-0.06-7.16-0.13-14.32-0.21-21.49c0.32-3.38,1.68-5.45,3.53-5.4c1.87,0.05,3.76,2.63,3.78,5.61c0.06,7.4,0.48,14.8-0.32,22.19
		C179.63,143.52,179.08,144.94,178.72,146.43z"/>
	<path class="st2" d="M98.82,114.51c1.35,0.18,1.11,0.97,0.85,1.94c-1.22,4.47-2.38,8.96-3.62,13.66c-1.01-0.94-1.27-2-1.19-3.2
		c0.81-0.9,0.56-1.53-0.49-1.96c-0.81-1.3-1.08-2.74-1.11-4.24c0.16-0.17,0.34-0.5,0.49-0.49C97.91,120.49,98.37,117.5,98.82,114.51
		z"/>
	<path class="st2" d="M117.37,70.47c-0.01,3.1-0.03,6.21-0.04,9.31c-0.81-1.47-0.71-3.23-0.66-4.7c0.06-1.8,0.44-3.31-1.42-4.39
		c-0.36-0.21-0.29-0.74-0.01-1.09c0.42-0.54,0.67-0.12,0.9,0.21C116.43,70.26,116.85,70.45,117.37,70.47z"/>
	<path class="st2" d="M92.28,118.12c0.07-1.3-2.19-2.67,0.1-3.91C93.24,115.54,93.44,116.84,92.28,118.12z"/>
	<path class="st2" d="M94.38,124.95c0.58,0.36,1.62-0.38,1.87,0.88c0.28,1.42-1.51-0.02-1.38,1.08
		C94.7,126.25,94.54,125.6,94.38,124.95z"/>
</g>
</svg>
