<?xml version="1.0" encoding="utf-8"?>
<!-- Generator: Adobe Illustrator 23.1.0, SVG Export Plug-In . SVG Version: 6.00 Build 0)  -->
<svg version="1.1" id="Layer_1" xmlns="http://www.w3.org/2000/svg" xmlns:xlink="http://www.w3.org/1999/xlink" x="0px" y="0px"
	 viewBox="0 0 270.76 271.17" style="enable-background:new 0 0 270.76 271.17;" xml:space="preserve">
<style type="text/css">
	.st0{fill:#010101;}
	.st1{fill:#646464;}
	.st2{fill:#525252;}
	.st3{fill:#393939;}
	.st4{fill:#FCFCFC;}
	.st5{fill:#FAFAFA;}
	.st6{fill:#787878;}
	.st7{fill:#BEBFC3;}
	.st8{fill:#E1E2E4;}
	.st9{fill:#919191;}
	.st10{fill:#A4A4A4;}
	.st11{fill:#818181;}
	.st12{fill:#999999;}
	.st13{fill:#888888;}
	.st14{fill:#7C7C7C;}
</style>
<g>
	<path class="st0" d="M206.25,195.8c-0.89-2.87-1.93-5.69-2.83-8.55c-0.17-0.55-0.82-1.16-0.14-1.81c-0.18-0.56-0.36-1.13-0.54-1.69
		c-0.51-0.18-0.96-0.37-0.34-0.95c-0.9-2.77-1.81-5.54-2.71-8.31c-0.52-0.16-0.98-0.34-0.36-0.94c-0.17-0.57-0.35-1.14-0.52-1.71
		c-0.52-0.16-0.99-0.34-0.35-0.93c-0.18-0.57-0.35-1.14-0.53-1.71c-0.52-0.16-0.99-0.34-0.35-0.94c-1.78-5.53-3.55-11.05-5.33-16.58
		c-1.49,1.45-3.34,0.41-5,0.74c-2.32,0.46-3.39-0.54-4.29-2.73c-5.04-12.26-10.28-24.44-15.45-36.65c-0.25-0.59-0.54-1.17-0.82-1.76
		c-0.62,0.15-0.4,0.59-0.4,0.88c0,11.3,0.01,22.6,0.02,33.9c0,0.51,0.02,1.03,0.04,1.54c0.14,3.5,0.34,3.92,3.74,3.83
		c2.42-0.07,2.88,0.9,2.59,2.92c-0.24,1.66,0.63,3.52-1.11,4.91c-0.74,0.59-1.39,0.93-2.34,0.93c-6.16-0.03-12.33,0-18.49-0.03
		c-1.85-0.01-3.31-1.45-3.34-3.27c-0.03-1.61-0.49-3.49,0.18-4.76c0.71-1.36,2.8-0.59,4.25-0.73c2.32-0.22,3.09-1.3,3.08-3.54
		c-0.05-16.58,0-33.16-0.05-49.74c-0.01-2.94-0.29-3.1-3.33-3.41c-4.15-0.42-4.15-0.42-4.15-4.57c0-3.21,1.05-4.23,4.33-4.23
		c6.02-0.01,12.03-0.03,18.05-0.04c0.21-0.76-0.08-1.43-0.32-2.13c-3.12-9.03-5.81-18.2-9.25-27.12c-0.18-0.46-0.1-1.01-0.15-1.51
		c-1.43-0.68-1.15-2.23-1.66-3.37c-0.95-2.13-0.82-5.11-2.57-6.39c-1.76-1.28-4.54-0.39-6.88-0.39
		c-39.76-0.02-79.53-0.01-119.29-0.03c-0.72,0-1.49,0.18-2.2-0.01c-0.73,0.14-1.46,0.32-2.18,0.58c-3.1,1.12-4.39,4.67-5.02,7.61
		c-0.38,1.78-0.76,3.59-1.09,5.43c0.04,42.33,0.04,84.67,0.04,127c0.13,0.27,0.2,0.59,0.2,0.96c-0.01,1.78-0.15,3.57-0.2,5.36
		c0,0.83,0,1.67,0,2.5c0.01,0.34,0.03,0.69,0.06,1.03c0.17,2.12,0.87,3.81,2.96,4.6c0.41,0.16,0.84,0.29,1.27,0.41
		c25.48-0.01,50.96-0.09,76.44,0.1c4.57,0.03,9.16,0.3,13.74,0.36c0.31,0,0.57,0.06,0.68,0.39c14.5,0.01,28.99,0.02,43.49,0.06
		c0.68,0,1.24-0.3,1.86-0.41c15.04-0.01,30.07-0.02,45.11-0.03c0.95,0,1.9-0.04,2.86-0.06C207.88,198.96,206.77,197.46,206.25,195.8
		z M65.44,145.9c0.23,5.65-0.12,5.19,5.36,5.58c1.82,0.13,2.53,0.59,2.2,2.38c-0.32,1.72,0.75,3.65-0.89,5.2
		c-0.8,0.76-1.56,1.17-2.69,1.15c-4.55-0.06-9.1-0.02-13.65-0.02c-4.4,0-8.81,0.01-13.21-0.01c-2.19-0.01-3.53-1.33-3.55-3.48
		c-0.01-1.54-0.48-3.35,0.17-4.55c0.74-1.38,2.78-0.61,4.22-0.74c2.35-0.2,3.11-1.41,3.11-3.54c-0.01-16.58,0.02-33.17-0.03-49.75
		c-0.01-2.84-0.41-3.1-3.38-3.4C39,94.31,39,94.31,39,90.13c0-3.13,1.05-4.2,4.1-4.2c8.66,0,17.32,0,25.98,0
		c2.68,0,3.93,1.17,3.89,3.76c-0.02,1.53,0.66,3.5-0.31,4.45c-0.82,0.8-2.77,0.51-4.22,0.61c-1.89,0.12-2.98,0.92-2.94,2.96
		c0.03,1.25-0.08,2.49-0.08,3.74c-0.01,14.53,0,29.06,0,43.59C65.43,145.31,65.42,145.61,65.44,145.9z M145.13,101.59
		c-0.01,2.3-1.33,3.62-3.62,3.64c-2.05,0.02-4.11-0.05-6.16,0.03c-1.06,0.04-1.41-0.34-1.43-1.37c-0.06-2.2-0.2-4.39-0.32-6.59
		c-0.07-1.31-0.77-2.01-2.08-2.03c-3.59-0.05-7.19-0.07-10.78-0.15c-1.36-0.03-1.06,0.9-1.06,1.65c-0.01,3.96-0.01,7.92-0.01,11.88
		c0,11.37,0,22.74,0,34.11c0,0.29-0.02,0.59,0,0.88c0.68,9.01-0.92,7.05,7.4,7.89c1,0.1,1.55,0.32,1.36,1.38
		c-0.38,2.07,0.92,4.39-0.99,6.25c-0.74,0.72-1.48,1.04-2.51,1.04c-9.76-0.03-19.52-0.01-29.27-0.02c-2.25,0-3.6-1.39-3.6-3.69
		c0-1.53-0.42-3.38,0.28-4.5c0.7-1.12,2.72-0.29,4.13-0.62c0.64-0.15,1.3-0.23,1.96-0.28c1.46-0.11,2.24-0.8,2.25-2.34
		c0.01-1.61,0.17-3.22,0.17-4.84c0.01-15.55-0.02-31.1,0.05-46.66c0.01-1.67-0.34-2.28-2.12-2.17c-3.07,0.18-6.16,0.11-9.24,0.13
		c-1.66,0.01-2.6,0.68-2.64,2.46c-0.04,1.83-0.32,3.66-0.26,5.49c0.06,1.57-0.29,2.27-2.03,2.11c-1.82-0.17-3.67-0.03-5.5-0.04
		c-2.43-0.01-3.7-1.3-3.7-3.78c-0.01-3.89-0.01-7.78,0-11.66c0-2.66,1.2-3.87,3.81-3.87c10.35,0,20.69,0,31.04,0
		c10.35,0,20.69,0,31.04,0c2.64,0,3.86,1.19,3.86,3.79C145.13,93.67,145.14,97.63,145.13,101.59z"/>
	<path class="st1" d="M231.47,44.55c5.43,0,10.86,0,16.29,0c0.02,0.65,0.47,0.73,0.99,0.9c4.44,1.46,6.74,4.69,7.44,9.19
		c-0.03,0.58-0.09,1.17-0.09,1.75c0,30.11,0.01,60.23,0.02,90.34c0,0.88-0.05,1.75-0.08,2.63c-0.65,0.09-0.81,0.53-0.79,1.1
		c0.07,2.27-0.32,4.52-0.39,6.76c-0.16,5.84-0.64,11.64-1.87,17.35c-0.64,2.96-1.98,5.52-5.21,6.47c-0.04-1.48-0.08-2.95-0.12-4.43
		c0.04-15.7,0.08-31.4,0.09-47.1c0-0.72-0.24-1.44-0.36-2.16c0.57-3.52,0.28-7.06,0.39-10.59c1.17-0.23,1.14-1.29,1.25-2.06
		c1.02-7.04,2.03-14.07,2.35-21.21c0.12-2.61,0.17-5.24,0.41-7.85c0.59-6.33,0.84-12.69-0.16-18.97c-0.42-2.67-0.89-5.69-3.84-7.18
		c-0.01-0.51-0.03-1.02-0.04-1.53c-0.04-2.87-0.04-2.88-2.93-2.88c-2.98,0-5.97,0.02-8.95,0.03c-2.94,0-5.87,0.01-8.81,0.01
		c-2.51-0.04-5.01-0.07-7.52-0.11c-0.47-2.79,0-5.12,2.86-6.52c2.11-1.03,4.27-1.81,6.58-2.22
		C230.02,46.1,231.52,46.38,231.47,44.55z"/>
	<path class="st2" d="M231.47,44.55c0.05,1.82-1.44,1.55-2.48,1.73c-2.31,0.41-4.47,1.19-6.58,2.22c-2.86,1.4-3.32,3.73-2.86,6.52
		c-2.92,0.04-5.85,0.07-8.77,0.1c-5.58,0.01-11.15,0.01-16.73,0.02c-2.95-0.04-5.9-0.08-8.85-0.12c-0.48-4.06,1.17-7.02,4.65-9.03
		c0.59-0.34,1.14-0.67,1.11-1.46C204.46,44.55,217.96,44.55,231.47,44.55z"/>
	<path class="st3" d="M30.1,44.55c-0.31,0.2-0.7,0.33-1.17,0.34c-0.45,0.01-0.89,0.02-1.34,0.03c-0.04,0.01-0.08,0.02-0.12,0.02
		c0.71,0.19,1.48,0.01,2.2,0.01c39.76,0.02,79.53,0.01,119.29,0.03c2.33,0,5.12-0.9,6.88,0.39c1.75,1.28,1.63,4.25,2.57,6.39
		c0.5,1.14,0.23,2.68,1.66,3.37l9.76,0.05c2.94,0,5.87-0.01,8.81-0.01c2.19-0.04,4.38-0.07,6.57-0.11
		c-0.48-4.06,1.17-7.02,4.65-9.03c0.59-0.34,1.14-0.67,1.11-1.46H30.1z"/>
	<path class="st4" d="M192.24,151.7c-1.49,1.45-3.34,0.41-5,0.74c-2.32,0.46-3.39-0.54-4.29-2.73
		c-5.04-12.26-10.28-24.44-15.45-36.65c-0.25-0.59-0.54-1.17-0.82-1.76c-0.62,0.15-0.4,0.59-0.4,0.88c0,11.3,0.01,22.6,0.02,33.9
		c0,0.51,0.02,1.03,0.04,1.54c0.14,3.5,0.34,3.92,3.74,3.83c2.42-0.07,2.88,0.9,2.59,2.92c-0.24,1.66,0.63,3.52-1.11,4.91
		c-0.74,0.59-1.39,0.93-2.34,0.93c-6.16-0.03-12.33,0-18.49-0.03c-1.85-0.01-3.31-1.45-3.34-3.27c-0.03-1.61-0.49-3.49,0.18-4.76
		c0.71-1.36,2.8-0.59,4.25-0.73c2.32-0.22,3.09-1.3,3.08-3.54c-0.05-16.58,0-33.16-0.05-49.74c-0.01-2.94-0.29-3.1-3.33-3.41
		c-4.15-0.42-4.15-0.42-4.15-4.57c0-3.21,1.05-4.23,4.33-4.23c6.02-0.01,12.03-0.03,18.05-0.04c0.44,0.02,0.89,0.11,1.31,0.04
		c2.41-0.45,3.57,0.56,4.51,2.84c4.02,9.82,8.28,19.55,12.46,29.31c1.37,3.21,2.77,6.41,4.37,10.09c1.95-4.56,3.7-8.64,5.45-12.71
		c1.7-3.95,3.4-7.89,5.1-11.84c2.5-5.13,4.8-10.36,6.81-15.7c0.57-1.5,1.25-2.16,2.76-2.08c5.28,0,10.57,0,15.85,0
		c1.74,0.05,3.47,0.11,5.21,0.16c2.64,1.99,1.66,4.86,1.82,7.46c0.06,0.98-0.84,0.83-1.33,1.17c-1.53,0.03-3.07-0.03-4.57,0.38
		c-0.75,0.21-1.48,0.45-1.48,1.35c-0.01,2.54-0.71,5.07-0.14,7.63c-0.28,13.86-0.43,27.71-0.06,41.57c0.16,6.08,0.31,6.12,6.72,5.95
		c1.24,1.3,1.2,5.56-0.08,7.7c-1.47,1.58-3.46,0.78-5.2,1.11c-2.94,0-5.87,0-8.81,0c-3.96,0-7.93,0-11.89,0
		c-0.87-0.05-1.8,0.08-2.58-0.2c-1.08-0.4-2.32-1.26-2.21-2.41c0.2-2.06-1.21-4.39,0.82-6.2c0.37,0.02,0.73,0.05,1.1,0.05
		c4.03-0.08,4.24-0.21,4.28-4.2c0.1-8.8,0.13-17.59,0.17-26.39c0.01-1.24-0.11-2.48-0.17-3.72c0.33-1.35,0.32-2.68-0.07-4.71
		c-0.89,2.12-1.52,3.62-2.15,5.12c-3.12,6.38-6.17,12.79-8.88,19.36C196.45,141.81,193.98,146.59,192.24,151.7z"/>
	<path class="st5" d="M110.23,85.92c10.35,0,20.69,0,31.04,0c2.64,0,3.86,1.19,3.86,3.79c0.01,3.96,0.01,7.92,0,11.88
		c-0.01,2.3-1.33,3.62-3.62,3.64c-2.05,0.02-4.11-0.05-6.16,0.03c-1.06,0.04-1.41-0.34-1.43-1.37c-0.06-2.2-0.2-4.39-0.32-6.59
		c-0.07-1.31-0.77-2.01-2.08-2.03c-3.59-0.05-7.19-0.07-10.78-0.15c-1.36-0.03-1.06,0.9-1.06,1.65c-0.01,3.96-0.01,7.92-0.01,11.88
		c0,11.37,0,22.74,0,34.11c0,0.29-0.02,0.59,0,0.88c0.68,9.01-0.92,7.05,7.4,7.89c1,0.1,1.55,0.32,1.36,1.38
		c-0.38,2.07,0.92,4.39-0.99,6.25c-0.74,0.72-1.48,1.04-2.51,1.04c-9.76-0.03-19.52-0.01-29.27-0.02c-2.25,0-3.6-1.39-3.6-3.69
		c0-1.53-0.42-3.38,0.28-4.5c0.7-1.12,2.72-0.29,4.13-0.62c0.64-0.15,1.3-0.23,1.96-0.28c1.46-0.11,2.24-0.8,2.25-2.34
		c0.01-1.61,0.17-3.22,0.17-4.84c0.01-15.55-0.02-31.1,0.05-46.66c0.01-1.67-0.34-2.28-2.12-2.17c-3.07,0.18-6.16,0.11-9.24,0.13
		c-1.66,0.01-2.6,0.68-2.64,2.46c-0.04,1.83-0.32,3.66-0.26,5.49c0.06,1.57-0.29,2.27-2.03,2.11c-1.82-0.17-3.67-0.03-5.5-0.04
		c-2.43-0.01-3.7-1.3-3.7-3.78c-0.01-3.89-0.01-7.78,0-11.66c0-2.66,1.2-3.87,3.81-3.87C89.54,85.92,99.88,85.92,110.23,85.92z"/>
	<path class="st4" d="M55.77,160.19c-4.4,0-8.81,0.01-13.21-0.01c-2.19-0.01-3.53-1.33-3.55-3.48c-0.01-1.54-0.48-3.35,0.17-4.55
		c0.74-1.38,2.78-0.61,4.22-0.74c2.35-0.2,3.11-1.41,3.11-3.54c-0.01-16.58,0.02-33.17-0.03-49.75c-0.01-2.84-0.41-3.1-3.38-3.4
		C39,94.31,39,94.31,39,90.13c0-3.13,1.05-4.2,4.1-4.2c8.66,0,17.32,0,25.98,0c2.68,0,3.93,1.17,3.89,3.76
		c-0.02,1.53,0.66,3.5-0.31,4.45c-0.82,0.8-2.77,0.51-4.22,0.61c-1.89,0.12-2.98,0.92-2.94,2.96c0.03,1.25-0.08,2.49-0.08,3.74
		c-0.01,14.53,0,29.06,0,43.59c0,0.29,0,0.59,0.01,0.88c0.23,5.65-0.12,5.19,5.36,5.58c1.82,0.13,2.53,0.59,2.2,2.38
		c-0.32,1.72,0.75,3.65-0.89,5.2c-0.8,0.75-1.56,1.17-2.69,1.15C64.87,160.15,60.32,160.19,55.77,160.19z"/>
	<path class="st6" d="M197.86,115.44c-1.75,4.08-3.49,8.15-5.45,12.71c-1.59-3.68-2.99-6.88-4.37-10.09
		c-4.18-9.76-8.43-19.48-12.46-29.31c-0.94-2.29-2.1-3.29-4.51-2.84c-0.42,0.08-0.87-0.02-1.31-0.04c0.21-0.76-0.08-1.43-0.32-2.13
		c-3.12-9.03-5.81-18.2-9.25-27.12c-0.18-0.46-0.1-1.01-0.15-1.51c3.25,0.02,6.51,0.03,9.76,0.05c-0.12,1.72,0.56,3.24,1.67,4.39
		c2.9,3,4.99,6.74,8.06,9.5c3.21,2.88,4.36,6.62,5.62,10.41c1.78,5.32,3.52,10.66,5.26,16c1.67,5.12,3.19,10.3,5.03,15.36
		C196.04,112.41,195.71,114.63,197.86,115.44z"/>
	<path class="st6" d="M192.24,151.7c1.74-5.11,4.2-9.89,6.63-14.68c0.87-0.1,1.39,0.32,1.64,1.12c1.42,4.44,3.25,8.75,4.09,13.37
		c-2.03,1.81-0.63,4.14-0.82,6.2c-0.11,1.15,1.13,2.01,2.21,2.41c0.78,0.29,1.71,0.15,2.58,0.2c0.26,2.91,1.18,5.65,2.18,8.38
		c0.42,1.14,1.28,2.2,1.13,3.47c-0.32,2.66-0.89,5.3-1.21,7.94c-0.41,3.48-1.51,6.94-0.77,10.52c-4.49,0.28-4.48,0.28-5.94-3.83
		c-0.17-0.47-0.16-1.04-0.67-1.34c-0.18-0.56-0.36-1.13-0.54-1.69c0.12-0.4,0.05-0.73-0.34-0.95c-0.9-2.77-1.81-5.54-2.71-8.31
		c0.09-0.39,0.04-0.73-0.36-0.94c-0.17-0.57-0.35-1.14-0.52-1.71c0.09-0.39,0.04-0.73-0.35-0.93c-0.18-0.57-0.35-1.14-0.53-1.71
		c0.09-0.39,0.05-0.73-0.35-0.94C195.79,162.75,194.02,157.22,192.24,151.7z"/>
	<path class="st7" d="M112.51,218.04c0.06-0.31,0.13-0.63,0.19-0.94c2.07,0.19,3.97-0.84,6.01-0.86c0.39,0,0.76-0.16,0.79-0.59
		c0.05-0.6-0.31-0.97-0.87-1.07c-1.86-0.33-3.57-1.26-5.48-1.34c0.05-4.03,0.62-8,1.2-11.98c14.5,0.01,28.99,0.02,43.49,0.06
		c0.68,0,1.24-0.3,1.86-0.41c0.18,4.22,1,8.4,0.95,12.64c-1.53,0.09-2.97,0.57-4.42,1c-0.53,0.16-0.92,0.5-0.87,1.08
		c0.05,0.55,0.55,0.55,0.98,0.63c1.56,0.28,3.11,0.58,4.66,0.88c0.74,0.62,0.29,1.47,0.43,2.2c-0.58-0.4-0.77-1.22-1.66-1.3
		c-2.6-0.25-5.19-0.82-7.79-0.84c-10.16-0.1-20.33-0.04-30.49-0.04c-0.87,0-1.77,0.26-2.59,0.24
		C116.74,217.36,114.72,218.6,112.51,218.04z M136.88,212.75c5.13,0,10.26,0.04,15.39-0.02c1.51-0.02,3.36-0.13,3.79-1.81
		c0.38-1.48,0.36-3.19-0.25-4.76c-0.25-0.65-0.47-1.23-1.27-1.32c-1.37-0.15-2.75-0.44-4.12-0.45c-9.09-0.04-18.18,0-27.26-0.05
		c-1.27-0.01-2.51,0.2-3.67,0.54c-2.7,0.78-1.13,3.43-1.96,5.08c-0.41,0.81,0.02,1.58,0.78,2.07c0.24,0.15,0.54,0.22,0.82,0.29
		c1.06,0.27,2.12,0.47,3.24,0.46C127.21,212.73,132.05,212.76,136.88,212.75z"/>
	<path class="st3" d="M203.28,185.45c0.51,0.3,0.51,0.87,0.67,1.34c1.46,4.11,1.46,4.11,5.94,3.83c3.96,0.01,7.93,0.01,11.89,0.02
		c5.43,0,10.86,0.01,16.3,0.01c0.29,0.04,0.57,0.07,0.86,0.11c0.37,1.29,1.18,2.58,2.2,3.09c3.02,1.52,3.43,4.12,3.53,6.98
		c-12.33,0-24.66,0-37-0.01c0.2-1.86-0.91-3.36-1.43-5.02c-0.89-2.87-1.93-5.69-2.83-8.55C203.24,186.7,202.6,186.1,203.28,185.45z"
		/>
	<path class="st3" d="M197.57,168.27c0.4,0.21,0.44,0.55,0.35,0.94C197.4,169.05,196.93,168.87,197.57,168.27z"/>
	<path class="st3" d="M198.45,170.92c0.4,0.21,0.44,0.54,0.35,0.93C198.29,171.69,197.81,171.51,198.45,170.92z"/>
	<path class="st3" d="M199.33,173.56c0.4,0.2,0.45,0.54,0.36,0.94C199.16,174.34,198.7,174.16,199.33,173.56z"/>
	<path class="st3" d="M202.4,182.8c0.39,0.22,0.46,0.55,0.34,0.95C202.24,183.58,201.79,183.38,202.4,182.8z"/>
	<path class="st2" d="M244.67,200.83c-0.11-2.86-0.51-5.46-3.53-6.98c-1.02-0.51-1.83-1.79-2.2-3.09c2.11-0.02,4.22-0.15,6.32-0.02
		c2.1,0.13,2.83-0.68,2.39-2.67c0.04-2.34,0.09-4.68,0.13-7.02c3.24-0.95,4.58-3.51,5.21-6.47c1.23-5.71,1.71-11.51,1.87-17.35
		c0.06-2.25,0.46-4.49,0.39-6.76c-0.02-0.57,0.14-1.02,0.79-1.1c0.02,13.59,0.04,27.17,0.06,40.76c0,0.8,0.06,1.6,0.09,2.4
		C255.19,198.29,250.98,201.33,244.67,200.83z"/>
	<path class="st8" d="M112.51,218.04c2.2,0.56,4.23-0.67,6.41-0.63c0.82,0.02,1.72-0.24,2.59-0.24c10.16,0,20.33-0.06,30.49,0.04
		c2.6,0.03,5.19,0.59,7.79,0.84c0.89,0.09,1.08,0.9,1.66,1.3c0.58,1.55,0.96,3.19,2.2,4.41c-8.4,1.36-16.87,1.28-25.34,1.28
		c-4.25,0-8.51,0.22-12.74-0.06c-5.08-0.33-10.23,0.05-15.22-1.29C111.74,222.06,112.07,220.03,112.51,218.04z M137.02,222.86
		c4.91,0,9.83,0,14.74,0c2.13,0,4.2-0.47,6.24-1.03c0.66-0.18,1.65-0.54,1.56-1.57c-0.07-0.83-0.89-0.89-1.51-1.04
		c-1.49-0.35-2.96-0.74-4.52-0.74c-11,0.02-22,0.02-33.01,0c-1.56,0-3.03,0.39-4.52,0.73c-0.69,0.16-1.6,0.26-1.58,1.22
		c0.02,0.92,0.71,1.38,1.59,1.55c2.14,0.42,4.29,0.87,6.48,0.88C127.34,222.87,132.18,222.86,137.02,222.86z"/>
	<path class="st9" d="M150.88,231.76c-1.02-0.05-2.03-0.09-3.05-0.14c0.04-1.31-0.86-1.28-1.78-1.28c-2.78,0-5.56-0.04-8.34-0.01
		c-1.09,0.01-2.24-0.18-3.28,0.6c1.34,0.33,2.67,0.25,4,0.35c1.79,0.13,3.62-0.47,5.36,0.36c-3.37,0-6.74-0.01-10.12-0.01
		c-1.56-0.85-3.26-0.13-4.86-0.43c-0.05-1.01-0.84-0.75-1.44-0.87c-3.45-0.66-6.94-0.29-10.41-0.45c-0.11-0.95-0.85-0.77-1.48-0.86
		c-2.88-0.41-5.63-1.3-8.34-2.3c0.59-0.91,1.52-1.45,2.34-2.1c0.18,0.22,0.34,0.61,0.55,0.64c3.56,0.63,6.96,2.05,10.66,2.03
		c9.08-0.05,18.17-0.22,27.24,0.06c5.84,0.17,11.39-1.02,16.98-2.26c0.6,0.6,1.56,0.81,1.92,1.69c-4,1.3-8,2.45-12.29,2.32
		c-1.42-0.04-3.23,0.14-2.78,2.5C151.48,231.66,151.18,231.71,150.88,231.76z"/>
	<path class="st10" d="M164.92,225.09c-5.59,1.24-11.14,2.43-16.98,2.26c-9.07-0.27-18.16-0.11-27.24-0.06
		c-3.7,0.02-7.1-1.4-10.66-2.03c-0.21-0.04-0.37-0.42-0.55-0.64c0.29-0.31,0.57-0.62,0.86-0.94c4.99,1.35,10.15,0.97,15.22,1.29
		c4.23,0.27,8.49,0.06,12.74,0.06c8.47,0,16.94,0.09,25.34-1.28C164.07,224.2,164.49,224.65,164.92,225.09z"/>
	<path class="st11" d="M151.77,231.61c-0.46-2.36,1.36-2.54,2.78-2.5c4.29,0.13,8.29-1.02,12.29-2.32c1.19,0.82,2.41,1.63,1.25,3.32
		c-1.55-0.79-2.28-0.45-2.29,1.07c-0.57,0.01-1.14,0.02-1.71,0.03c0.07-0.93-0.35-1.32-1.28-1.29c-1.95,0.06-3.91-0.12-5.83,0.41
		c-0.57,0.16-1.18,0.11-1.24,0.9C154.46,231.81,153.12,231.75,151.77,231.61z"/>
	<path class="st10" d="M161.02,217.15c-1.55-0.3-3.1-0.6-4.66-0.88c-0.44-0.08-0.93-0.08-0.98-0.63c-0.06-0.59,0.33-0.92,0.87-1.08
		c1.45-0.44,2.89-0.91,4.42-1C161.19,214.71,160.98,215.94,161.02,217.15z"/>
	<path class="st1" d="M155.73,231.22c0.07-0.79,0.67-0.74,1.24-0.9c1.93-0.53,3.88-0.35,5.83-0.41c0.93-0.03,1.35,0.36,1.28,1.29
		C161.3,231.21,158.51,231.21,155.73,231.22z"/>
	<path class="st7" d="M165.79,231.18c0.02-1.53,0.74-1.87,2.29-1.07C167.78,231.45,166.74,231.22,165.79,231.18z"/>
	<path class="st11" d="M107.14,226.73c2.71,1,5.46,1.89,8.34,2.3c0.63,0.09,1.37-0.09,1.48,0.86c-1.01,0.04-2.01,0.07-3.02,0.11
		c-0.99-0.15-1.91-0.18-1.81,1.25c-0.44-0.01-0.89-0.02-1.33-0.03c-0.57-1.56-2.27-1.84-4.49-0.74
		C104.87,228.89,105,228.32,107.14,226.73z"/>
	<path class="st10" d="M113.15,213.24c1.92,0.09,3.63,1.01,5.48,1.34c0.56,0.1,0.92,0.48,0.87,1.07c-0.04,0.42-0.4,0.58-0.79,0.59
		c-2.04,0.02-3.94,1.04-6.01,0.86C112.85,215.81,113,214.52,113.15,213.24z"/>
	<path class="st1" d="M106.31,230.48c2.23-1.11,3.93-0.83,4.49,0.74C109.23,231.42,107.73,231.19,106.31,230.48z"/>
	<path class="st12" d="M234.07,94.62c0.48-0.34,1.38-0.19,1.33-1.17c-0.15-2.6,0.82-5.46-1.82-7.46c0.57-0.27,1-0.69,0.93-1.35
		c-0.34-3.24-0.54-6.52-1.11-9.72c-0.99-5.49-3.27-10.55-5.94-15.42c-0.8-1.46-1.06-2.84-0.4-4.37c2.94,0,5.87-0.01,8.81-0.01
		c-0.72,3.05-0.56,6.04,0.4,9.04c2.27,7.11,2.96,14.48,3.66,21.88c0.42,4.54,0.92,9.09,1.6,13.61c0.63,4.24,1.4,8.46,1.78,12.72
		c0.42,4.68,1.28,9.22,2.91,13.61c0.22,0.59,0.28,1.34,1.17,1.37c0.13,0.72,0.36,1.44,0.36,2.16c-0.01,15.7-0.05,31.4-0.09,47.1
		c-1.34,0.25-1.96-0.5-2.5-1.6c-3.15-6.36-3.17-13.4-4.37-20.17c-1.11-6.22-1.63-12.54-2.37-18.82c-0.59-4.98-1.1-9.96-1.68-14.94
		c-0.4-3.47-0.64-6.96-1.03-10.42C235.12,105.33,234.36,100,234.07,94.62z"/>
	<path class="st9" d="M234.07,94.62c0.29,5.38,1.05,10.7,1.65,16.05c0.39,3.46,0.62,6.95,1.03,10.42c0.58,4.98,1.09,9.97,1.68,14.94
		c0.74,6.28,1.26,12.6,2.37,18.82c1.21,6.76,1.23,13.81,4.37,20.17c0.54,1.1,1.16,1.85,2.5,1.6c0.04,1.48,0.08,2.95,0.12,4.43
		c-0.04,2.34-0.09,4.68-0.13,7.02c-2.06-0.04-3.7-1.11-4.83-2.61c-3.83-5.05-5.86-10.76-6.62-17.1c-0.36-3.04-0.22-6.28-1.73-9.15
		c1.28-2.15,1.32-6.41,0.08-7.7c0.04-3.4-0.55-6.76-0.8-10.13c-0.44-5.87-1.41-11.67-1.95-17.53c-0.43-4.62-1.5-9.15-1.77-13.81
		c-0.12-2.03-0.23-4.47-2.14-6.05c-0.57-2.55,0.13-5.08,0.14-7.63c0-0.9,0.73-1.15,1.48-1.35
		C231.01,94.59,232.54,94.65,234.07,94.62z"/>
	<path class="st10" d="M247.39,127.36c-0.89-0.03-0.95-0.78-1.17-1.37c-1.64-4.39-2.49-8.93-2.91-13.61
		c-0.38-4.26-1.15-8.48-1.78-12.72c-0.67-4.52-1.17-9.08-1.6-13.61c-0.69-7.4-1.39-14.76-3.66-21.88c-0.96-3-1.12-5.99-0.4-9.04
		c2.98-0.01,5.97-0.03,8.95-0.03c2.9,0,2.9,0.01,2.93,2.88c0.01,0.51,0.02,1.02,0.04,1.53c-0.01,19.09-0.01,38.18-0.02,57.26
		C247.67,120.3,247.96,123.85,247.39,127.36z"/>
	<path class="st9" d="M227.07,55.14c-0.66,1.53-0.4,2.91,0.4,4.37c2.67,4.87,4.94,9.92,5.94,15.42c0.58,3.2,0.78,6.47,1.11,9.72
		c0.07,0.66-0.37,1.08-0.93,1.35c-1.74-0.05-3.47-0.11-5.21-0.16c-0.16-2.33-0.63-4.64-1.08-6.89c-0.53-2.65-0.6-5.74-2.6-7.81
		c-3.22-3.33-6.75-6.36-10.16-9.51c-1.92-1.78-4.2-3.35-3.77-6.49c2.92-0.03,5.85-0.07,8.77-0.1
		C222.06,55.07,224.56,55.11,227.07,55.14z"/>
	<path class="st6" d="M247.78,116.77c0.01-19.09,0.01-38.17,0.02-57.26c2.95,1.49,3.42,4.51,3.84,7.18c1,6.28,0.75,12.64,0.16,18.97
		c-0.24,2.61-0.29,5.24-0.41,7.85c-0.32,7.13-1.33,14.17-2.35,21.21C248.92,115.48,248.95,116.54,247.78,116.77z"/>
	<path class="st11" d="M212.52,85.83c-1.51-0.08-2.2,0.58-2.76,2.08c-2.01,5.34-4.31,10.56-6.81,15.7
		c-0.57-0.31-0.76-0.87-0.95-1.42c-2.53-7.59-5.13-15.15-7.55-22.77c-1.18-3.71-2.53-7.36-5.5-9.9c-3.47-2.97-5.99-6.7-8.9-10.12
		c-1.02-1.2-1.62-2.6-1.43-4.24c2.19-0.04,4.38-0.07,6.57-0.11c2.95,0.04,5.9,0.08,8.85,0.12c-0.53,1.18-0.28,2.08,0.59,3.12
		c1.54,1.84,2.93,3.79,4.69,5.44c2.75,2.57,5.44,5.31,7.82,8.14C210.39,75.71,212.04,80.67,212.52,85.83z"/>
	<path class="st13" d="M212.52,85.83c-0.48-5.17-2.13-10.13-5.38-13.98c-2.38-2.83-5.07-5.56-7.82-8.14
		c-1.76-1.65-3.16-3.6-4.69-5.44c-0.87-1.04-1.12-1.94-0.59-3.12c5.58-0.01,11.15-0.01,16.73-0.02c-0.43,3.14,1.85,4.71,3.77,6.49
		c3.41,3.15,6.94,6.18,10.16,9.51c1.99,2.07,2.07,5.16,2.6,7.81c0.45,2.24,0.91,4.56,1.08,6.89
		C223.09,85.83,217.81,85.83,212.52,85.83z"/>
	<path class="st14" d="M178.63,55.15c-0.19,1.64,0.41,3.03,1.43,4.24c2.9,3.42,5.42,7.14,8.9,10.12c2.97,2.54,4.33,6.19,5.5,9.9
		c2.42,7.62,5.02,15.19,7.55,22.77c0.18,0.55,0.38,1.12,0.95,1.42c-1.7,3.95-3.4,7.89-5.1,11.84c-2.15-0.82-1.81-3.03-2.39-4.61
		c-1.84-5.06-3.36-10.24-5.03-15.36c-1.74-5.34-3.48-10.68-5.26-16c-1.27-3.78-2.42-7.52-5.62-10.41c-3.07-2.77-5.16-6.5-8.06-9.5
		c-1.11-1.15-1.79-2.67-1.67-4.39C172.76,55.16,175.69,55.16,178.63,55.15z"/>
	<path class="st7" d="M143.79,231.64c-1.74-0.83-3.57-0.23-5.36-0.36c-1.33-0.1-2.66-0.02-4-0.35c1.04-0.78,2.18-0.59,3.28-0.6
		c2.78-0.03,5.56,0.01,8.34,0.01c0.92,0,1.83-0.03,1.78,1.28C146.49,231.63,145.14,231.64,143.79,231.64z"/>
	<path class="st14" d="M128.81,231.2c1.61,0.3,3.3-0.42,4.86,0.43c-3.95,0.05-7.91,0.09-11.86,0.14c-0.85-0.05-1.7-0.11-2.55-0.16
		C122.42,230.86,125.64,231.45,128.81,231.2z"/>
	<path class="st7" d="M128.81,231.2c-3.18,0.25-6.39-0.34-9.55,0.4c-1.79,0.02-3.59,0.24-5.37-0.13c1.18-0.46-0.19-0.99,0.05-1.48
		c1.01-0.03,2.01-0.07,3.02-0.1c3.47,0.16,6.96-0.21,10.41,0.45C127.98,230.45,128.76,230.19,128.81,231.2z"/>
	<path class="st14" d="M221.79,190.64c-3.96-0.01-7.93-0.01-11.89-0.02c-0.74-3.57,0.36-7.04,0.77-10.52
		c0.31-2.64,0.89-5.28,1.21-7.94c0.15-1.27-0.71-2.33-1.13-3.47c-0.99-2.73-1.92-5.46-2.18-8.38c3.96,0,7.93,0,11.89,0
		c0.09,1.81-0.62,3.66,0.78,5.37c1.71,2.08,1.87,4.84,2.76,7.29c0.28,0.77,0.44,1.46,0.03,2.29c-0.69,1.4-1.47,2.83-1.76,4.33
		C221.57,183.24,220.53,186.9,221.79,190.64z"/>
	<path class="st11" d="M221.79,190.64c-1.25-3.74-0.22-7.4,0.49-11.04c0.29-1.5,1.07-2.93,1.76-4.33c0.41-0.83,0.25-1.52-0.03-2.29
		c-0.89-2.45-1.06-5.2-2.76-7.29c-1.4-1.71-0.69-3.56-0.78-5.37c2.94,0,5.87,0,8.81,0c0.51,3.81,0.74,7.69,1.6,11.42
		c0.97,4.19,2.91,8.09,4.38,12.13c0.84,2.32,2.57,4.25,2.83,6.79C232.65,190.65,227.22,190.64,221.79,190.64z"/>
	<path class="st14" d="M204.6,151.5c-0.84-4.62-2.67-8.93-4.09-13.37c-0.25-0.79-0.77-1.22-1.64-1.12
		c2.71-6.57,5.76-12.98,8.88-19.36c0.74-0.14,1.48-0.27,2.23-0.41c0.06,1.24,0.18,2.48,0.17,3.72c-0.04,8.8-0.07,17.59-0.17,26.39
		c-0.05,3.99-0.25,4.12-4.28,4.2C205.34,151.55,204.97,151.52,204.6,151.5z"/>
	<path class="st13" d="M227.88,103.98c1.91,1.58,2.03,4.02,2.14,6.05c0.27,4.67,1.34,9.2,1.77,13.81
		c0.54,5.86,1.51,11.66,1.95,17.53c0.25,3.37,0.84,6.73,0.8,10.13c-6.41,0.17-6.56,0.13-6.72-5.95
		C227.46,131.7,227.6,117.84,227.88,103.98z"/>
	<path class="st13" d="M238.08,190.65c-0.26-2.54-1.99-4.47-2.83-6.79c-1.47-4.04-3.42-7.95-4.38-12.13
		c-0.86-3.73-1.09-7.61-1.6-11.42c1.74-0.33,3.72,0.47,5.2-1.11c1.51,2.86,1.37,6.11,1.73,9.15c0.76,6.34,2.79,12.05,6.62,17.1
		c1.14,1.5,2.78,2.57,4.83,2.61c0.44,1.99-0.29,2.81-2.39,2.67c-2.1-0.13-4.21,0-6.32,0.02
		C238.65,190.73,238.37,190.69,238.08,190.65z"/>
	<path class="st13" d="M209.98,117.24c-0.74,0.14-1.48,0.27-2.23,0.41c0.63-1.5,1.26-3,2.15-5.12
		C210.3,114.56,210.31,115.89,209.98,117.24z"/>
	<path class="st8" d="M136.88,212.76c-4.84,0-9.67-0.02-14.51,0.02c-1.12,0.01-2.18-0.19-3.24-0.46c-0.28-0.07-0.58-0.13-0.82-0.29
		c-0.75-0.49-1.19-1.25-0.78-2.07c0.83-1.65-0.74-4.3,1.96-5.08c1.16-0.33,2.39-0.54,3.67-0.54c9.09,0.05,18.18,0.01,27.26,0.05
		c1.37,0.01,2.75,0.3,4.12,0.45c0.8,0.09,1.01,0.67,1.27,1.32c0.61,1.57,0.63,3.28,0.25,4.76c-0.43,1.69-2.29,1.8-3.79,1.81
		C147.14,212.79,142.01,212.75,136.88,212.76z"/>
	<path class="st5" d="M137.02,222.86c-4.84,0-9.68,0.01-14.52,0c-2.2-0.01-4.34-0.46-6.48-0.88c-0.87-0.17-1.57-0.63-1.59-1.55
		c-0.02-0.97,0.89-1.07,1.58-1.22c1.49-0.34,2.96-0.73,4.52-0.73c11,0.02,22,0.02,33.01,0c1.56,0,3.03,0.39,4.52,0.74
		c0.62,0.15,1.44,0.21,1.51,1.04c0.09,1.03-0.9,1.39-1.56,1.57c-2.03,0.56-4.1,1.03-6.24,1.03
		C146.85,222.86,141.93,222.86,137.02,222.86z"/>
</g>
</svg>
