<?xml version="1.0" encoding="utf-8"?>
<!-- Generator: Adobe Illustrator 23.1.0, SVG Export Plug-In . SVG Version: 6.00 Build 0)  -->
<svg version="1.1" id="Layer_1" xmlns="http://www.w3.org/2000/svg" xmlns:xlink="http://www.w3.org/1999/xlink" x="0px" y="0px"
	 viewBox="0 0 270.76 271.17" style="enable-background:new 0 0 270.76 271.17;" xml:space="preserve">
<style type="text/css">
	.st0{fill:#243769;}
	.st1{fill:#FDFDFD;}
	.st2{fill:#939CB3;}
	.st3{fill:#F8F9F9;}
	.st4{fill:#F4F5F7;}
	.st5{fill:#F2F3F5;}
	.st6{fill:#F8F8F8;}
</style>
<g>
	<path class="st0" d="M161.67,12.64c-6.25-1.43-12.66-2.64-19.19-2.25c-5.13,0-10.26,0-15.4,0C81.28,13.59,47.33,35.88,24.4,75.12
		c-9.32,15.95-14.46,33.46-15.22,52.08c-0.02,0.53,0.01,1.09-0.1,1.58c0.08,0.34,0.12,0.68,0.12,1.02c0.01,0.75,0.04,1.5,0.04,2.25
		c0.02,0.09,0.03,0.18,0.05,0.28c0.11,0.41,0.15,0.85,0.1,1.29c-0.15,1.44-0.19,2.88-0.19,4.32c0.07,0.31,0.12,0.63,0.14,0.97
		c0.12,2.23,0.57,4.41,0.34,6.65c-0.01,0.15-0.05,0.29-0.07,0.43c0.46,2.7-0.07,5.59,0.31,8.25c7.63,52.7,48.4,95.68,100.46,105.47
		c5.53,1.04,11.03,2.07,16.68,1.98c5.14,0,10.28,0,15.41,0c51.21-4.1,88.05-29.75,108.31-76.47
		C282.29,112.63,239.71,30.48,161.67,12.64z M96.71,148.58c-0.16,6.49-0.05,12.99-0.05,19.48c0,6.83-0.11,13.65,0.05,20.48
		c0.07,3.22-0.94,4.36-4.34,4.23c-7.31-0.28-14.64-0.25-21.96,0.02c-3.17,0.12-4.15-0.98-4.14-3.93c0.06-13.65,0.06-27.3,0-40.96
		c-0.01-2.71,0.91-3.83,3.8-3.77c7.49,0.17,14.99,0.21,22.47-0.01C96.02,144.02,96.78,145.5,96.71,148.58z M149.98,188.87
		c0.02,3.07-0.96,3.9-4.1,3.78c-7.31-0.29-14.65-0.3-21.96,0.07c-3.55,0.18-4.26-1.06-4.19-4.21c0.17-6.82,0.05-13.65,0.05-20.47
		c0-6.49,0.14-12.99-0.06-19.47c-0.1-3.11,0.59-4.54,4.07-4.43c7.48,0.22,14.98,0.17,22.47,0.02c2.86-0.06,3.74,0.99,3.72,3.78
		C149.89,161.57,149.88,175.22,149.98,188.87z M172.84,120.41c-0.5-6.28-4.03-10.1-9.74-10.82c-5.34-0.68-10.6,2.47-12.12,7.5
		c-1.32,4.35-1.3,8.9-0.98,13.37c0.27,3.77-0.76,5.36-4.87,5.18c-7.14-0.31-14.31-0.19-21.46-0.04c-3.06,0.07-4.05-1.03-3.95-4.07
		c0.15-4.3,0.4-8.65-0.62-12.92c-1.43-5.99-6.07-9.6-11.87-9.14c-5.71,0.45-9.78,4.37-10.29,10.32c-0.34,3.97-0.36,7.98-0.25,11.97
		c0.08,2.77-0.81,3.88-3.68,3.84c-7.82-0.13-15.64-0.05-23.46-0.04c-1.55,0-2.77-0.02-3.24-2.11C62.85,118.06,70.83,96.66,84,87.82
		c14.86-9.98,30.54-11.5,46.58-2.81c2.97,1.61,5.07,1.65,8.07,0.01c25.44-13.85,57.53,0.15,63.57,27.67
		c1.44,6.54,0.95,13.24,1.06,19.89c0.04,2.59-1.29,3.03-3.42,3c-3.99-0.07-7.99-0.02-12.8-0.02c-3.92-0.61-10.33,2.26-12.98-1.14
		C171.67,131.32,173.22,125.19,172.84,120.41z M203.29,189.44c0.01,2.62-1.01,3.35-3.63,3.27c-7.48-0.21-14.97-0.3-22.44,0.01
		c-3.22,0.13-4.11-0.9-4.05-3.87c0.12-6.82,0.04-13.64,0.04-20.46c0-6.65,0.11-13.31-0.05-19.96c-0.07-3.08,0.64-4.47,4.15-4.34
		c7.47,0.28,14.97,0.17,22.45,0.04c2.56-0.04,3.55,0.79,3.54,3.4C203.23,161.5,203.24,175.47,203.29,189.44z"/>
	<path class="st1" d="M142.49,261.7c51.21-4.1,88.05-29.75,108.31-76.47c31.49-72.6-11.09-154.75-89.13-172.59
		c-6.25-1.43-12.66-2.64-19.19-2.25c0.1-0.41,0.2-0.83,0.29-1.24c41.47,0,82.94,0.04,124.41-0.08c2.98-0.01,3.58,0.6,3.58,3.58
		c-0.1,82.27-0.1,164.54,0,246.81c0,2.98-0.6,3.59-3.58,3.58c-41.47-0.12-82.94-0.08-124.41-0.08
		C142.68,262.53,142.58,262.11,142.49,261.7z"/>
	<path class="st1" d="M127.09,10.38C81.28,13.59,47.33,35.88,24.4,75.12c-9.32,15.95-14.46,33.46-15.22,52.08
		c-0.04,1.11,0.26,2.42-1.31,2.84c0-39.05,0.04-78.11-0.08-117.16c-0.01-3.11,0.7-3.83,3.82-3.82C50,9.18,88.39,9.14,126.79,9.14
		C126.89,9.55,126.99,9.97,127.09,10.38z"/>
	<path class="st1" d="M7.87,142.04c3.05,3.63,1.48,8.19,2.06,12.21c7.63,52.7,48.4,95.68,100.46,105.47
		c5.53,1.04,11.03,2.07,16.68,1.98c-0.1,0.41-0.19,0.83-0.29,1.24c-38.39,0-76.78-0.04-115.17,0.08c-3.12,0.01-3.83-0.71-3.82-3.82
		C7.92,220.15,7.87,181.09,7.87,142.04z"/>
	<path class="st2" d="M126.79,262.94c0.1-0.41,0.19-0.83,0.29-1.24c5.14,0,10.28,0,15.41,0c0.09,0.41,0.19,0.83,0.28,1.24
		C137.44,262.94,132.12,262.94,126.79,262.94z"/>
	<path class="st3" d="M187.07,135.55c-3.92-0.61-10.33,2.26-12.98-1.14c-2.42-3.1-0.87-9.23-1.25-14c-0.5-6.28-4.03-10.1-9.74-10.82
		c-5.34-0.68-10.6,2.47-12.12,7.5c-1.32,4.35-1.3,8.9-0.98,13.37c0.27,3.77-0.76,5.36-4.87,5.18c-7.14-0.31-14.31-0.19-21.46-0.04
		c-3.06,0.07-4.05-1.03-3.95-4.07c0.15-4.3,0.4-8.65-0.62-12.92c-1.43-5.99-6.07-9.6-11.87-9.14c-5.71,0.45-9.78,4.37-10.29,10.32
		c-0.34,3.97-0.36,7.98-0.25,11.97c0.08,2.77-0.81,3.88-3.68,3.84c-7.82-0.13-15.64-0.05-23.46-0.04c-1.55,0-2.77-0.02-3.24-2.11
		C62.85,118.06,70.83,96.66,84,87.82c14.86-9.98,30.54-11.5,46.58-2.81c2.97,1.61,5.07,1.65,8.07,0.01
		c25.44-13.85,57.53,0.15,63.57,27.67c1.44,6.54,0.95,13.24,1.06,19.89c0.04,2.59-1.29,3.03-3.42,3
		C195.87,135.51,191.88,135.55,187.07,135.55z"/>
	<path class="st4" d="M96.66,168.06c0,6.83-0.1,13.65,0.05,20.48c0.07,3.22-0.94,4.36-4.34,4.23c-7.31-0.28-14.64-0.25-21.96,0.02
		c-3.17,0.12-4.15-0.98-4.14-3.93c0.06-13.65,0.06-27.3,0-40.96c-0.01-2.71,0.91-3.83,3.8-3.77c7.49,0.17,14.99,0.21,22.47-0.01
		c3.47-0.1,4.23,1.39,4.16,4.46C96.55,155.07,96.66,161.57,96.66,168.06z"/>
	<path class="st5" d="M173.21,168.39c0-6.65,0.11-13.31-0.05-19.96c-0.07-3.08,0.64-4.47,4.15-4.34c7.47,0.28,14.97,0.17,22.45,0.04
		c2.56-0.04,3.55,0.79,3.54,3.4c-0.07,13.97-0.06,27.94-0.01,41.92c0.01,2.62-1.01,3.35-3.63,3.27c-7.48-0.21-14.97-0.3-22.44,0.01
		c-3.22,0.13-4.11-0.9-4.05-3.87C173.29,182.03,173.21,175.21,173.21,168.39z"/>
	<path class="st6" d="M119.79,168.04c0-6.49,0.14-12.99-0.06-19.47c-0.1-3.11,0.59-4.54,4.07-4.43c7.48,0.22,14.98,0.17,22.47,0.02
		c2.86-0.06,3.74,0.99,3.72,3.78c-0.1,13.65-0.1,27.3,0,40.95c0.02,3.07-0.96,3.9-4.1,3.78c-7.31-0.29-14.65-0.3-21.96,0.07
		c-3.55,0.18-4.26-1.06-4.19-4.21C119.9,181.69,119.79,174.86,119.79,168.04z"/>
</g>
</svg>
