<svg id="Layer_1" data-name="Layer 1" xmlns="http://www.w3.org/2000/svg" viewBox="0 0 655.66 384.16"><defs><style>.cls-1{fill:#666;}</style></defs><title>logo</title><text x="-29.34" y="-28.84"/><path class="cls-1" d="M129.68,72.76H108.89a26.17,26.17,0,0,0-3.28-9.09,24.43,24.43,0,0,0-6-6.75,25,25,0,0,0-8.09-4.2,32.32,32.32,0,0,0-9.75-1.42,29.66,29.66,0,0,0-16.46,4.64A30.91,30.91,0,0,0,54.13,69.51q-4.05,8.92-4.06,21.76,0,13.07,4.09,22a30.32,30.32,0,0,0,11.23,13.45,29.91,29.91,0,0,0,16.37,4.53,32.69,32.69,0,0,0,9.59-1.36,26.17,26.17,0,0,0,8.06-4,24.52,24.52,0,0,0,6.06-6.56,25,25,0,0,0,3.42-8.9l20.79.12A45.05,45.05,0,0,1,100,146.72a53.8,53.8,0,0,1-18.51,3,51.66,51.66,0,0,1-26.79-6.95,48.47,48.47,0,0,1-18.57-20.06q-6.78-13.12-6.78-31.47t6.84-31.49a48.78,48.78,0,0,1,18.62-20,51.56,51.56,0,0,1,26.68-7,56.62,56.62,0,0,1,17.68,2.67,45.65,45.65,0,0,1,14.57,7.81,42.51,42.51,0,0,1,10.53,12.56A47.34,47.34,0,0,1,129.68,72.76Z" transform="translate(-29.34 -28.84)"/><path class="cls-1" d="M167.87,98.16v50H147.75V34.35h19.68v43h1a24.79,24.79,0,0,1,9.31-11.43q6.3-4.19,16.09-4.19a31.12,31.12,0,0,1,15.51,3.72,25.31,25.31,0,0,1,10.26,10.9q3.65,7.17,3.64,17.51V148.2H203.12V96.94q0-8.61-4.42-13.42t-12.37-4.81a19.57,19.57,0,0,0-9.54,2.3,16.35,16.35,0,0,0-6.56,6.65A21.72,21.72,0,0,0,167.87,98.16Z" transform="translate(-29.34 -28.84)"/><path class="cls-1" d="M253.76,50.69a11.52,11.52,0,0,1-8.2-3.22,10.26,10.26,0,0,1-3.42-7.73,10.13,10.13,0,0,1,3.45-7.7,11.67,11.67,0,0,1,8.22-3.2,11.53,11.53,0,0,1,8.2,3.23,10.4,10.4,0,0,1,0,15.42A11.61,11.61,0,0,1,253.76,50.69ZM243.7,148.2V62.81h20.12V148.2Z" transform="translate(-29.34 -28.84)"/><path class="cls-1" d="M304.62,34.35V148.2H284.5V34.35Z" transform="translate(-29.34 -28.84)"/><path class="cls-1" d="M345.43,34.35V148.2H325.3V34.35Z" transform="translate(-29.34 -28.84)"/></svg>