<?xml version="1.0" encoding="utf-8"?>
<!-- Generator: Adobe Illustrator 23.1.0, SVG Export Plug-In . SVG Version: 6.00 Build 0)  -->
<svg version="1.1" id="Layer_1" xmlns="http://www.w3.org/2000/svg" xmlns:xlink="http://www.w3.org/1999/xlink" x="0px" y="0px"
	 viewBox="0 0 270.76 271.17" style="enable-background:new 0 0 270.76 271.17;" xml:space="preserve">
<style type="text/css">
	.st0{fill:#223668;}
	.st1{fill:#FDFDFD;}
</style>
<g>
	<path class="st0" d="M135.38,262.69c-41.69,0-83.38-0.01-125.07,0.05c-1.74,0-2.08-0.34-2.08-2.08c0.06-83.38,0.06-166.76,0-250.14
		c0-1.74,0.34-2.08,2.08-2.08c83.38,0.06,166.76,0.06,250.14,0c1.74,0,2.08,0.34,2.08,2.08c-0.06,83.38-0.06,166.76,0,250.14
		c0,1.74-0.34,2.09-2.08,2.08C218.76,262.68,177.07,262.69,135.38,262.69z M120.38,191.51c14.15,0,28.3,0.13,42.45-0.05
		c8.72-0.11,16.06-3.58,21.66-10.37c5.01-6.07,9.97-12.19,14.92-18.31c3.14-3.88,6.51-7.62,9.24-11.77
		c5.59-8.5,1.29-18.21-8.62-20.07c-5.04-0.95-10.14-0.43-15.2-0.36c-2.67,0.04-3.33-0.69-3.26-3.3c0.11-4.13,0.45-8.29-0.28-12.42
		c-1.64-9.28-8.75-15.33-18.27-15.36c-13.56-0.05-27.11-0.02-40.67,0c-1.37,0-2.26,0.08-2.29-1.89
		c-0.14-11.06-7.75-18.42-18.87-18.45c-7.71-0.02-15.42-0.02-23.13,0c-11.27,0.03-18.93,7.7-18.94,19
		c-0.02,24.82,0,49.65-0.01,74.47c0,2.04,0.24,4.05,0.82,6c2.31,7.8,9.21,12.85,17.75,12.88
		C91.91,191.54,106.15,191.51,120.38,191.51z"/>
	<path class="st1" d="M120.38,191.51c-14.23,0-28.47,0.03-42.7-0.01c-8.54-0.02-15.44-5.07-17.75-12.88c-0.58-1.95-0.82-3.96-0.82-6
		c0.01-24.82-0.01-49.65,0.01-74.47c0.01-11.3,7.67-18.96,18.94-19c7.71-0.02,15.42-0.02,23.13,0c11.12,0.03,18.73,7.4,18.87,18.45
		c0.03,1.98,0.92,1.9,2.29,1.89c13.56-0.03,27.11-0.05,40.67,0c9.52,0.04,16.63,6.08,18.27,15.36c0.73,4.12,0.39,8.29,0.28,12.42
		c-0.07,2.61,0.59,3.34,3.26,3.3c5.06-0.07,10.16-0.59,15.2,0.36c9.91,1.86,14.2,11.57,8.62,20.07c-2.73,4.15-6.11,7.89-9.24,11.77
		c-4.95,6.12-9.91,12.24-14.92,18.31c-5.61,6.79-12.94,10.27-21.66,10.37C148.68,191.64,134.53,191.51,120.38,191.51z M153.4,140.67
		c-14.23,0-28.45,0.02-42.68-0.01c-5.51-0.01-10.06,2.13-13.52,6.31c-7.66,9.26-15.19,18.62-22.77,27.94
		c-1.15,1.41-2.31,2.98-1.42,4.82c0.86,1.8,2.78,1.61,4.49,1.61c28.45-0.01,56.9-0.01,85.36,0c5.4,0,9.97-2,13.37-6.1
		c7.85-9.43,15.51-19.01,23.25-28.53c1.04-1.28,2.04-2.69,1.28-4.37c-0.79-1.73-2.53-1.69-4.18-1.69
		C182.2,140.68,167.8,140.67,153.4,140.67z M69.29,165.37c6.82-8.36,13.2-16.13,19.52-23.95c4.66-5.77,10.61-9.3,17.92-10.5
		c5.55-0.91,11.16-0.35,16.73-0.39c15.16-0.09,30.33-0.08,45.49,0.03c2.18,0.02,2.69-0.59,2.58-2.66c-0.18-3.21-0.05-6.44-0.05-9.65
		c-0.01-5.59-3.01-8.59-8.6-8.59c-14.91,0-29.82,0.01-44.73-0.01c-4.86-0.01-8.07-3.22-8.19-8.07c-0.03-1.44,0-2.88-0.01-4.32
		c-0.02-4.83-3.08-7.92-7.89-7.93c-8.22-0.02-16.43-0.01-24.65,0c-5.08,0.01-8.12,3.1-8.13,8.25c-0.01,17.03,0,34.05,0,51.08
		C69.29,153.97,69.29,159.3,69.29,165.37z"/>
	<path class="st0" d="M153.4,140.67c14.4,0,28.79,0.01,43.19-0.01c1.65,0,3.39-0.04,4.18,1.69c0.76,1.68-0.24,3.09-1.28,4.37
		c-7.74,9.52-15.4,19.1-23.25,28.53c-3.41,4.09-7.97,6.1-13.37,6.1c-28.45-0.01-56.9-0.01-85.36,0c-1.71,0-3.63,0.19-4.49-1.61
		c-0.89-1.84,0.27-3.41,1.42-4.82c7.58-9.32,15.11-18.68,22.77-27.94c3.46-4.18,8.01-6.32,13.52-6.31
		C124.95,140.69,139.18,140.67,153.4,140.67z"/>
	<path class="st0" d="M69.29,165.37c0-6.08,0-11.4,0-16.72c0-17.03,0-34.05,0-51.08c0-5.15,3.05-8.24,8.13-8.25
		c8.22-0.01,16.43-0.01,24.65,0c4.81,0.01,7.87,3.11,7.89,7.93c0.01,1.44-0.03,2.88,0.01,4.32c0.11,4.85,3.32,8.06,8.19,8.07
		c14.91,0.02,29.82,0.01,44.73,0.01c5.59,0,8.59,3,8.6,8.59c0,3.22-0.13,6.45,0.05,9.65c0.12,2.07-0.4,2.67-2.58,2.66
		c-15.16-0.11-30.33-0.11-45.49-0.03c-5.58,0.03-11.18-0.53-16.73,0.39c-7.31,1.2-13.26,4.73-17.92,10.5
		C82.48,149.24,76.11,157.01,69.29,165.37z"/>
</g>
</svg>
