<?xml version="1.0" encoding="utf-8"?>
<!-- Generator: Adobe Illustrator 23.1.0, SVG Export Plug-In . SVG Version: 6.00 Build 0)  -->
<svg version="1.1" id="Layer_1" xmlns="http://www.w3.org/2000/svg" xmlns:xlink="http://www.w3.org/1999/xlink" x="0px" y="0px"
	 viewBox="0 0 389 187" style="enable-background:new 0 0 389 187;" xml:space="preserve">
<style type="text/css">
	.st0{fill:#FFFFFF;}
</style>
<rect x="92" y="410" style="fill:none;" width="593" height="3"/>
<g>
	<g>
		<g>
			<path class="st0" d="M129.68,72.76h-20.79c-0.59-3.41-1.69-6.44-3.28-9.09c-1.59-2.65-3.58-4.9-5.95-6.75
				c-2.37-1.85-5.07-3.25-8.09-4.2c-3.02-0.94-6.27-1.42-9.76-1.42c-6.19,0-11.67,1.55-16.45,4.64c-4.78,3.1-8.52,7.62-11.23,13.56
				c-2.71,5.95-4.06,13.2-4.06,21.76c0,8.71,1.36,16.04,4.09,21.99c2.72,5.95,6.47,10.43,11.23,13.45
				c4.76,3.02,10.22,4.53,16.37,4.53c3.41,0,6.61-0.45,9.59-1.36c2.98-0.91,5.67-2.25,8.06-4.03s4.41-3.96,6.06-6.56
				c1.65-2.59,2.79-5.56,3.42-8.89l20.79,0.11c-0.78,5.41-2.46,10.49-5.03,15.23c-2.58,4.74-5.94,8.92-10.09,12.54
				c-4.15,3.61-9.01,6.43-14.56,8.45s-11.73,3.03-18.51,3.03c-10.01,0-18.94-2.32-26.79-6.95c-7.86-4.63-14.05-11.32-18.57-20.07
				c-4.52-8.75-6.78-19.23-6.78-31.46c0-12.27,2.28-22.76,6.84-31.49S46.94,44.37,54.8,39.74c7.86-4.63,16.75-6.95,26.68-6.95
				c6.34,0,12.23,0.89,17.68,2.67c5.45,1.78,10.3,4.38,14.56,7.81c4.26,3.43,7.77,7.62,10.53,12.56
				C127.02,60.78,128.83,66.42,129.68,72.76z"/>
			<path class="st0" d="M167.87,98.16v50.03h-20.12V34.35h19.68v42.97h1c2-4.82,5.1-8.63,9.31-11.42c4.21-2.8,9.57-4.2,16.09-4.2
				c5.93,0,11.1,1.24,15.51,3.72c4.41,2.48,7.83,6.11,10.26,10.9c2.43,4.78,3.64,10.62,3.64,17.51v54.37h-20.12V96.94
				c0-5.74-1.47-10.22-4.42-13.42s-7.07-4.81-12.37-4.81c-3.56,0-6.74,0.77-9.53,2.31c-2.8,1.54-4.98,3.75-6.56,6.64
				C168.66,90.55,167.87,94.05,167.87,98.16z"/>
			<path class="st0" d="M253.76,50.69c-3.19,0-5.92-1.07-8.2-3.22c-2.28-2.15-3.42-4.73-3.42-7.73s1.15-5.57,3.45-7.7
				c2.3-2.13,5.04-3.2,8.23-3.2c3.19,0,5.92,1.08,8.2,3.22c2.28,2.15,3.42,4.73,3.42,7.73s-1.14,5.57-3.42,7.7
				C259.73,49.63,256.98,50.69,253.76,50.69z M243.7,148.2V62.81h20.12v85.39H243.7z"/>
			<path class="st0" d="M304.62,34.35V148.2H284.5V34.35H304.62z"/>
			<path class="st0" d="M345.43,34.35V148.2H325.3V34.35H345.43z"/>
		</g>
	</g>
</g>
</svg>
