<svg version="1" xmlns="http://www.w3.org/2000/svg" width="2778.667" height="2778.667" viewBox="0 0 2084.000000 2084.000000"><path d="M0 1042v1041h2083V1H0v1041zm614.1-898.4c37.4 7.1 78.4 39.3 119.2 93.9 44.1 58.9 91.2 148.6 131.2 249.7l5.8 14.7 11.1-6c84.9-45.9 186-86.3 293.7-117.4 196.1-56.6 389.2-75.9 496.7-49.5 34.6 8.5 62.8 23.5 77.1 41.1 11.5 14.3 16.3 28.1 16.3 47.4 0 19.1-5 38-16.1 61.1-21.2 44-51 84.9-142.7 195.9-44.4 53.8-63.4 77.4-86.2 106.7-111.2 143-166.1 251.5-179.8 355.3-3.4 26.2-2.9 61.1 1.2 88 9 58.1 39 122.9 85.7 185 20 26.6 37.7 47.1 71.3 82.2 11.2 11.7 21.7 23.4 23.5 25.9 7.8 11.3 2.5 23.4-10.2 23.4-9.3 0-12.9-3.7-68.8-69-76.9-89.9-115.4-132.3-172-189.4-82-82.6-151.1-142.1-221.1-190.3-22.6-15.5-54-35.3-56-35.3-.6 0-1 2.4-1 5.3 0 8.4-2.8 30.3-5.4 41.7-7.2 32.1-22.2 52-43.1 57.5-7.6 2-23.9 1.9-34.4 0-58.2-11.1-144.1-76.7-205.2-156.8-5-6.4-9.1-11.7-9.3-11.7-.8 0-21.5 7.3-28.1 10-20.5 8.1-48 24.7-69 41.5-12.3 9.7-44.2 41.4-55.4 55-23.6 28.4-46.2 61.3-78.6 114.5-23.8 38.9-30.6 49.6-39.5 61.5-18.5 25-33.4 35.3-49.5 34.3-26.8-1.7-43.4-31.4-52.4-93.3-18.2-125.5 1.5-381 46.9-608.7 43.8-219.7 101.2-373.1 162.5-434.3 26.2-26.1 51.9-35.6 81.6-29.9zM183 1553.1c4.7 1.1 12.8 4 18 6.6 8 3.9 10.8 5.9 18.5 13.7 10.4 10.4 16.2 20.4 19.5 33.2 3.2 12.6 4.7 11.5-15.6 11.2l-17.6-.3-1.8-5.7c-5-16.1-17.4-26.2-35.3-28.9-20.6-3.1-40.1 6-50.5 23.4-12.6 21-13.5 58.2-2 81.5 6.4 13 19.3 23.3 32.6 26.1 11.6 2.4 26 .8 35.4-4 9.3-4.8 18.8-16.7 20.7-26.2l.7-3.2 17.7-.3 17.7-.2v2.4c0 1.3-.9 5.5-2.1 9.2-8.7 28.3-32 48.7-61.6 53.9-48.9 8.5-90.9-19.2-101.7-67.2-2.4-11-3.6-28.4-2.6-40.3 2.4-29 10.8-48.1 28.7-65 9.6-9.2 17.9-14.1 30.2-18.1 16.4-5.2 33.7-5.9 51.1-1.8zm125 40.4v40.5h87v-81l17.8.2 17.7.3.3 95.2.2 95.3h-36v-80h-87v80h-36v-94.8c0-52.2.3-95.2.7-95.5.3-.4 8.4-.7 18-.7H308v40.5zm195 55v95.5h-36v-94.8c0-52.2.3-95.2.7-95.5.3-.4 8.4-.7 18-.7H503v95.5zm73-14.5v81h84v29H540v-94.8c0-52.2.3-95.2.7-95.5.3-.4 8.4-.7 18-.7H576v81zm148 0v81h84v29H688v-94.8c0-52.2.3-95.2.7-95.5.3-.4 8.4-.7 18-.7H724v81zm296 149.5c16.6 3.5 29.2 10.4 41.5 22.9 18.5 18.7 26.5 40.8 26.5 73 0 28.4-5.7 47.7-19.6 66.3-7.3 9.8-16.8 17.5-28.9 23.3-13.4 6.5-22.6 8.5-39 8.5s-25.7-2-39-8.5c-16.5-8-27.6-18.7-36.5-35.2-9.3-17.3-12.5-33.5-11.7-59.2.4-13.8 1-19 3-26.6 4.7-18.1 12.6-31.9 25.1-43.7 10.9-10.5 24.2-17.5 38.8-20.7 8.7-1.9 30.9-2 39.8-.1zm-862 1.5c49 6 77 40.4 77 94.5 0 49.1-22.7 81.8-64.2 92.7-7.8 2-11.1 2.2-50.5 2.5l-42.3.4V1784h35.8c19.7 0 39.6.5 44.2 1zm234 14v15h-89v51h83v29h-83v52h90v29H268v-191h124v15zm86.3 60c13.7 41.3 25.1 75 25.5 75 .4 0 11.9-33.8 25.5-75l24.8-75H593l-2.8 7.7c-1.6 4.3-16.8 47.3-33.8 95.5l-30.9 87.8h-21.6c-19.7 0-21.7-.2-22.4-1.8-.3-.9-15.3-43.3-33.2-94.2-17.9-50.9-32.8-93.1-33-93.8-.4-.9 3.8-1.2 18.9-1.2h19.4l24.7 75zm263.7-60v15h-89v51h83v29h-83v52h90v29H618v-191h124v15zm70 66v81h83v29H777v-191h35v81zm394.7-79.9c21.5 2.9 37.7 13.6 46.7 30.9 5.2 9.9 6.9 17.6 6.9 31.5 0 14-1.7 21.6-7 31.8-9 17.1-25.2 27.7-46.6 30.6-4.3.6-17.3 1.1-28.8 1.1H1157v64h-35v-191h38.4c21.8 0 41.8.5 46.3 1.1zm154.8 67.8c15.4 37.7 28.5 68.6 29.1 68.8.6.2 11.3-24.8 23.9-55.4 12.5-30.7 25.3-61.8 28.3-69.1l5.4-13.2h42.8v191h-34v-65.7c0-36.1-.2-65.4-.5-65.1-.3.3-12.4 29.8-26.8 65.4l-26.2 64.9-12.6.3-12.6.3-11.5-28.3c-6.3-15.6-18.1-45.1-26.4-65.5-8.2-20.5-15.2-37.3-15.6-37.3-.5 0-.8 29.5-.8 65.5v65.5h-33v-191l21.2.2 21.2.3 28.1 68.4zM1652 1799v15h-89v51h83v29h-83v52h90v29h-125v-191h124v15zm111.7 50c24.6 35.7 45.1 65 45.6 65 .4 0 .7-29.3.7-65v-65h35v191h-31.8l-43.3-62.6c-23.8-34.5-44.1-63.6-45.1-64.8-1.7-2-1.7.4-1.8 62.6v64.8h-35v-191h30.8l44.9 65zm262.1-50.3l-.3 14.8-29.2.3-29.3.2v161h-35v-161h-59v-30h153.1l-.3 14.7z"/><path d="M586.3 168.5c-55.2 15.6-112.5 126.1-160.6 310-43.5 166.1-75.1 377.8-82.7 554.5-1.3 30.4-1.3 101.8 0 124.6 3.8 65.5 12.8 107.1 26.6 122.3 6.6 7.4 11.8 6.1 23.3-5.7 10.1-10.3 20.4-25.4 44.9-65.5 40.7-66.4 59.3-93.6 86.3-126.2 11.4-13.8 44.2-46.4 56.5-56.3 29.2-23.4 58.2-40.2 88.6-51.2 6.9-2.5 11.5-4.7 11.1-5.3-33.9-54.8-50.7-101.9-54.5-152.7-3.6-48.3 10-95.9 40.6-142.5 34.9-53 92.3-104.5 169.9-152.4 6.5-4 11.6-7.8 11.4-8.5-40.8-102.4-75.5-172.8-114.2-231.6-40.4-61.3-79.7-99.2-115.1-110.9-11.8-3.9-24-4.9-32.1-2.6zM1512 343.6c-43 2.9-70 5.6-110 11.4-157.2 22.6-328.8 74.6-462.7 140-27.3 13.3-57.8 29.5-58.8 31-.3.5 2.4 9.1 6.1 19.2 55.6 153 97 327.9 104.9 443.5.9 12.5 1.9 26.4 2.2 30.8l.5 8 13.1 7.5c52.8 30.3 119.8 79.9 181.2 133.9 42.1 37.1 99.4 92.9 144.9 141.1 10.1 10.7 11.5 11.9 10.1 8.5-22.2-52.8-30.5-90.9-30.5-140.7 0-45.7 6.6-84.1 23-132.8 19.3-57.8 51.8-120.5 97.4-188 38-56.2 70.6-98.4 156.1-202 59.6-72.2 85.3-105.1 106.7-136.5 23.1-33.9 35.4-58.5 41.4-82.4 3.3-13.1 3.1-27.1-.5-36.4-11-28.3-50.2-46.1-119.6-54.3-10.5-1.2-24.6-1.7-57-1.9-23.6-.1-45.5-.1-48.5.1z"/><path d="M844 547.3c-72.2 45.8-122.8 91.2-154.8 138.9-33.6 50.1-44.8 99.6-35.1 154.3 4.5 25.6 16 57.6 30.8 86 6.6 12.7 20.5 36 22 36.9.4.3 6.1-.4 12.7-1.5 68.7-11.2 149.5 3.7 230.3 42.7 9.6 4.6 17.6 8.2 17.8 8 .6-.6-1.5-27.9-3.8-49.6-11.6-107.4-46.4-252.3-92-382.5-13.5-38.6-14.2-40.5-15.3-40.5-.6 0-6.3 3.3-12.6 7.3zM750.5 984c-14.9 1-23.9 2-25.5 3-1 .6 0 2.6 4 7.7 56.3 72 134.8 131.5 187.8 142.2 13.2 2.7 24.5.5 30.9-5.9 11.6-11.5 19.4-40.7 19.7-73.4l.1-16-15.5-7.8c-47.7-24-96.9-40.4-140.5-46.9-11.9-1.7-41.5-4.1-47.5-3.7-1.4 0-7.4.4-13.5.8zM992 1813.6c-21 4.1-35.1 18.3-41.1 41.3-2.6 9.6-3.6 29.8-2 40.1 5 32.4 23.8 51 51.6 51 13.4 0 23.6-3.7 32.7-11.8 14-12.6 20.7-32.8 19.5-59.2-1.7-37.9-19.6-60.2-49.7-61.5-4.7-.2-9.6-.1-11 .1zM113 1880v65.2l20.8-.5c28.2-.6 37.8-3.4 49.1-14.2 6.8-6.5 11.1-13.9 14.3-25 2-7 2.3-10.2 2.3-26 0-15.9-.3-19-2.4-26.2-3.9-13.9-12.1-25.3-22.2-30.7-11.5-6.3-14.5-6.9-39.1-7.4l-22.8-.4v65.2zM1157 1848v34.2l21.3-.4c18.7-.3 21.8-.6 26.4-2.5 8.1-3.2 12.8-7.5 16.5-15.1 3.1-6.2 3.3-7.4 3.3-16.7 0-8.3-.4-10.9-2.3-15-3-6.5-9.2-12.8-15.6-15.7-4.8-2.1-6.6-2.3-27.3-2.6l-22.3-.3v34.1z"/></svg>