<?xml version="1.0" encoding="utf-8"?>
<!-- Generator: Adobe Illustrator 23.1.0, SVG Export Plug-In . SVG Version: 6.00 Build 0)  -->
<svg version="1.1" id="Layer_1" xmlns="http://www.w3.org/2000/svg" xmlns:xlink="http://www.w3.org/1999/xlink" x="0px" y="0px"
	 viewBox="0 0 270.76 271.17" style="enable-background:new 0 0 270.76 271.17;" xml:space="preserve">
<style type="text/css">
	.st0{fill:#B7B7B7;}
	.st1{fill:#FFFFFF;}
</style>
<g>
	<path class="st0" d="M176.72,139.47c-4.3,0.15-7.99-0.99-10.97-4c-1.8-1.82-2.65-4.09-2.87-6.62c-0.03-0.32-0.15-0.69,0.15-0.87
		c0.99-0.58,2.09-0.24,3.14-0.27c0.71-0.02,0.67,0.6,0.77,1.09c0.84,4.15,3.48,6.46,7.59,6.98c3.32,0.42,6.68,0.6,9.49-1.88
		c2.61-2.31,2.33-6.63-0.63-8.4c-1.8-1.08-3.83-1.59-5.87-2.03c-3.32-0.71-6.7-1.26-9.69-2.97c-4.31-2.47-5.29-7.85-2.33-11.88
		c1.7-2.31,4-3.58,6.72-4.16c3.32-0.7,6.64-0.67,9.87,0.48c3.6,1.28,5.54,4,6.3,7.63c0.14,0.67,0.5,1.9-0.5,1.86
		c-1.15-0.05-3.04,0.89-3.45-0.9c-0.58-2.52-1.88-4.16-4.19-5.18c-2.63-1.15-5.32-1.04-7.95-0.23c-2.34,0.72-4.2,2.22-4.01,5.62
		c0.14,2.54,1.63,3.52,4.42,4.44c3.52,1.15,7.29,1.38,10.75,2.8c5.35,2.19,7.05,4.86,6.51,10.27c-0.34,3.45-3.99,6.84-8.31,7.76
		C179.98,139.37,178.29,139.55,176.72,139.47z"/>
	<path class="st0" d="M217.76,138.44c-2.94,1.01-4.76,0.38-6.33-2.08c-1.96-3.07-3.99-6.08-5.93-9.16c-0.67-1.06-1.21-1.16-2.2-0.36
		c-1.78,1.45-3.14,2.94-2.75,5.52c0.23,1.54-0.06,3.16,0.06,4.73c0.13,1.66-0.83,1.63-2,1.64c-1.13,0.01-1.88-0.02-1.87-1.55
		c0.06-10.29,0.06-20.58,0-30.87c-0.01-1.62,0.9-1.47,1.94-1.47c1.04,0,1.96-0.12,1.94,1.49c-0.08,5.55-0.03,11.11-0.01,16.66
		c0,0.48-0.25,1.14,0.24,1.4c0.62,0.33,1.05-0.36,1.4-0.7c2.7-2.55,5.47-5.04,7.95-7.79c1.66-1.83,3.68-1.6,5.7-1.8
		c0.25-0.03,0.5,0.08,0.53,0.41c0.04,0.43-0.24,0.7-0.52,0.95c-1.68,1.52-3.34,3.07-5.05,4.55c-3.55,3.08-3.55,3.05-0.92,6.9
		C212.57,130.74,215.15,134.59,217.76,138.44z"/>
	<path class="st0" d="M238.31,118.04c2.59-3.98,6.24-5.02,10.65-4.06c2.95,0.65,5.35,3.16,5.42,6.2c0.14,5.74,0.08,11.48,0.09,17.22
		c0,2.17-1.7,1.05-2.66,1.31c-1.24,0.34-1.12-0.61-1.12-1.37c-0.02-4.86-0.1-9.72,0-14.57c0.05-2.21-0.45-4.12-2.44-5.13
		c-2.21-1.12-4.59-0.88-6.71,0.37c-2.46,1.44-3.32,3.86-3.37,6.57c-0.07,4.16-0.11,8.33-0.01,12.49c0.04,1.61-0.77,1.65-1.98,1.68
		c-1.29,0.03-1.93-0.19-1.91-1.73c0.08-6.94,0.11-13.88,0-20.82c-0.03-1.94,0.93-1.86,2.32-1.91c1.67-0.06,1.42,0.97,1.45,1.97
		C238.06,116.8,237.57,117.37,238.31,118.04z"/>
	<path class="st0" d="M28.53,103.93c3.43,0.03,6.27,0.49,8.77,2.18c2.51,1.69,3.84,4.1,4.2,7.07c0.06,0.52,0.39,1.2-0.6,1.2
		c-0.62,0-1.15,0.11-1.39-0.82c-1.88-7.42-11.67-10.65-17.8-5.92c-3.79,2.92-3.34,8.44,0.88,10.66c2.78,1.46,5.89,1.79,8.88,2.5
		c2.21,0.52,4.43,0.97,6.5,1.97c6.11,2.97,5.44,10.67,1.75,13.84c-3.11,2.67-6.77,3.23-10.61,3.04c-3.16-0.16-6.25-0.71-8.87-2.76
		c-2.68-2.09-3.85-4.89-4.09-8.18c-0.04-0.63,0.07-1.11,0.9-1.1c0.67,0.01,1.11,0.17,1.11,0.92c0.02,4.07,2.04,6.91,5.73,8.27
		c4.31,1.59,8.73,1.9,12.97-0.46c2.65-1.47,3.81-3.83,3.66-6.76c-0.15-3.03-2.17-4.68-4.78-5.74c-2.88-1.18-5.98-1.51-8.97-2.25
		c-2.33-0.57-4.7-1.07-6.66-2.55c-2.52-1.9-3.36-4.5-2.86-7.55c0.56-3.38,2.71-5.47,5.8-6.63
		C24.97,104.15,26.98,103.88,28.53,103.93z"/>
	<path class="st0" d="M74.85,118.85c1.97-4.17,5.12-5.69,9.36-4.97c3.51,0.6,5.86,2.98,5.98,6.54c0.18,5.8,0.07,11.61,0.1,17.42
		c0,0.64-0.08,1.13-0.9,1.09c-0.92-0.04-0.72-0.67-0.72-1.22c0-4.67,0.01-9.34,0-14.01c0-0.76,0-1.52-0.07-2.27
		c-0.36-3.84-2.1-5.84-5.37-6.22c-3.3-0.38-6.63,1.69-7.69,4.87c-0.48,1.44-0.71,2.94-0.71,4.46c0,4.23,0.01,8.46-0.05,12.69
		c-0.01,0.62,0.5,1.71-0.82,1.67c-1.31-0.05-0.72-1.14-0.73-1.74c-0.06-5.24,0.02-10.48-0.07-15.72c-0.07-4.34-3.33-7.05-7.17-6.12
		c-3.81,0.92-6.35,3.91-6.45,7.84c-0.11,4.54-0.07,9.09-0.1,13.63c0,0.38-0.02,0.76,0,1.14c0.04,0.75-0.33,1-1.03,0.99
		c-0.76-0.01-0.72-0.53-0.72-1.05c0-7.57,0.01-15.15,0.01-22.72c0-0.58,0.06-0.94,0.82-0.87c0.6,0.05,0.96,0.15,0.95,0.83
		c-0.02,1.19-0.01,2.38-0.01,4.14c1.7-3.57,4.2-5.35,7.67-5.58C70.56,113.46,73.18,115.16,74.85,118.85z"/>
	<path class="st0" d="M99.54,134.2c-0.59,0.39-0.35,0.85-0.35,1.27c0.01,3.66,0,7.33,0.02,10.99c0,0.7-0.08,1.29-0.98,1.25
		c-0.91-0.04-0.7-0.74-0.7-1.26c-0.01-10.29,0-20.59,0.01-30.88c0-0.6-0.2-1.29,0.86-1.26c1.12,0.03,0.73,0.83,0.76,1.35
		c0.06,1.24,0.02,2.48,0.02,4.18c1.03-1.29,1.44-2.45,2.31-3.31c4.97-4.84,13.46-3.29,16.4,3.06c1.91,4.14,1.95,8.42,0.62,12.72
		c-1.34,4.33-4.41,6.68-8.86,7.06C105.26,139.75,101.5,138.64,99.54,134.2z"/>
	<path class="st0" d="M131.23,114.46c1.32-0.44,1.99-0.03,2.48,1.21c2.53,6.38,5.14,12.72,7.74,19.07c0.23,0.57,0.3,1.23,0.99,1.79
		c1.75-4.62,3.47-9.17,5.18-13.72c0.95-2.53,1.95-5.06,2.82-7.62c0.3-0.89,0.87-1.02,1.58-0.89c0.86,0.15,0.42,0.74,0.26,1.17
		c-3.76,9.47-7.13,19.09-11.14,28.46c-1.29,3.01-3.23,4.08-6.45,3.78c-0.54-0.05-1.01-0.08-0.97-0.82c0.03-0.62,0.43-0.63,0.9-0.71
		c3.81-0.64,6.49-3.61,6.7-7.34c0.03-0.56-0.31-0.93-0.5-1.38c-3.08-7.38-6.18-14.76-9.27-22.13
		C131.42,115.07,131.34,114.78,131.23,114.46z"/>
	<path class="st0" d="M222.6,126.46c0-3.53,0.1-7.06-0.04-10.58c-0.08-2.05,1.17-1.76,2.44-1.82c1.44-0.08,1.49,0.53,1.49,1.81
		c0,6.73-0.29,13.47,0.13,20.2c0.15,2.37-1.25,3.52-3.39,2.77c-0.81-0.28-0.61-1.01-0.62-1.61
		C222.6,133.64,222.61,130.05,222.6,126.46C222.6,126.46,222.6,126.46,222.6,126.46z"/>
	<path class="st0" d="M125.34,121.78c0-5.11-0.01-10.22,0.01-15.34c0-0.66-0.43-1.65,0.88-1.65c1.22,0,0.77,0.95,0.77,1.52
		c0.03,10.35,0.03,20.7,0.01,31.05c0,0.61,0.38,1.54-0.76,1.58c-1.27,0.04-0.9-0.96-0.91-1.64c-0.02-5.17-0.01-10.35-0.01-15.52
		C125.33,121.78,125.34,121.78,125.34,121.78z"/>
	<path class="st0" d="M50.49,126.7c0,3.6,0.01,7.2-0.02,10.79c0,0.54,0.37,1.36-0.69,1.43c-1.2,0.08-0.89-0.83-0.89-1.44
		c-0.02-7.26-0.02-14.52,0.01-21.78c0-0.49-0.47-1.33,0.66-1.4c1.2-0.07,0.89,0.79,0.9,1.41c0.02,3.66,0.01,7.32,0.01,10.98
		C50.48,126.7,50.48,126.7,50.49,126.7z"/>
	<path class="st0" d="M218.15,156.44c0.29,2.25-1.1,4.67-3.21,5.7c-3.32,1.62-7.42,0.19-9.01-3.14c-2.49-5.22,0.04-11.14,5.16-11.95
		c2.55-0.4,4.75,0.36,6.27,2.56c0.44,0.64,0.97,1.33,0.5,2.2c-0.33,0.01-0.49-0.15-0.61-0.4c-1.42-2.95-3.23-4.03-6.05-3.64
		c-2.55,0.35-4.61,2.48-5.18,5.35c-0.77,3.88,0.93,7.43,4.12,8.6c3.06,1.12,6.1-0.51,7.27-3.88
		C217.56,157.41,217.42,156.82,218.15,156.44z"/>
	<path class="st0" d="M168.58,162.18c-1.38,0.47-2-0.06-2.22-1.5c-1.23,1.73-2.88,2.13-4.78,1.95c-1.58-0.16-2.63-0.89-2.76-2.54
		c-0.13-1.6,0.44-2.78,2.13-3.3c1.23-0.37,2.5-0.28,3.74-0.53c0.87-0.18,1.74-0.31,1.81-1.52c0.08-1.23-0.3-2.05-1.52-2.49
		c-2.1-0.75-3.7,0-5.24,2.56c-0.57-0.42-0.24-0.93-0.09-1.34c0.65-1.76,2.69-2.49,5.37-1.97c1.78,0.34,2.27,1.53,2.22,3.18
		c-0.05,1.64,0.01,3.28,0,4.92C167.25,160.65,167.08,161.76,168.58,162.18z"/>
	<path class="st0" d="M186.91,162.45c-3.19,0.45-4.92-0.3-5.82-2.52c-1.19-2.94-0.43-6.37,1.82-7.83c1.62-1.06,3.36-1.01,5.01-0.09
		c1.64,0.92,2.09,2.61,2.3,4.32c0.1,0.84-0.64,0.76-1.2,0.77c-2.14,0-4.29,0.03-6.43-0.01c-1.1-0.02-1.46,0.3-1.18,1.45
		c0.57,2.33,1.97,3.46,4.61,3.54C186.37,162.05,186.87,161.71,186.91,162.45z"/>
	<path class="st0" d="M170.2,158.8c1.9,3.05,3.34,3.77,5.7,2.97c0.92-0.31,1.77-0.75,1.84-1.9c0.08-1.23-0.69-1.86-1.71-2.18
		c-1.08-0.34-2.21-0.5-3.3-0.82c-1.44-0.42-2.61-1.23-2.46-2.89c0.15-1.72,1.39-2.39,3.01-2.56c3.08-0.33,4.78,0.79,4.71,3.19
		c-0.77,0.02-0.59-0.69-0.81-1.07c-1-1.75-4.34-2.13-5.64-0.61c-0.87,1.01-0.58,2.39,0.77,2.92c1.16,0.46,2.42,0.68,3.64,0.98
		c1.59,0.39,2.59,1.3,2.56,3.02c-0.02,1.52-1.2,2.53-3.06,2.75c-3.13,0.37-4.9-0.6-5.46-3.02
		C169.95,159.41,170.07,159.23,170.2,158.8z"/>
	<path class="st0" d="M253.56,155.26c-2.15-3.02-3.75-3.76-5.79-2.99c-1.89,0.71-2.94,2.71-2.79,5.27c0.14,2.34,1.4,4,3.37,4.42
		c1.98,0.43,3.44-0.54,4.84-3.21c0.44,1-0.06,2.29-1.24,3.13c-2.45,1.76-6.16,0.65-7.25-2.16c-0.69-1.78-0.69-3.57-0.03-5.34
		c0.77-2.06,2.49-3.12,4.92-3.01c1.86,0.08,3.27,0.86,3.89,2.72C253.55,154.3,253.51,154.55,253.56,155.26z"/>
	<path class="st0" d="M222.62,106.86c-0.34-1.53,0.28-2.16,1.99-2.01c1.19,0.1,2.19-0.06,2.09,1.72c-0.15,2.63-0.26,2.81-2.2,2.95
		C222.35,109.68,222.56,108.32,222.62,106.86z"/>
	<path class="st0" d="M148.76,147.25c0.49,0.62,0.34,1.26,0.34,1.83c0.01,3.72,0.05,7.45-0.03,11.17c-0.03,1.18,0.3,1.55,1.48,1.5
		c1.89-0.09,3.79-0.05,5.68-0.01c0.49,0.01,1.15-0.31,1.57,0.76c-3.05,0-5.96,0.01-8.88,0c-0.61,0-0.66-0.47-0.66-0.93
		c0.02-4.61,0.04-9.21,0.07-13.82C148.33,147.62,148.54,147.5,148.76,147.25z"/>
	<path class="st0" d="M236.58,153.44c-1.17-1.23-2.5-1.87-4.2-1.13c-1.75,0.77-2.53,2.17-2.55,4.03c-0.02,2.04,0,4.08-0.31,6.13
		c-0.7-3.57-0.37-7.16-0.5-10.98c1.11,0.46,0.62,1.22,0.97,2.02c1.15-1.99,2.92-2.3,4.87-2.05c0.99,0.13,1.78,0.57,2.13,1.59
		C236.94,153.26,236.8,153.39,236.58,153.44z"/>
	<path class="st0" d="M193.41,162.45c-0.84-1.24-0.92-9.01-0.43-10.82c0.76,0.4,0.24,1.15,0.55,1.75c1.18-0.92,2.25-2.19,4.03-1.71
		c-0.03,0.2-0.02,0.4-0.07,0.42c-3.53,1.15-4.07,1.89-4.08,5.64C193.4,159.31,193.41,160.88,193.41,162.45z"/>
	<path class="st0" d="M221.37,147.12c0.6,0.84,0.43,1.41,0.43,1.94c0.02,4.46,0.01,8.91-0.43,13.37
		C221.37,157.45,221.37,152.47,221.37,147.12z"/>
	<path class="st0" d="M241.41,151.61c0.15,3.61,0.17,7.23-0.01,10.85c-0.16,0-0.32,0-0.48,0.01c0-3.61,0-7.22,0-10.83
		C241.08,151.62,241.24,151.62,241.41,151.61z"/>
	<ellipse class="st0" cx="225.5" cy="157.1" rx="0.22" ry="7.51"/>
	<path class="st0" d="M50.59,107.27c-0.6,0.63,0.81,2.14-0.88,2.15c-1.63,0.01-0.74-1.46-0.75-2.16c-0.02-0.8-0.8-2.37,0.71-2.39
		C51.27,104.85,50.09,106.46,50.59,107.27z"/>
	<path class="st0" d="M236.58,153.44c0.13-0.13,0.27-0.27,0.4-0.4c1.02,1.63,0.37,3.42,0.48,5.13c0.09,1.41,0.02,2.83-0.18,4.25
		C236.65,159.44,237.34,156.39,236.58,153.44z"/>
	<path class="st0" d="M186.91,162.45c-0.3-0.13-0.6-0.26-0.9-0.38c1.74-0.47,2.85-1.63,3.46-3.47
		C190.15,160.29,189.09,161.73,186.91,162.45z"/>
	<path class="st0" d="M240.99,149.8c-0.32-1.06-0.45-1.73,0.08-2.61C241.7,148.06,241.66,148.72,240.99,149.8z"/>
	<path class="st0" d="M225.53,149.26c-0.42-0.58-0.42-1.19-0.1-2.04C225.98,148,225.85,148.62,225.53,149.26z"/>
	<path class="st1" d="M99.4,126.68c-0.15-2.36,0.14-4.68,1.22-6.81c1.53-3.03,4.06-4.61,7.43-4.69c3.33-0.08,6.1,1.17,7.74,4.16
		c2.43,4.43,2.56,9.09,0.53,13.66c-1.78,4.02-5.88,5.73-10.49,4.78c-3.44-0.71-6.02-4.08-6.42-8.44
		C99.33,128.46,99.4,127.57,99.4,126.68z"/>
	<path class="st1" d="M166.51,157.93c-0.09,2.94-2.4,4.67-5.13,3.93c-1.1-0.3-1.79-0.85-1.79-2.07c-0.01-1.2,0.4-2.11,1.68-2.36
		c1.54-0.3,3.08-0.62,4.63-0.78C167.1,156.52,166.28,157.54,166.51,157.93z"/>
	<path class="st1" d="M185.22,156.44c-0.75,0-1.52-0.09-2.26,0.02c-1.92,0.29-1.69-0.74-1.22-1.91c0.65-1.58,2.49-2.73,4.02-2.57
		c1.74,0.19,3.1,1.52,3.44,3.27c0.17,0.87,0.02,1.28-0.98,1.21C187.23,156.39,186.23,156.44,185.22,156.44z"/>
</g>
</svg>
